<?xml version="1.0" encoding="utf-8"?>
<!-- Generator: Adobe Illustrator 16.0.0, SVG Export Plug-In . SVG Version: 6.00 Build 0)  -->
<!DOCTYPE svg PUBLIC "-//W3C//DTD SVG 1.1//EN" "http://www.w3.org/Graphics/SVG/1.1/DTD/svg11.dtd">
<svg version="1.1" id="Layer_1" xmlns="http://www.w3.org/2000/svg" xmlns:xlink="http://www.w3.org/1999/xlink" x="0px" y="0px"
	 width="589.42px" height="40.917px" viewBox="0 0 589.42 40.917" enable-background="new 0 0 589.42 40.917" xml:space="preserve">
<g>
	<g>
		<path d="M26.056,25.535c-2.576,4.639-7.939,5.264-9.375,5.432c-0.972,0.125-1.985,0.209-2.999,0.209
			c-5.912,0-9.249-1.963-11.233-3.551c-0.802-0.668-1.182-1.086-2.365-2.465l5.659-3.51c0.126,0.125,0.718,0.794,1.309,1.254
			c1.942,1.588,4.814,2.465,7.306,2.465c0.338,0,1.351,0,2.323-0.293c0.211-0.041,3.167-0.877,3.167-3.133
			c0-2.716-3.97-2.799-6.63-3.176c-1.394-0.166-2.83-0.418-4.223-0.752c-2.154-0.543-4.139-1.336-5.617-3.091
			c-0.295-0.335-0.887-1.087-1.267-2.173c-0.127-0.418-0.38-1.379-0.38-2.59c0-0.25,0.042-1.211,0.169-2.047
			c0.338-1.88,1.14-3.384,2.576-4.721c1.478-1.379,4.392-3.092,9.291-3.092c1.816,0,5.786,0.209,9.84,2.925
			c1.013,0.669,1.604,1.169,3.294,2.632l-5.49,3.885c-1.647-1.587-2.787-2.506-5.025-3.217c-0.38-0.083-1.52-0.418-2.787-0.418
			c-3.041,0-4.434,1.755-4.434,3.134c0,0.794,0.422,1.337,0.633,1.546c1.014,1.086,2.661,1.044,5.448,1.463
			c1.689,0.25,3.336,0.584,4.983,0.96c1.056,0.209,4.898,0.961,6.418,4.554c0.211,0.543,0.591,1.67,0.591,3.175
			C27.238,21.775,27.153,23.531,26.056,25.535z"/>
		<path d="M48.522,27.457c-2.914,3.385-6.672,3.76-8.277,3.76c-0.971,0-2.914-0.125-5.152-1.211
			C30.955,28,29.308,24.115,29.308,19.77c0-1.003,0.042-3.091,1.098-5.515c2.491-5.723,7.939-6.182,9.966-6.182
			c1.731,0,5.616,0.334,8.573,4.01c0.253,0.334,0.422,0.585,0.844,1.254l-4.814,2.715c-0.042-0.125-0.38-0.794-0.718-1.254
			c-0.38-0.459-1.605-1.796-3.59-1.796c-0.464,0-1.394,0.042-2.365,0.752c-2.238,1.671-2.323,5.39-2.323,5.807
			c0,1.88,0.633,4.304,2.111,5.515c0.422,0.334,1.352,1.045,2.787,1.045c2.112-0.041,3.252-1.42,3.632-1.963
			c0.211-0.334,0.38-0.586,0.634-1.297l4.898,2.508C49.579,26.08,49.072,26.83,48.522,27.457z"/>
		<path d="M66.049,30.505V19.102c0-1.671,0.084-3.886-1.521-4.972c-0.549-0.376-1.183-0.543-1.816-0.543
			c-0.338,0-1.182,0.084-1.942,0.585c-1.394,0.961-1.562,2.464-1.562,5.473v10.86h-6.503V1.013h6.503l0.042,9.984
			c0.127-0.125,0.676-0.752,1.267-1.17c2.027-1.545,4.054-1.713,4.983-1.713c2.956,0,4.646,1.379,5.363,2.172
			c0.464,0.502,0.845,1.129,1.056,1.755c0.38,0.961,0.591,2.047,0.591,4.136v14.329H66.049z"/>
		<path d="M95.653,28.626c-1.267,1.045-3.843,2.549-7.981,2.549c-1.141,0-5.617-0.209-8.657-3.135
			c-1.309-1.252-3.167-3.926-3.167-8.479c0-1.253,0.084-4.804,2.576-7.771c1.521-1.796,4.561-4.052,10.135-3.717
			c2.576,0.125,4.856,0.709,6.926,2.339c2.745,2.214,4.054,5.681,4.054,9.19C99.538,24.533,97.173,27.373,95.653,28.626z
			 M90.627,13.963c-0.591-0.418-1.478-0.835-3.209-0.835c-0.296,0-1.521,0.083-2.449,0.626c-1.183,0.669-2.576,2.548-2.576,5.765
			c0,2.131,0.718,3.719,1.14,4.387c0.507,0.752,1.773,2.131,4.223,2.131c3.589,0,5.194-2.967,5.194-6.225
			C92.95,16.511,91.894,14.841,90.627,13.963z"/>
		<path d="M121.203,28.626c-1.267,1.045-3.843,2.549-7.981,2.549c-1.14,0-5.617-0.209-8.657-3.135
			c-1.309-1.252-3.167-3.926-3.167-8.479c0-1.253,0.084-4.804,2.576-7.771c1.521-1.796,4.561-4.052,10.135-3.717
			c2.576,0.125,4.856,0.709,6.926,2.339c2.745,2.214,4.054,5.681,4.054,9.19C125.088,24.533,122.723,27.373,121.203,28.626z
			 M116.178,13.963c-0.591-0.418-1.478-0.835-3.209-0.835c-0.295,0-1.52,0.083-2.449,0.626c-1.183,0.669-2.576,2.548-2.576,5.765
			c0,2.131,0.718,3.719,1.14,4.387c0.507,0.752,1.774,2.131,4.223,2.131c3.589,0,5.194-2.967,5.194-6.225
			C118.5,16.511,117.445,14.841,116.178,13.963z"/>
		<path d="M128.51,30.505V1.013h6.461v29.492H128.51z"/>
		<path d="M163.799,2.123l-0.778,1.494c-0.091,0.182-0.32,0.317-0.503,0.317c-0.367,0-0.549-0.046-0.778-0.046
			c-2.701,0-5.219,2.084-5.723,4.801l-0.458,2.582c-0.046,0.271-0.138,0.634-0.138,0.77c0,0.227,0.138,0.317,0.412,0.317h3.388
			c0.183,0,0.366,0.136,0.366,0.362l-0.32,1.767c-0.046,0.317-0.184,0.452-0.504,0.452h-3.388c-0.32,0-0.503,0.137-0.549,0.453
			l-3.159,17.619c-0.778,4.393-4.899,7.88-9.294,7.88c-0.458,0-1.007-0.046-1.419-0.091c-0.275-0.045-0.412-0.137-0.412-0.271
			c0-0.227,0.137-0.361,0.275-0.634l0.732-1.358c0.091-0.182,0.274-0.318,0.458-0.318c0.366,0,0.595,0.047,0.824,0.047
			c2.701,0,5.173-2.083,5.677-4.801l3.021-16.803c0.138-0.679,0.229-1.224,0.229-1.404c0-0.227-0.091-0.317-0.366-0.317h-1.236
			c-0.229,0-0.412-0.135-0.412-0.361l0.321-1.767c0.045-0.317,0.229-0.453,0.549-0.453h1.236c0.32,0,0.458-0.136,0.503-0.453
			l0.504-2.763c0.778-4.393,4.944-7.881,9.339-7.881c0.458,0,0.962,0.046,1.374,0.092c0.275,0.045,0.412,0.135,0.412,0.271
			C163.982,1.805,163.891,1.941,163.799,2.123z"/>
		<path d="M177.076,17.159l-1.099,6.114c-0.778,4.395-4.487,7.428-9.34,7.428c-4.258,0-6.73-2.354-6.73-5.888
			c0-0.498,0.046-0.997,0.137-1.54l1.099-6.114c0.778-4.394,4.396-7.382,9.249-7.382c4.304,0,6.822,2.309,6.822,5.887
			C177.214,16.117,177.168,16.661,177.076,17.159z M169.934,12.358c-2.701,0-5.265,2.129-5.723,4.801l-1.099,6.114
			c-0.046,0.271-0.046,0.543-0.046,0.814c0,2.266,1.648,4.031,4.029,4.031c2.655,0,5.311-2.22,5.769-4.847l1.099-6.114
			c0.046-0.271,0.092-0.543,0.092-0.815C174.055,14.08,172.315,12.358,169.934,12.358z"/>
		<path d="M192.094,12.902c-0.046,0.361-0.275,0.453-0.641,0.453h-0.687c-2.747,0-5.265,2.037-5.723,4.709l-2.061,11.73
			c-0.045,0.316-0.229,0.453-0.549,0.453h-2.197c-0.275,0-0.412-0.09-0.412-0.316c0-0.182,0.229-1.133,0.366-1.947l3.067-17.301
			c0.046-0.318,0.229-0.453,0.549-0.453h1.694c0.274,0,0.366,0.135,0.366,0.361l-0.412,2.491c0,0.227,0.091,0.362,0.32,0.362
			c0.137,0,0.321-0.045,0.458-0.227c1.969-1.992,3.938-2.988,5.082-2.988h0.778c0.274,0,0.366,0.181,0.366,0.361L192.094,12.902z"/>
		<path d="M227.212,16.636c-2.787,3.928-7.011,4.221-11.318,4.221h-4.982v9.648h-7.475V1.013h14.781
			c2.829,0,5.489,0.334,7.771,2.297c0.295,0.251,0.844,0.711,1.352,1.463c0.633,0.961,1.646,3.091,1.646,6.016
			C228.985,11.75,228.858,14.297,227.212,16.636z M220.792,8.074c-1.182-1.63-3.336-1.63-5.109-1.63h-4.771v8.94h4.519
			c1.31,0,1.858,0,2.534-0.126c2.617-0.417,3.674-2.005,3.631-4.512C221.595,9.327,221.173,8.617,220.792,8.074z"/>
		<path d="M249.975,28.626c-1.267,1.045-3.843,2.549-7.981,2.549c-1.141,0-5.617-0.209-8.657-3.135
			c-1.31-1.252-3.167-3.926-3.167-8.479c0-1.253,0.084-4.804,2.576-7.771c1.52-1.796,4.561-4.052,10.135-3.717
			c2.576,0.125,4.856,0.709,6.926,2.339c2.744,2.214,4.054,5.681,4.054,9.19C253.859,24.533,251.495,27.373,249.975,28.626z
			 M244.949,13.963c-0.591-0.418-1.479-0.835-3.21-0.835c-0.295,0-1.521,0.083-2.449,0.626c-1.182,0.669-2.576,2.548-2.576,5.765
			c0,2.131,0.719,3.719,1.141,4.387c0.507,0.752,1.773,2.131,4.223,2.131c3.59,0,5.194-2.967,5.194-6.225
			C247.271,16.511,246.216,14.841,244.949,13.963z"/>
		<path d="M262.349,20.94c0,0.208-0.042,0.71,0.085,1.295c0.507,2.548,2.323,4.136,4.94,4.136c0.381,0,1.225-0.041,2.111-0.375
			c2.196-0.752,3.168-2.967,3.463-3.51l4.899,2.506c-0.887,1.295-1.352,1.881-1.858,2.465c-3.252,3.551-7.475,3.844-9.121,3.844
			c-0.676,0-2.238-0.041-3.971-0.584c-4.898-1.504-7.179-5.766-7.179-10.694c0-1.337,0.085-5.389,2.829-8.522
			c1.352-1.504,3.674-3.468,8.488-3.468c1.479,0,5.871,0.168,8.615,3.969c2.492,3.385,2.407,7.896,2.449,8.94L262.349,20.94
			L262.349,20.94z M268.979,13.044c-0.887-0.418-1.605-0.418-1.985-0.418c-2.575,0-3.759,1.88-4.097,2.632
			c-0.168,0.376-0.338,0.835-0.506,1.671h8.994C271.302,16.219,271.175,14.005,268.979,13.044z"/>
		<path d="M288.236,13.169v9.775c0,0.878-0.041,1.38,0.17,1.755c0.38,0.711,1.393,0.711,1.52,0.711c0.76,0,1.521-0.041,2.281-0.041
			v4.971c-0.423,0.084-1.943,0.334-3.421,0.334c-0.465,0-0.929,0-1.352-0.041c-0.591-0.043-2.534,0-4.012-1.338
			c-1.689-1.461-1.604-3.676-1.604-5.683V13.128h-3.21V9.201h3.21V2.392h6.418v6.851h4.309v3.927L288.236,13.169L288.236,13.169z"/>
		<path d="M295.163,5.984V1.013h6.461v4.971H295.163z M295.163,30.505V8.7h6.461v21.807h-6.461V30.505z"/>
		<path d="M324.344,27.457c-2.914,3.385-6.672,3.76-8.276,3.76c-0.972,0-2.913-0.125-5.151-1.211
			c-4.139-2.006-5.786-5.891-5.786-10.234c0-1.003,0.043-3.091,1.098-5.515c2.492-5.723,7.939-6.182,9.968-6.182
			c1.73,0,5.616,0.334,8.571,4.01c0.254,0.334,0.424,0.585,0.847,1.254l-4.814,2.715c-0.043-0.125-0.381-0.794-0.719-1.254
			c-0.38-0.459-1.604-1.796-3.589-1.796c-0.464,0-1.395,0.042-2.364,0.752c-2.239,1.671-2.323,5.39-2.323,5.807
			c0,1.88,0.634,4.305,2.111,5.516c0.423,0.334,1.352,1.045,2.787,1.045c2.112-0.043,3.252-1.422,3.632-1.965
			c0.211-0.334,0.381-0.584,0.634-1.296l4.898,2.509C325.399,26.08,324.893,26.83,324.344,27.457z"/>
		<path d="M363.999,26.539c-1.352,1.504-5.066,4.846-10.896,4.846c-1.057,0-3.506-0.125-6.081-1.254
			c-7.854-3.508-8.235-12.072-8.235-14.412c0-1.797,0.211-6.434,3.632-10.527c1.353-1.672,4.73-5.098,10.812-5.098
			c4.012,0,7.896,1.63,10.514,4.596c1.1,1.254,1.772,2.549,2.07,3.05l-5.869,2.882c-0.424-0.835-0.72-1.294-0.974-1.629
			c-0.549-0.793-2.364-2.84-5.403-2.84c-0.847,0-2.83,0.166-4.521,1.754c-1.225,1.128-2.83,3.593-2.83,7.645
			c0,0.377,0,1.086,0.127,2.006c0.509,4.053,2.281,5.891,3.929,6.811c0.549,0.334,1.688,0.834,3.295,0.834
			c4.18,0,5.785-3.217,6.461-4.344l5.912,2.967C365.056,25.16,364.421,26.037,363.999,26.539z"/>
		<path d="M387.101,28.626c-1.268,1.045-3.844,2.549-7.981,2.549c-1.139,0-5.615-0.209-8.656-3.135
			c-1.309-1.252-3.168-3.926-3.168-8.479c0-1.253,0.086-4.804,2.576-7.771c1.521-1.796,4.561-4.052,10.135-3.717
			c2.576,0.125,4.857,0.709,6.926,2.339c2.746,2.214,4.056,5.681,4.056,9.19C390.985,24.533,388.62,27.373,387.101,28.626z
			 M382.075,13.963c-0.592-0.418-1.479-0.835-3.209-0.835c-0.297,0-1.521,0.083-2.449,0.626c-1.184,0.669-2.576,2.548-2.576,5.765
			c0,2.131,0.717,3.719,1.142,4.387c0.506,0.752,1.772,2.131,4.223,2.131c3.59,0,5.193-2.967,5.193-6.225
			C384.397,16.511,383.343,14.841,382.075,13.963z"/>
		<path d="M419.999,30.505V19.06c0-2.256,0-3.551-0.592-4.471c-0.506-0.835-1.521-1.252-2.449-1.252
			c-0.549,0-2.068,0.125-2.871,1.545c-0.508,0.877-0.465,1.797-0.465,3.76v11.863h-6.461V17.556c0-2.089-0.297-3.008-1.269-3.635
			c-0.549-0.376-1.225-0.543-1.899-0.543c-0.295,0-1.14,0-1.857,0.543c-1.352,1.003-1.395,2.715-1.395,4.136v12.448h-6.418V8.7
			h6.418l0.043,2.256c0.381-0.46,0.633-0.752,1.098-1.128c0.846-0.668,2.449-1.713,5.109-1.713c0.508,0,2.787,0.042,4.393,1.045
			c0.676,0.417,1.226,0.96,1.773,1.504c0.803-0.669,1.098-0.878,1.562-1.17c0.761-0.46,2.576-1.379,4.984-1.379
			c0.76,0,3.842,0.042,5.658,2.381c1.055,1.295,1.098,2.674,1.098,5.807v14.205h-6.46V30.505z"/>
		<path d="M450.743,26.998c-1.226,1.838-2.744,2.799-3.463,3.133c-0.718,0.334-2.025,0.795-4.097,0.795
			c-2.321,0-3.504-0.67-5.405-1.84v8.982h-6.586V8.7h5.784l0.041,2.13c0.339-0.417,0.466-0.626,0.931-0.96
			c0.803-0.669,2.532-1.671,5.235-1.671c1.269,0,4.224,0.209,6.632,2.757c2.237,2.339,2.954,5.556,2.954,8.605
			C452.729,23.279,451.546,25.744,450.743,26.998z M445.001,14.13c-0.508-0.585-1.184-1.045-1.943-1.254
			c-0.422-0.125-0.76-0.125-0.928-0.125c-2.408,0-4.646,2.173-4.646,6.894c0,0.459-0.084,3.091,1.141,4.888
			c0.338,0.459,0.76,0.877,1.268,1.17c0.296,0.209,1.056,0.584,2.068,0.584c2.238,0,3.125-1.586,3.506-2.256
			c0.506-0.918,1.056-2.214,1.056-4.553C446.521,18.851,446.604,16.01,445.001,14.13z"/>
		<path d="M469.198,30.505v-2.047c-0.463,0.502-0.718,0.752-0.972,0.961c-0.803,0.627-2.743,1.713-5.446,1.713
			c-0.506,0-2.955,0-4.688-1.336c-2.449-1.922-2.238-5.432-2.238-8.104V8.7h6.546v13.577c0,1.379,0.043,2.424,1.225,3.133
			c0.381,0.209,0.93,0.502,1.902,0.502c2.067,0,3.166-1.17,3.461-1.963c0.211-0.545,0.254-1.088,0.254-1.672V8.7h6.461v21.807
			h-6.504V30.505z"/>
		<path d="M487.907,13.169v9.775c0,0.878-0.041,1.38,0.17,1.755c0.379,0.711,1.393,0.711,1.52,0.711
			c0.761,0,1.521-0.041,2.281-0.041v4.971c-0.424,0.084-1.942,0.334-3.422,0.334c-0.463,0-0.928,0-1.35-0.041
			c-0.593-0.043-2.535,0-4.015-1.338c-1.688-1.461-1.604-3.676-1.604-5.683V13.128h-3.211V9.201h3.211V2.392h6.418v6.851h4.309
			v3.927L487.907,13.169L487.907,13.169z"/>
		<path d="M507.757,30.505v-1.963c-0.465,0.334-0.887,0.627-1.352,0.92c-0.804,0.543-2.66,1.629-5.406,1.629
			c-3.969,0-5.785-2.131-6.504-3.594c-0.463-0.918-0.717-2.004-0.717-3.049c0-3.928,3.547-5.808,4.518-6.226
			c1.648-0.71,4.646-1.295,8.826-2.047v-1.211c0-0.752-0.127-2.633-2.49-2.633c-1.899,0-2.787,0.878-3.125,1.588
			c-0.086,0.167-0.213,0.502-0.297,0.961h-6.502c0.084-0.877,0.125-2.757,1.772-4.387c1.814-1.754,4.224-2.088,4.982-2.213
			c1.268-0.168,2.322-0.168,2.83-0.168c3.082,0,7.262,0.711,8.74,3.844c0.254,0.584,0.465,1.17,0.465,2.423v12.741
			c0,1.881,0.084,2.59,0.633,3.385H507.757L507.757,30.505z M502.942,21.441c-0.255,0.084-0.509,0.168-0.761,0.293
			c-1.604,0.668-2.026,1.588-2.026,2.424c0,0.125,0.041,0.584,0.252,1.002c0.254,0.418,0.887,1.211,2.237,1.211
			c1.185,0,2.197-0.668,2.492-0.877c1.9-1.336,1.984-3.384,1.984-5.432L502.942,21.441z"/>
		<path d="M525.788,13.169v9.775c0,0.878-0.041,1.38,0.17,1.755c0.381,0.711,1.396,0.711,1.521,0.711c0.76,0,1.521-0.041,2.28-0.041
			v4.971c-0.422,0.084-1.942,0.334-3.42,0.334c-0.465,0-0.93,0-1.352-0.041c-0.592-0.043-2.535,0-4.013-1.338
			c-1.688-1.461-1.604-3.676-1.604-5.683V13.128h-3.209V9.201h3.209V2.392h6.418v6.851h4.309v3.927L525.788,13.169L525.788,13.169z"
			/>
		<path d="M532.716,5.984V1.013h6.461v4.971H532.716z M532.716,30.505V8.7h6.461v21.807h-6.461V30.505z"/>
		<path d="M562.446,28.626c-1.269,1.045-3.845,2.549-7.982,2.549c-1.141,0-5.617-0.209-8.656-3.135
			c-1.311-1.252-3.168-3.926-3.168-8.479c0-1.253,0.084-4.804,2.576-7.771c1.521-1.796,4.562-4.052,10.135-3.717
			c2.576,0.125,4.855,0.709,6.927,2.339c2.744,2.214,4.055,5.681,4.055,9.19C566.331,24.533,563.966,27.373,562.446,28.626z
			 M557.419,13.963c-0.59-0.418-1.477-0.835-3.209-0.835c-0.295,0-1.52,0.083-2.449,0.626c-1.182,0.669-2.575,2.548-2.575,5.765
			c0,2.131,0.719,3.719,1.141,4.387c0.506,0.752,1.772,2.131,4.223,2.131c3.59,0,5.195-2.967,5.195-6.225
			C559.743,16.511,558.688,14.841,557.419,13.963z"/>
		<path d="M582.929,30.505V18.183c0-1.463-0.043-2.549-0.254-3.133c-0.295-0.753-1.098-1.756-2.957-1.756
			c-0.295,0-1.393,0-2.194,0.669c-1.099,0.835-1.226,2.173-1.226,4.763v11.779h-6.504V8.742h6.588v1.879
			c0.213-0.208,0.465-0.543,1.015-0.96c0.803-0.585,2.575-1.504,5.194-1.504c0.506,0,2.363,0.042,3.926,0.877
			c2.703,1.421,2.914,3.886,2.914,6.56v14.914h-6.502V30.505z"/>
	</g>
</g>
</svg>
