<svg id="레이어_1" data-name="레이어 1" xmlns="http://www.w3.org/2000/svg" xmlns:xlink="http://www.w3.org/1999/xlink" viewBox="0 0 25.51 25.51"><defs><style>.cls-1,.cls-3{fill:none;}.cls-2{clip-path:url(#clip-path);}.cls-3{stroke:#fff;stroke-width:0.5px;}.cls-4{fill:#fff;}</style><clipPath id="clip-path" transform="translate(0)"><rect class="cls-1" width="25.51" height="25.51"/></clipPath></defs><title>icon-information</title><g class="cls-2"><path class="cls-3" d="M12.76,25.26A12.51,12.51,0,1,0,.25,12.76,12.52,12.52,0,0,0,12.76,25.26Z" transform="translate(0)"/><path class="cls-4" d="M13.85,10.14a2.68,2.68,0,0,0-1.4.56,10.73,10.73,0,0,0-1.75,1.54q-.92,1-.92,1.16a.44.44,0,0,0,.1.28.32.32,0,0,0,.26.13,2.92,2.92,0,0,0,.6-.61q1.3-1.5,1.71-1.51c.15,0,.22.08.22.24a3.16,3.16,0,0,1-.41,1.23l-2.62,5.3a4.64,4.64,0,0,0-.53,1.76q0,1.06,1.15,1.06a2.65,2.65,0,0,0,1.38-.56,11.13,11.13,0,0,0,1.76-1.54A4.33,4.33,0,0,0,14.33,18a.43.43,0,0,0-.11-.27.35.35,0,0,0-.27-.14q-.1,0-.67.69Q12,19.72,11.64,19.72c-.13,0-.19-.1-.19-.29a3.15,3.15,0,0,1,.41-1.18l2.62-5.32A4.21,4.21,0,0,0,15,11.15q0-1-1.13-1M16,4.66a1.29,1.29,0,0,0-1-.4,1.32,1.32,0,0,0-1,.4,1.33,1.33,0,0,0-.4,1,1.3,1.3,0,0,0,.4,1,1.33,1.33,0,0,0,1,.4A1.36,1.36,0,0,0,16.4,5.62a1.33,1.33,0,0,0-.4-1" transform="translate(0)"/></g></svg>