<svg id="Layer_1" data-name="Layer 1" xmlns="http://www.w3.org/2000/svg" viewBox="0 0 442.7 97.78"><title>school</title><path d="M140,272.45c-1.3-2.5-2.69-3.56-4.66-3.56a3.08,3.08,0,0,0-3.22,3.08c0,5.85,14.36,5.09,14.36,15.07,0,6.58-4.32,10.46-10.76,10.46a11.67,11.67,0,0,1-11.56-9.4l5-3.17c1,3.6,3,6.81,6.67,6.81,2.59,0,4.37-1.29,4.37-4.36,0-5.57-14.07-4.47-14.07-15.13a9,9,0,0,1,9.17-9.12,10.2,10.2,0,0,1,9.7,6.1Z" transform="translate(-124.17 -263.13)"/><path d="M173.8,290.59c-1.83,4.56-5.62,6.91-11,6.91-7.87,0-11.8-5.66-11.8-12.48s3.93-12.48,11.8-12.48c5.38,0,9.17,2.36,11,6.92l-5.33,2.16c-1.25-2.55-3-4-5.67-4-3.74,0-5.56,3.12-5.56,7.39s1.82,7.4,5.56,7.4c2.69,0,4.42-1.44,5.67-4Z" transform="translate(-124.17 -263.13)"/><path d="M184.55,263.13v13.69a8.89,8.89,0,0,1,7.68-4.28c4.56,0,7.54,2.36,7.54,7.3v17.28h-6V282c0-2.93-1.15-4.32-3.6-4.32-2.73,0-5.66,2.74-5.66,9.27v10.22h-6v-34Z" transform="translate(-124.17 -263.13)"/><path d="M217.81,272.54c7.78,0,12.29,5.48,12.29,12.48s-4.51,12.48-12.29,12.48S205.52,292,205.52,285,210,272.54,217.81,272.54Zm0,19.88c3.84,0,6.05-3.41,6.05-7.4s-2.21-7.39-6.05-7.39-6.05,3.41-6.05,7.39S214,292.42,217.81,292.42Z" transform="translate(-124.17 -263.13)"/><path d="M246.85,272.54c7.78,0,12.29,5.48,12.29,12.48s-4.51,12.48-12.29,12.48S234.56,292,234.56,285,239.07,272.54,246.85,272.54Zm0,19.88c3.84,0,6.05-3.41,6.05-7.4s-2.21-7.39-6.05-7.39-6,3.41-6,7.39S243,292.42,246.85,292.42Z" transform="translate(-124.17 -263.13)"/><path d="M270.71,263.13v34h-6v-34Z" transform="translate(-124.17 -263.13)"/><path d="M287.79,272.93h3.08v-1.25c0-5.91,3.36-8.55,8.35-8.55a9.78,9.78,0,0,1,4.51,1l-1.3,4.8a7,7,0,0,0-2.88-.67c-1.68,0-2.73.87-2.73,3v1.68h5.09V278h-5.09v19.1h-5.95V278h-3.08Z" transform="translate(-124.17 -263.13)"/><path d="M317.46,272.54c7.78,0,12.29,5.48,12.29,12.48s-4.51,12.48-12.29,12.48S305.17,292,305.17,285,309.68,272.54,317.46,272.54Zm0,19.88c3.84,0,6.05-3.41,6.05-7.4s-2.21-7.39-6.05-7.39-6,3.41-6,7.39S313.62,292.42,317.46,292.42Z" transform="translate(-124.17 -263.13)"/><path d="M335,297.12V272.93h5.95v3.93a8.44,8.44,0,0,1,7.15-4.32A9.77,9.77,0,0,1,351,273l-1.1,5.52a4.63,4.63,0,0,0-2.5-.67c-3.46,0-6.48,2.83-6.48,10.66v8.59Z" transform="translate(-124.17 -263.13)"/><path d="M133.05,338v13.15h-6.24v-33.6h12.67c7.1,0,10.51,4.37,10.51,10.22S146.58,338,139.48,338Zm10.6-10.23c0-3.07-1.68-4.46-4.41-4.46h-6.19v8.93h6.19C142,332.21,143.65,330.82,143.65,327.74Z" transform="translate(-124.17 -263.13)"/><path d="M165.45,326.54c7.77,0,12.28,5.48,12.28,12.48s-4.51,12.48-12.28,12.48S153.16,346,153.16,339,157.67,326.54,165.45,326.54Zm0,19.88c3.84,0,6-3.41,6-7.4s-2.2-7.39-6-7.39-6,3.41-6,7.39S161.61,346.42,165.45,346.42Z" transform="translate(-124.17 -263.13)"/><path d="M205.09,340.94H188.44a5.55,5.55,0,0,0,5.71,5.48c2.74,0,4.42-1.25,5.86-3.75l4.8,1.78c-1.88,4.27-5.14,7.05-11,7.05-8.3,0-11.61-6.76-11.61-12.48s3.31-12.48,11.61-12.48c8.07,0,11.28,6.68,11.28,12Zm-16.51-4.7H199c-.53-2.4-2-4.61-5.19-4.61A5.35,5.35,0,0,0,188.58,336.24Z" transform="translate(-124.17 -263.13)"/><path d="M224.92,350.64a9.07,9.07,0,0,1-3.94.86c-5.47,0-8.88-2.92-8.88-8.92V332h-3.74v-5.09h3.74v-6.05l6-3.75v9.8h6.39V332h-6.39v10.46c0,3,1.15,3.94,3.17,3.94a4.55,4.55,0,0,0,2.3-.58Z" transform="translate(-124.17 -263.13)"/><path d="M232.55,316.13a3.84,3.84,0,1,1-3.84,3.84A3.76,3.76,0,0,1,232.55,316.13Zm3,10.8v24.19h-6V326.93Z" transform="translate(-124.17 -263.13)"/><path d="M264.08,344.59c-1.82,4.56-5.61,6.91-11,6.91-7.87,0-11.81-5.66-11.81-12.48s3.94-12.48,11.81-12.48c5.38,0,9.17,2.36,11,6.92l-5.32,2.16c-1.25-2.55-3-4-5.67-4-3.74,0-5.57,3.12-5.57,7.39s1.83,7.4,5.57,7.4c2.69,0,4.42-1.44,5.67-4Z" transform="translate(-124.17 -263.13)"/><path d="M304.07,328.75c-1.3-3.41-3.65-5.86-8.31-5.86-5.18,0-9.55,3.65-9.55,11.43s4.37,11.42,9.55,11.42c4.66,0,7-2.44,8.31-5.85l5.61,1.44c-1.58,6.43-6.62,10.17-13.92,10.17-8.4,0-15.89-5.95-15.89-17.18s7.49-17.19,15.89-17.19c7.3,0,12.34,3.75,13.92,10.18Z" transform="translate(-124.17 -263.13)"/><path d="M326.19,326.54c7.78,0,12.29,5.48,12.29,12.48S334,351.5,326.19,351.5,313.9,346,313.9,339,318.42,326.54,326.19,326.54Zm0,19.88c3.84,0,6.05-3.41,6.05-7.4s-2.21-7.39-6.05-7.39-6,3.41-6,7.39S322.35,346.42,326.19,346.42Z" transform="translate(-124.17 -263.13)"/><path d="M358.35,351.12V335c0-2.45-1.2-3.36-3-3.36-2.93,0-5.23,3.41-5.23,10.61v8.88h-6V326.93h6v3.89c1.77-2.69,3.84-4.28,7-4.28a6.68,6.68,0,0,1,6.76,5c1.73-3.12,4.42-5,7.4-5,4.51,0,7.2,2.79,7.2,7.44v17.14h-6V335c0-2.45-1.2-3.36-3-3.36-2.88,0-5.23,3.27-5.23,10.08v9.41Z" transform="translate(-124.17 -263.13)"/><path d="M397.14,351.5a7.9,7.9,0,0,1-5.86-2.59v12h-5.95v-34h5.95v2.49a6.89,6.89,0,0,1,5.86-2.88c7.3,0,11,5,11,12.48S404.44,351.5,397.14,351.5Zm-.82-19.87c-3.12,0-5.57,2.59-5.57,7.39s2.45,7.4,5.57,7.4,5.62-2.6,5.62-7.4S399.44,331.63,396.32,331.63Z" transform="translate(-124.17 -263.13)"/><path d="M428.48,351.12v-3.89A9.13,9.13,0,0,1,421,351.5c-4.32,0-7.44-2.44-7.44-7.29V326.93h6v15.5c0,2.88,1.44,4,3.45,4,2.88,0,5.52-3.46,5.52-9.84v-9.65h6v24.19Z" transform="translate(-124.17 -263.13)"/><path d="M455.6,350.64a9,9,0,0,1-3.93.86c-5.48,0-8.88-2.92-8.88-8.92V332H439v-5.09h3.75v-6.05l5.95-3.75v9.8h6.38V332h-6.38v10.46c0,3,1.15,3.94,3.17,3.94a4.6,4.6,0,0,0,2.3-.58Z" transform="translate(-124.17 -263.13)"/><path d="M460,333.26c.77-4,4.27-6.72,9.21-6.72,5.76,0,10.18,2.4,10.18,10.13v14.45h-4.9l-.62-3.07a9,9,0,0,1-7.44,3.45c-4.13,0-7.35-2.54-7.35-7.34s4.23-7.92,10.33-7.92h4v-1.06c0-2.68-2-3.55-4.23-3.55a4,4,0,0,0-4.17,2.79Zm7.82,13.16c2.74,0,5.62-1.88,5.62-5v-.48h-4c-2.54,0-4.12,1-4.12,3.12A2.33,2.33,0,0,0,467.84,346.42Z" transform="translate(-124.17 -263.13)"/><path d="M499.67,350.64a9.07,9.07,0,0,1-3.94.86c-5.47,0-8.88-2.92-8.88-8.92V332H483.1v-5.09h3.75v-6.05l5.95-3.75v9.8h6.39V332H492.8v10.46c0,3,1.15,3.94,3.17,3.94a4.55,4.55,0,0,0,2.3-.58Z" transform="translate(-124.17 -263.13)"/><path d="M507.3,316.13a3.84,3.84,0,1,1-3.84,3.84A3.77,3.77,0,0,1,507.3,316.13Zm3,10.8v24.19h-5.95V326.93Z" transform="translate(-124.17 -263.13)"/><path d="M528.32,326.54c7.78,0,12.29,5.48,12.29,12.48s-4.51,12.48-12.29,12.48S516,346,516,339,520.54,326.54,528.32,326.54Zm0,19.88c3.84,0,6-3.41,6-7.4s-2.21-7.39-6-7.39-6.05,3.41-6.05,7.39S524.48,346.42,528.32,346.42Z" transform="translate(-124.17 -263.13)"/><path d="M551.94,326.93v3.89a9.12,9.12,0,0,1,7.48-4.28c4.33,0,7.45,2.45,7.45,7.3v17.28h-6v-15.5c0-2.88-1.44-4-3.45-4-2.88,0-5.52,3.46-5.52,9.84v9.65h-6V326.93Z" transform="translate(-124.17 -263.13)"/></svg>