<svg id="Layer_1" data-name="Layer 1" xmlns="http://www.w3.org/2000/svg" viewBox="0 0 627.26 668.97"><title>fireworks1</title><path d="M472.75,277.71l14.6,1.68c-8.53-3.08-54.93-6.43-61.25-4.61.49,1.29,1.71.77,2.23,1-.06.59-.35,1.29-.13,1.57a54.58,54.58,0,0,0,5.92,6.91c1.1,1,3.07,1.1,4.69,1.41,6.37,1.23,12.82,2.14,19.15,3.59,19.85,4.54,38.51,12.26,56.69,21.31,30.15,15,54.81,36.67,76.08,62.44,21.09,25.55,37.18,54,49.06,84.92a23.61,23.61,0,0,0,2,3.35v.63a18.32,18.32,0,0,0-2.22,1.66,17.83,17.83,0,0,0-1.67,2.48,12,12,0,0,1-1.39-2.14c-5.28-15.43-12.66-29.91-20.08-44.36a264.18,264.18,0,0,0-26.46-40.83,249.5,249.5,0,0,0-59-55.15A213.1,213.1,0,0,0,496,304.93a41.17,41.17,0,0,1-4.49-2.6l-.06.05,12.69,5.15a223.83,223.83,0,0,0-68.54-21.77c1.3,2.58,2.17,4.46,3.16,6.27,6.4,11.56,10.65,24,13.82,36.7,2,8.13,3.58,16.38,5.25,24.6a10,10,0,0,0,2.81,5.43,417.07,417.07,0,0,1,37.58,42.34c22.3,29.29,40,61,51,96.28a267.34,267.34,0,0,1,11.24,55.07c.37,4,.73,7.92,1.09,11.83l-4.45,3c-.29-.62-.78-1.2-.78-1.78-.08-19.25-4.5-37.88-8.55-56.51-2.63-12.08-7.14-23.69-11.9-35.13a331.9,331.9,0,0,0-57.83-92.44c-4.92-5.59-10-11-15.12-16.46-2.71-2.9-3-2.89-6.79-1.18a12.69,12.69,0,0,1-1.29.37c-.25-1.13-.53-2.18-.72-3.24-.42-2.35-.24-4.87-2.09-6.77.12-3.6-2.93-5-5.06-6.82-9.85-8.48-19.86-16.79-29.81-25.16a3.47,3.47,0,0,1-1.23-1.49,20,20,0,0,1,1.78,1.07,360.87,360.87,0,0,1,31.09,25.6c.87.8,1.86,1.49,2.79,2.23l.58-.39c-.58-3.27-1-6.57-1.77-9.8-2.76-12.29-5.82-24.5-10.33-36.27a100.72,100.72,0,0,0-5.85-11.83,44.45,44.45,0,0,0-4.1-5.87c-.42-.54-1.85-1-1.83-1.06.93-2.06-1.08-2.79-1.89-3.87a20,20,0,0,0-7-6.08,3.66,3.66,0,0,1-1.52-2.26l2.58,1.16c-8.06-7-17.59-9.19-27.95-8.62,10.23-2.49,20.71,1.11,28,6.48a12.69,12.69,0,0,0,8.44,2.46,342,342,0,0,1,93.15,10.7c22.19,5.68,43.21,14.23,62.39,27a155.14,155.14,0,0,1,52.35,57.61c.73,1.39,1.48,2.76,2.31,4.3-.59.68-1.23,1.35-1.78,2.08s-.86,1.34-1.46,2.3a7.18,7.18,0,0,1-1.26-1.58,62.31,62.31,0,0,0-8.91-16.21c-5.61-7.59-11.09-15.32-17.31-22.4A129.09,129.09,0,0,0,592.68,323c-16.29-13.24-34.71-22.66-54.37-29.85a236.28,236.28,0,0,0-46.18-12c-5.9-.88-11.81-1.73-17.71-2.64a6.75,6.75,0,0,1-1.63-.74Zm-12.76,82-.47.44c1.92,2.85,7.29,8.1,9.52,8.88Zm13.73,14.68-.37.36,2.22,1.78.1-.1Z" transform="translate(-14.49 -15.05)"/><path d="M220.3,328.89c-.63.6-1.27,1.18-1.89,1.78s-1.06,1.07-1.6,1.61a2,2,0,0,0-2.37,1.66l2.31-1.73c1.13-.51,2.32-.95,3.4-1.55a590,590,0,0,1,64.56-31.2,6,6,0,0,1,3-.6c-1.38.66-2.76,1.34-4.15,2-17.88,8.07-35.94,15.76-53,25.53-12.64,7.25-25,15-37.52,22.46a6.68,6.68,0,0,0-3.52,5.18c-.79,5.71-1.79,11.4-2.71,17.09-.12.72-.31,1.43-.49,2.29l-4.83,1.53c-.16-6.68,1.83-12.79,2.69-19.62-1.3.74-2.13,1.13-2.86,1.64-24.82,17.5-47.48,37.37-66.8,60.9C96.37,440,82.24,464.3,74,491.86a158.93,158.93,0,0,0-6.36,32.78l-4.75,2.46c-.93-1.26-.46-2.76-.28-4.09.8-5.71,1.61-11.42,2.66-17.09,2.48-13.39,7.2-26,12.75-38.44a227.63,227.63,0,0,1,37.22-57.35c9.42-10.75,20-20.32,30.74-29.77A376.41,376.41,0,0,1,183.36,351a7.25,7.25,0,0,0,3.17-4.79c3.19-14.56,6.81-29,12.67-42.77,2.83-6.66,6.14-13.1,9.23-19.64.44-.94.89-1.86,1.49-3.12a9,9,0,0,0-2.27-.13c-27.44,6.12-53,16.46-75.69,33.41a168.34,168.34,0,0,0-49.08,58.22C71.17,394.78,63.93,418.76,60.22,444L55,446.12c.32-3.19.29-6.13,1-8.9,2.24-9.05,4.48-18.12,7.21-27,3.37-11,6.93-22,11.77-32.51a182.39,182.39,0,0,1,22.51-36.29c10.76-13.72,24.15-24.46,38.3-34.32A168.75,168.75,0,0,1,174.6,286.5c11.36-4.12,23.11-6.9,34.9-9.48a7.86,7.86,0,0,0,5.27-3.46,89.46,89.46,0,0,1,26.47-25.7c3.52-2.18,7.13-4.23,11.09-6.57-1.27-.36-2.3-.72-3.37-.94a130.3,130.3,0,0,0-36.3-2.65c-32.7,2.54-56.57,18.55-71.57,47.75-.43.84-.84,1.68-1.27,2.52a3.11,3.11,0,0,1-.29.35l-4.63-.56a14.55,14.55,0,0,1,.84-3.2c1.57-3,3-6.08,5-8.69,5.25-6.67,10.58-13.31,16.32-19.56,5.52-6,12.58-10.06,19.84-13.72,9.43-4.76,19.5-7,29.93-7.87,9.75-.85,19.51-1.29,29.22,0,5.8.78,11.52,2.16,17.27,3.33,1.81.36,3.57.92,5.36,1.38l.27-.71c-1-.41-2-.87-3-1.22-14.32-5.13-28.93-9.31-43.64-13.15a408.35,408.35,0,0,0-49.94-9.91A263.32,263.32,0,0,0,121,211.89c-16.75.45-33.24,2.52-49,8.67C58.14,226,46.26,234.12,37.34,246.24c-.92,1.25-1.78,2.56-2.6,3.75l-5.42-.27a19.64,19.64,0,0,1,.92-2.14A68.41,68.41,0,0,1,44.64,231a79.43,79.43,0,0,1,20.85-12.78,127.56,127.56,0,0,1,42.06-10,156.63,156.63,0,0,1,20.42-.58c11.41.68,22.8,1.82,34.14,3.21a306.07,306.07,0,0,1,40.52,7.5c12.17,3.18,24.2,6.87,36.29,10.34l-.15.61-11-3-.13.45c.74.29,1.47.62,2.22.88q15,5.13,30.08,10.26a11.1,11.1,0,0,0,4.56.36c7.57-.51,15.17-2,22.73.17a70.83,70.83,0,0,0-15.33.25,93.91,93.91,0,0,1,44.52,12.07l-.2.63c-1.42-.57-2.84-1.12-4.24-1.72-7.34-3.1-14.65-6.28-22.49-7.94-4.93-1-9.87-1.84-14.94-.72-1.13.25-2.41-.14-3.71.1,2.74,2,6,2.73,9,3.93s6.09,2.27,9.13,3.43,6.17,2.42,9.74,3.82c-3.47.37-6.06-.57-8.7-1.58-7-2.66-14-5.17-21-7.68a11.89,11.89,0,0,0-4.23-.7c14,5,27.75,10.41,40.65,17.82-1.51-.64-3-1.25-4.52-1.93-11.86-5.34-23.75-10.56-36.3-14.15a15.11,15.11,0,0,0-9.47.27c-12.59,4.23-22.34,12.24-30.57,22.35-2,2.41-4.07,4.74-5.5,8.08a39.22,39.22,0,0,0,8.56-.91l-.05,0c-1.66.48-3.31,1-5,1.43-1.38.35-2.79.56-4.19.84l.11.67c7-.79,13.93-1.75,20.92-2.3,7.2-.56,14.44-.85,21.67-1s14.26,0,21.38,0l0,.7c-1.89.15-3.78.39-5.68.42-8,.09-15.94,0-23.91.17a225,225,0,0,0-33.75,3.41,6.44,6.44,0,0,0-5,3.68,185.79,185.79,0,0,0-11.56,24.77,270.44,270.44,0,0,0-10.46,34.91c-.25,1.08-.39,2.18-.71,4,1.54-.87,2.43-1.34,3.29-1.85q11.24-6.64,22.48-13.28c1-.58,2.07-1,3.11-1.48Zm-9.56-50.42-.18-.77-7.3,1.69.12.58Zm43.93-35.85-.11-.39a5.93,5.93,0,0,0-1.11.24,2.53,2.53,0,0,0-.63.52l.24.28Z" transform="translate(-14.49 -15.05)"/><path d="M399.64,202.62l-.69,2.49a18.82,18.82,0,0,0,2.59-.14c5.52-1.18,10.21.65,14.22,4.22a83.9,83.9,0,0,1,6.33,7c.41.45.8.93,1.38,1.63,1.1-.77,2.12-1.45,3.11-2.17,20.6-15.24,41.75-29.63,64.12-42.17,15.13-8.49,30.78-15.82,47.4-20.92,10.79-3.3,21.79-5.51,33.12-5.21,18.1.47,33.1,7.44,44.37,21.85-.77,1.46-1.49,2.81-2.26,4.28-1.7-.25-2.31-1.72-3.21-2.77A56.07,56.07,0,0,0,596.65,159c-8.5-5.14-17.88-7.17-27.69-7-10.45.13-20.62,2.22-30.65,5.08-16.55,4.72-31.85,12.38-47.1,20.12-13.12,6.66-25.43,14.68-37.54,23-2.5,1.71-5.23,3.07-7.85,4.59l1.32-1.48c-.93.11-2,.23-1.3,1.4-.67.1-1.49,0-2,.33-6.32,4.5-12.59,9.06-18.87,13.62-.16.11-.24.33-.54.78l5.69,11.23c1.44-.65,2.67-1.16,3.87-1.73,16.48-7.84,33.13-15.3,50.31-21.49s34.49-11.22,52.51-13.87c15.12-2.23,30.26-2.9,45.39.06a76.81,76.81,0,0,1,36.9,17.92c.39.34.81.65,1.38,1.1-.29.73-.63,1.46-.86,2.22s-.38,1.59-.68,2.88a21.79,21.79,0,0,1-2.38-1.64,74,74,0,0,0-36.74-18.17,116.77,116.77,0,0,0-29.46-1.44c-29.43,2-57.18,10.6-84.4,21.34-4.19,1.65-8.38,3.27-12.57,4.9l12.7-6.1c.67-.33,1.31-.71,2-1.06a1.84,1.84,0,0,0-1.61,0q-10.18,4.56-20.36,9.16a6.54,6.54,0,0,0-1.39,1.16,10.28,10.28,0,0,0-2.09.5c-3.32,1.55-6.62,3.16-9.92,4.77a7,7,0,0,0-1.1.8l.27.55,1.83-.56-1.95,1.6c.13.27.27.53.41.8,1-.34,2.06-.61,3-1a234,234,0,0,1,38-12c18.48-4,37-4.64,55.46.21a90.89,90.89,0,0,1,40.79,23.27c.3.29.55.62.85,1-.75,1.31-1.47,2.57-2.2,3.83,0,.07-.19.07-.51.19a5.58,5.58,0,0,1-1.34-.91c-3.68-4.26-8.34-7.31-12.82-10.6-11.69-8.61-25-13.27-39.14-15.31a123.9,123.9,0,0,0-31.38,0c-11.2,1.26-22,4.34-32.82,7.43.44-.23.86-.48,1.31-.67s1.22-.36,1.77-.65c.88-.46,1.71-1,2.57-1.52l3.58-.36-.15-.77-3.38,1.18c-3,.85-6.08,1.55-9,2.58-4.73,1.65-9.37,3.52-14.21,5.36,3.29,10.25,6.47,20.15,9.69,30.2l-4.51,2.46c-3.51-10.14-5.5-20.43-10-30.37l-8,3.6-.27-.52,7.4-4-1.16-2.37L401,246.87c7.82-5.35,16.28-9.62,24.88-14.13-1.65-3.86-3-7.44-5.64-10.78l-13.75,10.25.08.06a13.75,13.75,0,0,1,1.82-2.35c3.13-2.64,6.34-5.18,9.51-7.77.56-.45,1.07-1,1.75-1.58a10.27,10.27,0,0,0-1.08-2.23c-2.21-2.65-4.41-5.33-6.8-7.81a8.44,8.44,0,0,0-6.63-2.38,21.53,21.53,0,0,0-11.28,4.15c-4.13,2.81-6.31,6.86-8.91,10.73a11,11,0,0,1-2.25,2.72l1.84-4.09-2.2-.82c-6.44,7.2-11.25,15.54-16.81,23.42,1.42-2.6,2.8-5.24,4.28-7.81a109.35,109.35,0,0,1,21.31-26.29,18.18,18.18,0,0,0,2.75-3.41q16.17-23.82,32.29-47.67c.57-.84,1.06-1.73,1.56-2.54-3.39-3.32-8.16-3.58-12.17-.57a50.63,50.63,0,0,0-6.51,5.91,118.41,118.41,0,0,0-13.45,18.19,359.89,359.89,0,0,0-18.26,33.39,6.64,6.64,0,0,1-1.76,2.43l1.71-4.24c-2.93,3.88-4.78,8.32-6.87,12.62s-4.19,8.87-6.28,13.3l-.59-.24c1-2.47,1.89-5,3-7.39,7.95-17.23,15.68-34.58,25.28-51,3.65-6.23,7.85-12.15,12-18.07,2.66-3.81,6.28-6.75,10-9.47s8-2.8,12.31-1.42c1.58.51,3.09,1.26,5,2,.85-1,1.82-2.06,2.69-3.18,10.66-13.8,21.88-27.1,34.73-38.94A119,119,0,0,1,491,93.35c7.61-4.25,15.69-7,24.5-7.14,6.22-.09,10.91,1.09,17,4.1-.16,1.57-.32,3.17-.51,5a16.28,16.28,0,0,1-2.22-.75c-9.42-5-19-4.2-28.62-.75-8,2.87-14.9,7.66-21.57,12.78-11.78,9.06-22.07,19.66-31.78,30.86-4,4.6-7.82,9.33-11.7,14-.73.88-1.38,1.83-2.11,2.81l2.82,4.76-3.72,3.07c-.64-.6-1.64-1.56-2.89-2.76-.86,1-1.64,1.83-2.28,2.73q-8.7,12.16-17.36,24.34c-1.22,1.7-2.47,3.38-3.7,5.06.34-.92.68-1.83,1-2.75l-.55-.3c-1.25,1.87-2.49,3.75-3.73,5.62s-2.7,4-4,6c-1.13,1.87-2.73,3.51-3.29,5.68l.63.44Z" transform="translate(-14.49 -15.05)"/><path d="M284.84,352.87a18.07,18.07,0,0,0,2.27-2A283.37,283.37,0,0,1,309.74,326c1.58-1.53,3.12-3,3.73-5.32.18-.66,1.1-1.13,1.68-1.68l-.07-.09.64,1.61L318,317l.17,0c0-.31-.08-.7.07-.91q3.4-4.5,6.88-9c.17-.22.43-.37,1-.29l-4.39,7.61.3.39,4.09-3,.35.42c-1.81,1.65-3.57,3.36-5.43,5a23.23,23.23,0,0,0-5.75,7.36c-8.23,16.14-14,33.17-18.48,50.68A454.13,454.13,0,0,0,287,425.51c-.11.81-.13,1.63-.19,2.46l1.41.15-.06-.07V429c2.87-3.9,4.75-8.33,6.94-12.58s4.44-8.8,6.66-13.21,4.43-8.8,6.68-13.19,4.42-8.57,6.63-12.85,4.52-8.77,6.8-13.13,4.57-8.73,6.89-13.08a128.72,128.72,0,0,1,7.42-12.6c-1.57,3.17-3.08,6.36-4.72,9.49-11.66,22.31-23.67,44.43-34.34,67.25-3.64,7.79-7.35,15.55-10.81,23.42a26.78,26.78,0,0,0-2.06,7.84q-3.16,29.25-4.33,58.66c-.22,5.66,0,11.33,0,17l-4.86,2c-1.12-2.75-.56-17.55.83-32.53,1-10.8,1.57-21.63,1.93-32.6a23.63,23.63,0,0,0-1.29,2.36c-16,37.91-31,76.14-41.16,116.11a464.49,464.49,0,0,0-12.09,65.83c-1.21,11.47-1.7,23-2.49,34.52a24.67,24.67,0,0,0,.13,2.83L216.19,684a18.77,18.77,0,0,1-.45-2.78c0-6-.25-12,.23-17.91A524,524,0,0,1,223.88,607,475.66,475.66,0,0,1,237,556.11c10.82-35,24.47-69,39-102.6a77.18,77.18,0,0,0,3.17-7.54,62.14,62.14,0,0,0,2-9.16c4-26.8,9.27-53.31,17.73-79.1.36-1.09.76-2.17,1.2-3.43l.92,1.1,12.28-30.2-.28-.28c-3.91,3.77-8,7.38-11.69,11.35a285.24,285.24,0,0,0-38.44,52.81c-17.65,30.66-30.07,63.42-39.13,97.52A430.27,430.27,0,0,0,214,533.05a2.57,2.57,0,0,1-.3.6l-4.51,1.42c-.78-1.26-.37-2.59-.1-3.87,2-9.44,3.84-18.9,6-28.3A419.6,419.6,0,0,1,229.27,453c11.79-32.65,27.23-63.39,47.76-91.47,2.72-3.72,5.5-7.41,8.27-11.1a11,11,0,0,1,1.22-1.06l-1.61,3.57-1.84,2.55L281.15,358c-.75.42-1.63.75-1.19,2.4l1.11-2.48,1.93-2.47C283.61,354.57,284.23,353.72,284.84,352.87Z" transform="translate(-14.49 -15.05)"/><path d="M277.72,189.87c-.2.33-.63.87-.56.94,1,1.07,2.09,2.05,3.14,3.08q17.19,16.86,34.37,33.74a8.09,8.09,0,0,1,1.83,2.66c-2.25-.46-3.32-2.35-4.88-3.59a48.79,48.79,0,0,0-4.66-3.59c8,8.46,16.19,16.75,23.17,26.14-1.15-1.16-2.36-2.26-3.43-3.49-7-8-14.18-15.76-22.62-22.27-8.1-6.26-16.64-11.7-26.62-14.53-6-1.7-12.14-2.55-18.31-.93a31.2,31.2,0,0,0-6.93,3c15.51,8.12,30.8,16.3,45.34,25.91-1.24-.65-2.49-1.3-3.72-2-13.49-7.24-27-14.43-40.44-21.78-2.73-1.49-4.86-1.35-7,.79-3.1,3.09-6.22,6.17-9.64,9.56L233,222c1.9-6,7.3-8.47,11.77-12.44-1.48-.81-2.67-1.56-3.94-2.13A431,431,0,0,0,183,186,260.16,260.16,0,0,0,136.14,177a192.31,192.31,0,0,0-26.71-1c-25.5,1.16-49.18,7.92-70,23.28a96.58,96.58,0,0,0-19.38,19l-5.59-.73a17.73,17.73,0,0,1,1.26-2.12,110.33,110.33,0,0,1,33.79-28.31c16.75-9,34.63-13.55,53.51-15.06,15.42-1.24,30.58.3,45.72,2.88,18.75,3.2,37.34,7.2,55.14,14,13.62,5.18,26.86,11.32,40.27,17-1.38-.43-2.77-.81-4.12-1.3-2.52-.93-5-1.92-7.52-2.88l-4.35-1.95-3.13-1.27-2.36-1-.12.63,2.56.26a2.39,2.39,0,0,0,3.14,1.26c1,1.73,2.54,2.08,4.33,2,.33.37.58.88,1,1.07q5.5,2.55,11,5a8.82,8.82,0,0,0,2,.18l-2-1.85a5.49,5.49,0,0,0,6.14,0c4.68-2.64,9.92-3.28,15.22-3.24a38.13,38.13,0,0,1,14.95,3.2c7.55,3.24,14.86,6.85,21.48,11.75a1.27,1.27,0,0,0,1.2.25,26.89,26.89,0,0,0-1.7-2.13c-17.77-18.42-37.19-34.84-59.19-48-12.94-7.76-26.63-13.93-41.49-16.77-18-3.44-34.88-.58-49.64,11-2.94,2.31-5.39,5.25-8,7.93-.65.65-1.2,1.41-1.79,2.11l-4.82-1.57a21.17,21.17,0,0,1,1.37-2.12c14.1-17,32.21-24.49,54.18-22.87a83.65,83.65,0,0,1,29.35,7.65,288.93,288.93,0,0,1,28.88,15.34c9.36,5.7,17.62,12.82,25.93,19.89a6.72,6.72,0,0,1,1,1.51Zm-3.7-2.54c.38.93.57,1.4.77,1.86l.59-.59Z" transform="translate(-14.49 -15.05)"/><path d="M446.24,400.77c-6-9.32-11.8-18.84-18.2-27.9-9.26-13.11-19-25.89-28.51-38.8a5.57,5.57,0,0,1-1.29-2.63c.73.89,1.48,1.77,2.21,2.66C422,360.49,441,388.65,458.63,417.74a664.51,664.51,0,0,1,47.26,92.69,444.92,444.92,0,0,1,27.23,94.4,370,370,0,0,1,4.7,40c.11,1.87.35,3.74.52,5.48L534,653.73c-1.38-.55-.94-1.84-1-2.9-.22-5-.12-10.08-.7-15.07-1.21-10.41-2.7-20.79-4.21-31.16-3.86-26.48-11.33-52-20.3-77.17-7.34-20.58-16.24-40.5-25.7-60.17a625.39,625.39,0,0,0-32.58-58.9c-.87-1.41-1.54-2.94-2.31-4.42l-.08.05h1.46l-2.08-2.92Z" transform="translate(-14.49 -15.05)"/><path d="M342.17,235.27l-2.17-6-.44.15q3,12.31,6,24.65l-.52.23c-.34-.95-.73-1.88-1-2.85-2.32-8.16-4.4-16.39-7-24.46a129.32,129.32,0,0,0-11.93-26.64c-2.27-3.83-4.93-7.32-8.71-9.79-1.77-1.16-3.65-2.07-6.07-1.31l.26,2.65-1.18-2c-.35.67-.54.88-.49,1,1.05,2.16,2.13,4.32,3.22,6.46q7.25,14.15,14.48,28.28a10.29,10.29,0,0,1,1.06,2.92c-7.25-12-12.9-24.92-20.37-37.51l-2.59,4-4.12-1.45c.18-2.17,1.51-3.6,2.64-5a3.46,3.46,0,0,0,.36-4.5c-13.6-23.55-28-46.58-45.29-67.63A150.34,150.34,0,0,0,237,94.66,62.09,62.09,0,0,0,230.3,90C226,87.3,223.18,86.52,218,86.22l-2.47-3.89a3.3,3.3,0,0,1,3.33-1.26,35.81,35.81,0,0,1,7.62,1.58c6,2.32,11.22,6.12,16,10.39a192.23,192.23,0,0,1,31.62,37c11.39,17,22.38,34.25,31.91,52.39.76,1.44,1.48,2.3,3.37,2,4.7-.82,8.63.87,12,4.11a51.94,51.94,0,0,1,11.12,16.62c1.32,3,2.32,6.07,3.4,9.14,1.9,5.44,3.78,10.89,5.6,16.35.49,1.48.74,3,1.1,4.55Zm-37.25-53-.51.37,1.17,1.58.35-.27Z" transform="translate(-14.49 -15.05)"/><path d="M372.32,334.53c2.7,5.67,5.6,11.25,8.07,17a610.16,610.16,0,0,1,28.84,83.78q9.06,34.05,14.91,68.81,4.55,26.82,7.25,53.9c1.13,11.26,1.88,22.56,2.8,33.87l-4.54,3a14,14,0,0,1-.62-2.31c-.34-4.6-.61-9.21-.93-13.81-1.38-19.87-3.25-39.68-6.17-59.4s-6-39.17-10.17-58.55a647.77,647.77,0,0,0-18.9-69.12,3.55,3.55,0,0,1-.18-2.21q1.62,4.41,3.22,8.82a213.11,213.11,0,0,0-10.66-32.17c-4.28-10.56-8.83-21-13.26-31.5Z" transform="translate(-14.49 -15.05)"/><path d="M263.08,340.43a24.06,24.06,0,0,0,2.62-1.64A524.72,524.72,0,0,1,310,306.65a55.71,55.71,0,0,1,7.84-4.56c-1.51,1.19-2.94,2.5-4.54,3.55a517,517,0,0,0-78.38,62.44C216.64,385.94,199.74,405,185,425.85a327.27,327.27,0,0,0-37.57,69.22c-.45,1.16-.88,2.33-1.31,3.46l-5.33.6a33,33,0,0,1,1.24-4.3c3.55-8.05,6.93-16.19,10.83-24.08a326.51,326.51,0,0,1,30.66-50.5,425.8,425.8,0,0,1,37-42.81A434.74,434.74,0,0,1,259.28,342a22.47,22.47,0,0,1,2.63-1.6l-.06-.08-2.4,3.26-2.95,1.62.55.73c.78-.81,1.56-1.61,2.33-2.42l3.82-3.2ZM252.37,349l.58.62c.44-.66.88-1.32,1.33-2l-.15-.15Z" transform="translate(-14.49 -15.05)"/><path d="M355.36,574.46l-4.52,2.6a28,28,0,0,1-.72-3.42c-.71-9.2-1.41-18.4-2-27.6s-1.37-18.41-1.68-27.62c-.48-14.15-.86-28.3-.85-42.46,0-15.52.37-31,.85-46.55.33-10.47,1.12-20.93,1.77-31.38a50.23,50.23,0,0,1,.95-6.52q-.42,8-.83,16.08l.33.11a22.34,22.34,0,0,0,.6-2.64c1.14-12,2.14-24,3.39-36,1.13-10.73,2.53-21.43,3.84-32.14a11.92,11.92,0,0,1,.94-3.3c-3,26.67-6,53.32-7.08,80.16s-1.3,53.47-.41,80.21S352.54,547.61,355.36,574.46Z" transform="translate(-14.49 -15.05)"/><path d="M340.41,173c-.68-2.58-1.44-5.16-2-7.77a90.92,90.92,0,0,0-2.54-10L346,219.84l-.77.14c-.6-3.48-1.29-6.94-1.79-10.43a841.27,841.27,0,0,0-18.25-92.81C320,96.85,314,77.21,305.62,58.36a126.42,126.42,0,0,0-12.73-23.11,72.94,72.94,0,0,0-8.67-9.91,17.55,17.55,0,0,0-12.94-5.11l-2.78-4.12a5.7,5.7,0,0,1,4.18-1,21.1,21.1,0,0,1,12.74,4.78,62,62,0,0,1,14.47,17.28A191.37,191.37,0,0,1,317.28,75.8a631.83,631.83,0,0,1,20.6,83c.86,4.74,1.69,9.47,2.54,14.21Z" transform="translate(-14.49 -15.05)"/><path d="M486.34,247.22h17.42c-20.51-1.78-40.76.23-61,3.92a9,9,0,0,1,1-.49,12.17,12.17,0,0,1,1.23-.25c21-5,42.35-5.73,63.81-5a148.08,148.08,0,0,1,66.74,18.3A131.84,131.84,0,0,1,625.82,312l1.91,3.13c-.51.58-1.08,1.16-1.58,1.79s-.91,1.32-1.46,2.12c-.51-.37-1-.52-1.12-.83-4.68-9.16-11.57-16.7-18-24.55-11.38-13.81-25.7-23.8-41.68-31.34a152.38,152.38,0,0,0-44.27-12.84,233.3,233.3,0,0,0-31.7-1.83h-1.54Z" transform="translate(-14.49 -15.05)"/><path d="M357.2,196.54l1.23-29.09-.57,0c-1.39,19.92-2.78,39.84-4.11,59,0-4.63-.19-10,0-15.45.37-8.38,1.06-16.74,1.57-25.11.77-12.45,1.49-24.91,2.25-37.36.47-7.74.95-15.49,1.51-23.23.75-10.35,1.59-20.69,2.41-31,.66-8.47,1.3-16.94,2-25.4,1.28-15.21,4.13-30.08,9.64-44.38.18-.48.44-.93.75-1.58l4.24,1.5c.09.4.24.65.17.79-4.25,7.76-6.18,16.27-7.43,24.89-1.72,11.82-3.05,23.7-4.44,35.57-1,8.53-2,17.08-2.69,25.64-1,11.28-1.64,22.59-2.49,33.88-.88,11.82-1.83,23.63-2.73,35.44-.41,5.33-.78,10.65-1.16,16Z" transform="translate(-14.49 -15.05)"/><path d="M418.08,123l-2.9,3.94c-.71-.55-1.36-1-1.94-1.53-1.24-1.12-2.35-2.41-3.67-3.42-3.7-2.83-7-2.87-10.55.22a26.91,26.91,0,0,0-5,6c-5.61,9.05-9.37,19-12.87,29-4.77,13.67-8.66,27.61-12.21,41.64a5.9,5.9,0,0,1-1,2.34c.38-2.15.77-4.3,1.15-6.45-3.69,11-6.05,22.31-9.43,33.38.64-3.38,1.17-6.79,1.94-10.15,4.62-20,9.12-40,15.2-59.66,2.24-7.2,4.78-14.32,7.6-21.31a97.94,97.94,0,0,1,6.56-12.5,24.53,24.53,0,0,1,4.41-5.3c5.48-5.16,12-5.39,17.92-.71C415,119.82,416.45,121.45,418.08,123Z" transform="translate(-14.49 -15.05)"/><path d="M262.85,428.12a10.14,10.14,0,0,1,.47-2.38,82.48,82.48,0,0,1,5.87-10.65q-3.21,6.46-6.41,13Z" transform="translate(-14.49 -15.05)"/><path d="M323.61,238.88l-6-6.62.67-.6,6,6.61Z" transform="translate(-14.49 -15.05)"/><path d="M460.1,421.56l.27.29.61,2.93.09,0-4.31-5.86Z" transform="translate(-14.49 -15.05)"/><path d="M448.55,276.37h7.18v.1h-7.48Z" transform="translate(-14.49 -15.05)"/><path d="M482.81,248.16h-6.44v-.1h6.45Z" transform="translate(-14.49 -15.05)"/><path d="M395.2,509.57,394,501.41h0a12.69,12.69,0,0,1,1.23,8.17Z" transform="translate(-14.49 -15.05)"/><path d="M440.83,228.62l3.8-2.91,2.28,0Z" transform="translate(-14.49 -15.05)"/><path d="M447.75,225.48c1.51-1.8,3.61-2.44,5.78-2.92Z" transform="translate(-14.49 -15.05)"/><path d="M465.61,277.68l-5.55-.69.05-.33,5.49,1Z" transform="translate(-14.49 -15.05)"/><path d="M437.47,275.87h-3.92v-.05h3.92Z" transform="translate(-14.49 -15.05)"/><path d="M356.79,205.64v-3.47h.06v3.26A.87.87,0,0,1,356.79,205.64Z" transform="translate(-14.49 -15.05)"/><path d="M246.32,340.4l3.67-3.22-.07-.07-2.43,3.32.12-.12h-1.35Z" transform="translate(-14.49 -15.05)"/><path d="M254.19,272.08h-3.13V272h3.13Z" transform="translate(-14.49 -15.05)"/><path d="M220.37,329l3.46-2.28c-.86,1.3-1.9,2.31-3.53,2.22Z" transform="translate(-14.49 -15.05)"/><path d="M226.83,325.2l2.54-1.49.27.47-2.58,1.43Z" transform="translate(-14.49 -15.05)"/><path d="M472.79,277.7l-7.17,0h0l7.14,0Z" transform="translate(-14.49 -15.05)"/><path d="M277.64,189.94l3.38,2-.45.62-2.85-2.69Z" transform="translate(-14.49 -15.05)"/><path d="M292.79,317l-.17,0-2.93,1.91.07.09C290.61,316.61,290.68,316.56,292.79,317Z" transform="translate(-14.49 -15.05)"/><path d="M469.05,249.34l3.61-1,.09.36-3.72.66Z" transform="translate(-14.49 -15.05)"/><path d="M327.14,386.7v-2.19h.12v2.19Z" transform="translate(-14.49 -15.05)"/><path d="M250,337.18l2-2.31.55.6a3.4,3.4,0,0,1-2.58,1.64Z" transform="translate(-14.49 -15.05)"/><path d="M329.12,365.19v2.06H329v-2.12Z" transform="translate(-14.49 -15.05)"/><path d="M227.65,273.93l3.31-.19v.36l-3.34-.19S227.65,273.93,227.65,273.93Z" transform="translate(-14.49 -15.05)"/><path d="M234.58,273.24H236v.1l-1.39.08Z" transform="translate(-14.49 -15.05)"/><path d="M469,249.34l-3.33.17v-.17H469Z" transform="translate(-14.49 -15.05)"/><path d="M327.88,378.1v1.73h-.12V378.1Z" transform="translate(-14.49 -15.05)"/><path d="M329.57,361v-1.53h.14v1.64Z" transform="translate(-14.49 -15.05)"/><path d="M330.39,353.8v1.53l-.13,0V353.8Z" transform="translate(-14.49 -15.05)"/><path d="M277.27,348.1c-.25.91-.51,1.82-.77,2.73l-.61-.26,1.44-2.4Z" transform="translate(-14.49 -15.05)"/><path d="M330.81,349.88l.08-1.15s.11,0,.11.06v1.09Z" transform="translate(-14.49 -15.05)"/><path d="M262.32,347.67c.25-.35.5-.71.76-1.06l.33.19-.56,1.12Z" transform="translate(-14.49 -15.05)"/><path d="M277.33,348.17l.26-2.31.51.12c-.28.7-.56,1.4-.83,2.11A.55.55,0,0,0,277.33,348.17Z" transform="translate(-14.49 -15.05)"/><path d="M340.42,173l.6,3.8v0c-1.11-1.12-.72-2.47-.6-3.79Z" transform="translate(-14.49 -15.05)"/><path d="M328.51,371.83v1.23h-.13v-1.23Z" transform="translate(-14.49 -15.05)"/><path d="M266.62,343.09c-.26.35-.51.7-.77,1l-.35-.26.8-1Z" transform="translate(-14.49 -15.05)"/><path d="M341,176.82l.21,2.71H341v-2.73Z" transform="translate(-14.49 -15.05)"/><path d="M254.24,333.23l1.08-.67.28.27-.84.91Z" transform="translate(-14.49 -15.05)"/><path d="M400.6,394.26l-.29-1.33.78,1.13Z" transform="translate(-14.49 -15.05)"/><path d="M283.52,194.46l1,.86a2.94,2.94,0,0,1-.74-.1C283.66,195.17,283.65,194.9,283.52,194.46Z" transform="translate(-14.49 -15.05)"/><path d="M491.54,302.33a2.35,2.35,0,0,1-3-1.33l0,0c1,.45,2,.91,3,1.35Z" transform="translate(-14.49 -15.05)"/><path d="M488.52,301H486l0-.59c.81.21,1.62.43,2.45.63Z" transform="translate(-14.49 -15.05)"/><path d="M302.94,298.69l1-.64a3.69,3.69,0,0,1-.16.89c0,.1-.34.09-.53.13Z" transform="translate(-14.49 -15.05)"/><path d="M394,496.65l-1-1.93.31-.15.7,2.09Z" transform="translate(-14.49 -15.05)"/><path d="M394,496.66c0,1.58,0,3.17,0,4.75h0c0-1.58,0-3.17,0-4.76Z" transform="translate(-14.49 -15.05)"/><path d="M406.44,232.21l-1.51,1-.12-.29,1.7-.64Z" transform="translate(-14.49 -15.05)"/></svg>