<?xml version="1.0" encoding="utf-8"?>
<!-- Generator: Adobe Illustrator 24.0.1, SVG Export Plug-In . SVG Version: 6.00 Build 0)  -->
<svg version="1.1" id="Layer_1" xmlns="http://www.w3.org/2000/svg" xmlns:xlink="http://www.w3.org/1999/xlink" x="0px" y="0px"
	 viewBox="0 0 752.46 663.37" style="enable-background:new 0 0 752.46 663.37;" xml:space="preserve">
<path d="M411.24,487.63c-0.54-0.23-1.07-0.52-1.54-0.96c-1.94-1.82-3.08-4.48-4.07-6.9c-2.18-5.29-4.33-10.32-7.46-15.17
	c-2.08-3.22-4.71-7.09-7.94-9.79c-0.37,0.15-0.74,0.29-1.1,0.44c-0.8-0.89-1.6-1.79-2.4-2.68c-0.26-0.12-0.51-0.27-0.78-0.37
	c-1.45-0.54-2.13-1.75-2.22-2.98c-4.9-5.47-9.85-10.99-14.98-16.71c-1.62,2.71-2.96,5.7-4.95,8.16c-3.72,4.59-3.74,9.76-1.55,14.46
	c1.38,2.96,4.65,6.32,7.6,6.93c3.66,0.75,3.22-3.94,4.07-6.56c0.06-0.17,0.04-0.42,0.15-0.52c1.27-1.13,2.43-2.84,3.88-3.16
	c1.06-0.23,2.81,1.16,3.73,2.26c2.65,3.2,5.03,6.61,7.51,9.95c4.78,6.41,10.07,12.52,14.14,19.36c2.63,4.41,3.59,9.85,5.09,14.89
	c0.03,0.11,0.06,0.21,0.09,0.32c1.58,0.43,3.1,1.1,4.49,2.02c0.17-1.15,0.36-2.3,0.53-3.45
	C412.67,494.01,411.87,490.84,411.24,487.63z"/>
<path d="M606.27,510.85c-6.83-4.79-13.84-9.34-20.91-13.76c-6.73-4.21-13.66-8.1-20.44-12.22c-10.03-6.09-19.99-12.28-30-18.4
	c-6.78-4.14-13.46-8.44-20.43-12.24c-7.04-3.84-11.53-10.63-19.1-14.29c-10.09-4.87-19.22-11.74-30.27-14.75
	c-4.56-1.24-9.24-2.17-13.66-3.78c-1.72-0.63-3.55-2.58-4.07-4.3c-0.3-0.99,1.76-2.92,3.06-4.1c1.19-1.08,2.69-1.96,4.21-2.53
	c2.85-1.07,5.96-1.72,7.6,1.78c1.35,2.87,3.61,3.05,6.25,3.43c3.17,0.45,7.75,0.54,9.09,2.54c5.66,8.46,14.45,7.54,22.54,8.86
	c0.91,0.15,2-0.85,3-1.31c-0.02-0.4-0.04-0.8-0.06-1.2c-3.84-1.12-7.85-1.86-11.47-3.46c-3.7-1.64-7.04-4.12-10.68-6.32
	c1.32-6.62,1.26-6.53-5.29-10.67c-2.42-1.53-4.65-3.44-6.71-5.44c-2.13-2.05-4.7-3.29-6.65-0.9c-2.95,3.62-6.94,3.67-10.79,4.54
	c-4.24,0.96-8.46,2.09-12.74,2.85c-1.99,0.35-5.18,0.79-5.91-0.21c-1.13-1.55-1.25-4.47-0.7-6.5c1.37-5.03,0.86-6.37-4.34-7.6
	c-4.81-1.14-9.64-2.18-14.43-3.36c-2.55-0.63-4.48-1.6-5.22-4.77c-2.03-8.69,3.95-15.11,5.92-22.65c0.65-2.48,2.32-4.89,4.07-6.85
	c2.49-2.79,5.44-5.17,8.25-7.65c7.35-6.5,14.65-13.08,22.19-19.36c1.47-1.22,4.44-2.21,5.81-1.51c1.33,0.68,2.02,3.66,2,5.62
	c-0.01,1.83-0.85,4.15-2.15,5.38c-4.57,4.33-9.57,8.21-14.26,12.43c-1.9,1.71-3.41,3.86-5.1,5.81c0.29,0.63,0.58,1.27,0.87,1.9
	c1.84-0.2,4.22,0.27,5.43-0.71c5.74-4.66,10.94-10,16.77-14.54c5.01-3.89,4.69-10.04,7.37-14.87c0.57-1.02,0.33-3.41-0.47-4.1
	c-4.86-4.21-9.95-8.16-15.07-12.05c-0.49-0.38-1.77,0.11-2.62,0.39c-8.28,2.73-16.55,5.5-24.82,8.27c-2.56,0.86-5.31,1.41-7.62,2.72
	c-1.63,0.93-2.65,2.91-3.95,4.42c1.86,0.76,3.66,1.75,5.59,2.17c0.87,0.19,1.96-0.83,2.99-1.21c3.06-1.13,6.19-2.09,9.19-3.37
	c1.77-0.75,3.67-1.68,4.93-3.06c2.15-2.35,4.62-2.86,6.58-0.8c0.68,0.72-0.4,4.18-1.64,5.46c-3.41,3.54-7.22,6.72-11.08,9.77
	c-1.9,1.51-4.3,3.48-6.42,3.42c-6.15-0.17-10.17,2.93-13.81,7.16c5.21,4.3,5.63,7.61,2.09,14.03c-1.22,2.21-2.47,4.59-2.83,7.02
	c-0.44,3.03-1.92,4.34-4.59,5.37c-2.09,0.8-4.01,2.28-5.73,3.77c-2.55,2.2-4.7,4.9-7.34,6.97c-2.43,1.91-2.87,3.43-0.62,5.76
	c6.92,7.15,13.74,14.4,20.6,21.61c6.43,6.75,6.43,6.75,0.51,14.43c-0.19,0.25-0.14,0.69-0.12,0.58c2.18,3.23,5.18,5.93,5.97,9.17
	c2.22,9.09,6.84,17.54,6.86,27.28c0.06-0.03,0.12-0.07,0.18-0.09c1.78-0.78,3.61-1.36,5.44-1.73c-0.26-3.93-0.39-7.89-1.42-11.68
	c-0.28-1.03,0.59-3.06,1.49-3.51c0.84-0.42,2.73,0.31,3.63,1.12c11.64,10.49,22.56,21.63,31.27,34.77c0.58,0.87,2.35,1.85,3.01,1.55
	c1.08-0.49,2.55-2.2,2.35-3.02c-0.57-2.32-1.58-4.68-3.01-6.6c-2.86-3.86-7.93-6.31-7.89-12.24c0.92-0.07,1.63-0.36,1.97-0.12
	c5.5,3.84,11.11,7.55,16.39,11.68c8.62,6.72,17.02,13.72,25.53,20.58c1.8,1.45,3.79,2.57,5.81,0.38c2.14-2.32,0.53-4-1.21-5.52
	c-5.33-4.68-10.81-9.21-15.96-14.08c-1.35-1.28-2.5-3.59-2.44-5.39c0.15-4.66-1.54-7.69-5.18-10.71
	c-5.77-4.78-12.58-8.88-14.64-17.09c-0.31-1.24-2.76-1.99-4.27-2.88c-1.31-0.77-2.7-1.41-4.06-2.11c0.2-0.66,0.39-1.32,0.59-1.98
	c3.79,0.63,7.86,0.58,11.31,2.02c10.16,4.24,17.28,12.88,26.1,19.12c4.09,2.89,7.45,6.42,12.99,5.86c1.18-0.12,2.56,0.38,3.63,0.98
	c8.27,4.65,16.6,9.24,24.7,14.18c6.59,4.02,12.84,8.6,19.34,12.78c11.66,7.5,23.43,14.84,35.08,22.36c2.87,1.85,5.9,3.8,8.02,6.38
	c2.15,2.61,4.03,3.84,6.79,1.63C610.86,514.8,608.42,512.36,606.27,510.85z M433.67,415.23c-0.26,0.51-0.53,1.02-0.79,1.53
	c-3.91-2.42-7.83-4.85-11.96-7.41C425.61,406.76,425.61,406.76,433.67,415.23z M459.14,450.29c-1.59,1.71-3.79,4.55-6.94,1.91
	c-8.88-7.45-17.77-14.9-26.61-22.4c-1.1-0.93-2.14-2.04-2.89-3.26c-1.62-2.61-1.65-5.09,1.46-7.42
	c11.34,8.21,22.64,16.37,33.91,24.56C460.56,445.5,461.05,448.24,459.14,450.29z"/>
<path d="M433.28,511.46c-3.51-25.58-7.19-51.12-11.05-76.62c-0.7-4.62-2.47-8.93-3.67-13.43c-3.52,1.91-7.06,3.76-10.61,5.55
	c0.23,1.24,0.49,2.48,0.69,3.73c0.72,4.53,1.15,9.15,1.5,13.78c1.87,5.35,2.78,10.99,4.21,16.5c0.97,3.72,2.35,7.33,3.29,11.06
	c0.33,1.3,0.6,2.6,0.84,3.92c3.67,10.64,4.04,22.58,4.88,33.58c0.28,3.72-5.74,4.48-6.47,0.88c-1.57-7.68-4.15-15.1-5.66-22.77
	c-0.54-0.23-1.07-0.52-1.54-0.96c-1.94-1.82-3.08-4.48-4.07-6.9c-2.18-5.29-4.33-10.32-7.46-15.17c-1.34-2.07-2.91-4.42-4.72-6.56
	c3.43,12.26,7.23,24.34,11,36.42c3.62,11.61,6.93,23.5,11.51,34.43c1.81,4.31,7.03,9.26,10.07,8.62c2.88-0.6,5.65-7.76,7.12-12.73
	C434.29,520.9,433.88,515.81,433.28,511.46z"/>
<path d="M355.78,510.35c0.31-3.42,0.54-5.8,0.74-8.19c0.82-9.8,1.41-19.63,2.64-29.38c0.25-2,2.52-4.68,4.43-5.32
	c3.25-1.08,3.87,2.25,4.84,4.62c2.28,5.55,4.89,10.97,7.02,16.58c1.57,4.14,3.05,8.49-0.36,13.13c-3.64-6.28-2.94-15.04-11.48-18.97
	c-0.47,1.89-1.14,3.65-1.33,5.46c-0.65,6.36-1.16,12.74-1.69,19.12c-0.54,6.54-1.18,13.08-1.52,19.64
	c-0.15,2.95-0.51,6.18-3.68,6.36c-1.7,0.1-3.94-2.49-5.26-4.35c-1.22-1.71-1.93-4.02-2.2-6.14c-1.89-14.9-7.04-29.39-5.57-44.74
	c0.19-1.93-1.07-4-1.97-7.09c-3.03,5.8-5.07,10.21-7.61,14.31c-0.9,1.45-3.5,3.32-4.48,2.92c-1.6-0.66-3.07-2.85-3.57-4.68
	c-1.01-3.68-1.06-7.62-2-11.32c-0.94-3.67-2.61-3.9-5.17-0.98c-3.05,3.47-6.15,6.61-11.05,7.54c-4.11,0.78-4.26,4.48-4.68,7.79
	c-0.44,3.45-0.92,6.9-1.39,10.35c-0.78,0.03-1.56,0.07-2.35,0.1c-0.55-2.45-1.53-4.9-1.55-7.35c-0.03-4.19,0.74-8.38,0.81-12.58
	c0.04-2.31-0.66-4.63-1.19-7.93c-6.19,5.01-13.03,6.88-15.97,13.7c-2.13,4.94-4.78,9.65-7.12,14.51
	c-3.05,6.33-6.15,12.64-8.97,19.07c-2.11,4.82-3.72,9.86-5.74,14.72c-3.18,7.65-6.65,15.19-9.75,22.88
	c-2.2,5.47-3.9,11.13-5.95,16.66c-2.58,6.94-5.34,13.8-7.92,20.74c-2.45,6.59-4.78,13.24-7.13,19.87
	c-1.83,5.15-3.5,10.37-5.51,15.45c-0.52,1.32-2.05,2.24-3.11,3.34c-1.17-1.49-3.36-3.02-3.3-4.47c0.12-3.2,1.1-6.45,2.23-9.51
	c2.69-7.31,5.55-14.56,8.54-21.75c2.71-6.52,5.84-12.86,8.49-19.4c2.37-5.83,4.32-11.82,6.48-17.74c2.1-5.76,4.07-11.57,6.37-17.26
	c4.53-11.19,9.19-22.32,13.91-33.43c1.63-3.84,3.73-7.47,5.41-11.29c1.58-3.59,2.65-7.41,4.38-10.92c2.13-4.32,4.8-8.36,7.07-12.62
	c2.29-4.29,4.51-8.63,6.45-13.09c0.58-1.32,0.09-3.11,0.09-4.68c-0.45-0.38-0.9-0.75-1.35-1.13c-3.45,2.37-6.89,4.75-10.35,7.09
	c-3.73,2.52-7.27,5.44-11.28,7.37c-4.86,2.35-10.78-0.12-15.53-6.31c-2.29-2.99-4.81-2.86-7.1-1.21
	c-6.95,5.01-13.65,10.38-20.42,15.64c-2.93,2.27-4.33,5.16-4.23,9.03c0.04,1.69-1.27,4.82-2.03,4.84c-1.89,0.05-4.6-0.82-5.5-2.25
	c-0.84-1.35-0.46-4.36,0.56-5.81c3.22-4.56,6.99-8.74,10.54-13.07c6.35-7.75,12.77-15.38,15.59-25.39
	c1.95-6.92-0.58-10.51-7.69-9.34c-3.34,0.55-6.56,1.91-9.83,2.88c-2.27,0.68-4.53,1.72-6.83,1.85c-1.83,0.1-4.37-0.4-5.39-1.64
	c-0.73-0.88,0.31-3.5,0.95-5.19c1.4-3.7,3.21-7.26,4.45-11c0.24-0.71-1.28-2.78-2.2-2.93c-1.49-0.24-3.36,0.22-4.72,1.01
	c-14.26,8.27-28.87,15.89-40.72,27.86c-4.77,4.82-11.34,7.84-17.06,11.73c-5.86,3.98-11.73,7.94-17.48,12.07
	c-2.78,2-4.39,4.68-4.22,8.42c0.17,3.83-0.2,7.68-0.39,11.52c-0.19,3.71,1.04,6.53,4.92,7.45c5.12,1.2,10.24,2.56,15.43,3.23
	c4.51,0.58,9.14,0.14,13.7,0.42c2.55,0.16,5.82,0.75,5.21,4.07c-0.26,1.41-3.51,3.24-5.38,3.21c-7.48-0.1-14.97-0.64-22.42-1.44
	c-5.12-0.55-9.86-1.28-12.64,4.62c-0.57,1.2-2.56,2.03-4.05,2.43c-4.63,1.24-5.69,4.2-5.53,8.67c0.22,5.83-0.21,11.69-0.6,17.52
	c-0.09,1.44-1.09,2.81-1.68,4.22c-0.59-0.01-1.18-0.02-1.77-0.03c-0.42-2.1-1.2-4.2-1.2-6.3c0.01-6.4,0.48-12.81,0.47-19.21
	c0-7.28-2.13-9.28-9.24-10.35c-10.45-1.58-20.82-3.75-31.31-5.01c-4.38-0.53-9.08,0.13-13.43,1.15c-5.05,1.19-6.64,0.88-9.27-4.75
	c2.04-0.64,4.02-1.83,5.94-1.75c7.76,0.33,15.42-0.08,23.15,2.97c4.73,1.86,11.09,0.2,16.57-0.72c2.98-0.5,3.78-3.4,3.01-6.62
	c-2-8.35,0.19-16.24,3.44-23.82c1.48-3.46,4.21-3.51,6.92-0.62c1.62,1.73,2.99,3.78,4.84,5.2c3.89,2.99,7.12,1.47,8.12-3.34
	c1.82-8.76,3.56-17.55,5.83-26.19c1.19-4.55,3.4-8.84,5.22-13.22c1.17-2.82,3.46-3.92,6.24-2.87c3.06,1.15,2.35,3.82,1.55,6.07
	c-1.91,5.33-4.19,10.54-5.92,15.92c-0.6,1.87-0.03,4.11,0,6.18c1.9-0.23,4.2,0.14,5.64-0.8c5.48-3.59,10.61-7.72,16.02-11.44
	c8.35-5.74,16.87-11.23,25.23-16.97c6.85-4.7,13.55-9.62,20.34-14.4c5.51-3.88,11.08-7.68,16.6-11.56c1.03-0.72,2.23-1.46,2.83-2.49
	c1.76-3.02,4.33-3.55,7.5-3.25c3.46,0.33,6.69,0.5,9.15-3.18c1.9-2.85,5.92-2.32,7.83,0.72c2.35,3.73,3.36,7.7-0.26,11.95
	c-4.23-3.53-7.54-1.61-11.5,1.12c-6.35,4.38-10.67,10.4-14.89,16.48c-1.11,1.6,0.01,4.76,0.11,7.2c1.77-0.31,3.56-0.5,5.29-0.94
	c7.55-1.94,15.22-2.69,22.68-0.27c5.47,1.78,10.48,2.3,15.99,0.16c2.33-0.91,5.56-0.8,7.96,0.05c3.55,1.25,5.08,0.04,6.28-2.96
	c1.23-3.05,2.62-6.04,3.9-9.07c0.5-1.18,0.59-2.75,1.43-3.53c4.63-4.3,6.46-9.54,6.05-15.74c-0.03-0.51,0.78-1.08,1.2-1.62
	c0.49-0.01,0.99-0.03,1.48-0.04c0.24,2.27,0.34,4.57,0.76,6.8c0.25,1.3,1.02,2.5,1.55,3.75c1.07-0.53,2.12-1.1,3.21-1.58
	c1.39-0.61,3.38-2.01,4.09-1.54c1.29,0.86,2.43,2.79,2.59,4.38c1.05,9.98,1.71,19.99,2.72,29.98c0.39,3.8,1.04,7.63,2.16,11.27
	c1.44,4.68,4.05,9.03,1.77,14.27c-0.37,0.86,1.02,3.16,2.16,3.81c1.06,0.61,3.43,0.46,4.24-0.34c1.88-1.87,3.27-4.28,4.64-6.59
	c0.83-1.39,0.86-3.45,1.95-4.45c1.49-1.37,3.67-2.77,5.51-2.71c1.35,0.05,3.06,2.22,3.8,3.82c0.8,1.74,0.43,3.99,1.03,5.87
	c0.58,1.83,1.46,4.64,2.73,4.96c2.68,0.68,4.52-1.19,5.51-4.07c1.42-4.13,3.25-8.15,5.18-12.08c0.64-1.31,2.11-2.21,3.2-3.29
	c1.01,1.38,2.41,2.62,2.94,4.17c0.57,1.67,0.48,3.62,0.42,5.44c-0.42,12.2-0.45,24.43-1.54,36.57
	C345.87,502.33,349.91,505.81,355.78,510.35z M290.13,420.34c-0.49-0.21-0.98-0.42-1.47-0.64c-2.01,2.35-4.19,4.58-6,7.08
	c-2.64,3.65-4.6,7.88-7.62,11.15c-3.16,3.43-7.34,5.9-10.87,9.01c-2.37,2.1-4.36,4.02-8.1,3.38c-3.17-0.54-5.15,3.04-3.78,5.97
	c2.34,5,8.69,6.4,12.84,2.78c3.7-3.23,7.2-6.71,11.06-9.71c1.54-1.19,3.92-2.14,5.78-1.93c8.38,0.95,8.52,1.13,9.39-7.31
	c0.46-4.52,0.42-9.12,0.26-13.67C291.56,424.4,290.65,422.38,290.13,420.34z"/>
<path d="M391.18,413.24c-1.38-2.52-2.8-5.02-4.33-7.44c-2.28-3.61-5.24-6.88-8.35-9.81c-1.07-1.01-4.91-1.16-5.11-0.69
	c-0.91,2.15-1.9,4.99-1.17,6.95c1.51,4.03,4.25,7.58,6.2,11.47c0.92,1.83,1.18,3.99,1.74,6c-2.2,0.45-4.41,1.28-6.59,1.21
	c-1.46-0.05-2.99-1.22-4.29-2.15c-4.88-3.48-9.63-7.13-14.52-10.59c-3.16-2.23-5.92-2.45-9.18,0.71
	c-4.17,4.04-9.05,7.39-13.82,10.76c-4.35,3.08-9.78,3.79-14.12,1.46c-4.25-2.28-7.39-6.65-10.96-10.17
	c-0.29-0.28-0.15-1.06-0.12-1.6c0.22-3.83,0.3-7.68,0.75-11.49c0.62-5.25,3.96-8.79,9.24-9.19c5.44-0.42,11.34-1.45,16.33,0.08
	c10.68,3.27,16.81-3.91,25.35-8.78c-4.43-2.81-7.93-5.77-11.96-7.44c-10.72-4.47-18.13-11.74-21.52-23.08
	c-2.72,0.45-5.37,1.14-8.05,1.27c-4.28,0.22-7.71-1.78-8.94-5.85c-1.25-4.17-3.65-7.08-7.14-9.33c-2-1.29-4.06-2.49-6.09-3.73
	c0.5-0.79,1-1.59,1.5-2.38c1.85-0.33,3.69-0.85,5.55-0.95c2.37-0.13,4.76,0.17,7.13,0.09c3.98-0.13,6.29-1.94,7.03-6.18
	c0.46-2.65,2.16-5.08,3.79-8.69c2.63,2.41,4.66,3.69,5.87,5.52c2.42,3.62,4.36,7.56,6.55,11.34c2.49,4.31,6.37,5.5,11.17,3.68
	c1.14-0.43,2.57-0.11,3.72-0.53c1.72-0.62,4.21-1.25,4.71-2.52c0.48-1.25-0.85-3.5-1.89-4.95c-1.67-2.33-3.76-4.37-5.66-6.51
	c3.88-5.26,9.38-7.08,17.5-6.52c2.68,0.19,5.45-0.72,8.17-1.16c-0.52-3.37-2.76-5.04-5.91-5.42c-3.8-0.46-7.63-0.68-11.45-0.83
	c-4.2-0.16-8.23-2.76-8.83-6.71c-1.51-9.84-5.72-18.46-11.22-26.55c-3.47-5.1-7.02-10.15-10.71-15.1c-0.81-1.1-2.25-1.87-3.55-2.43
	c-3.62-1.58-5.48-0.5-4.98,3.41c0.42,3.36,1.41,6.92,3.16,9.76c1.67,2.69,1.42,5.02-0.7,6.03c-1.4,0.67-4.3-0.53-5.84-1.75
	c-1.76-1.4-2.71-3.8-4.1-5.69c-4.59-6.26-11.15-11.07-13.71-18.85c-0.4-1.22-1.65-2.17-2.67-3.46c-4.31,3.76-2.09,7.12-0.67,10.64
	c3.31,8.22,6.42,16.51,9.61,24.78c-0.48,0.54-0.96,1.07-1.44,1.61c-1.71-0.67-3.73-0.96-5.08-2.08c-3.38-2.78-6.36-6.04-9.7-8.88
	c-1.08-0.91-3.43-1.93-4.04-1.45c-1.17,0.93-2.04,2.89-2.08,4.45c-0.04,1.91,0.37,4.26,1.51,5.69c3.55,4.45,7.53,8.54,11.65,13.12
	c3.37-3.8,5.73-3.66,8.21-0.38c1.38,1.82,3.33,3.6,5.41,4.42c2.63,1.04,6.56,2.44,8.31,1.27c3.28-2.2,1.19-5.22-1.16-7.79
	c-2.2-2.4-3.81-5.34-0.89-9.36c2.67,3.93,4.91,7.56,7.52,10.88c1.08,1.37,2.98,2.09,4.51,3.11c0.97-1.8,2.54-3.54,2.75-5.43
	c0.25-2.27-0.67-4.67-1.04-7.01c-0.37-2.34-0.93-4.69-0.94-7.05c-0.01-1.02,1.15-2.05,1.77-3.08c0.92,0.66,2.03,1.17,2.71,2.02
	c1.35,1.67,2.37,3.6,3.69,5.29c5.32,6.8,6.93,14.22,4,22.47c-1.42,3.99-2.98,4.64-6.2,2.04c-2.88-2.33-4.92-1.67-6.9,0.98
	c-0.99,1.31-2.02,2.6-3.05,3.87c-2.43,3-5.3,2.96-8.25,0.98c-2.41-1.62-4.56-3.65-7.04-5.14c-1.29-0.77-3.04-0.75-4.59-1.09
	c0.38,1.45,0.35,3.25,1.22,4.28c3.79,4.51,7.85,8.79,12.04,13.41c-2.68,0.18-5.71,0.58-8.72,0.54c-7.5-0.1-15.09-1.25-22.46-0.41
	c-9.31,1.06-16.97-2.37-24.75-6.24c-3.39-1.69-7.59-2.69-9.97-5.32c-6.91-7.65-16.35-10.81-24.98-15.4
	c-1.78-0.94-4.27-0.54-7.4-0.85c3.21,5.97,4.99,11.2,10.51,13.65c8.32,3.7,16.7,7.29,24.84,11.37c2.95,1.48,5.86,3.79,7.72,6.47
	c1.94,2.78,3.92,3.86,7.15,3.95c6.02,0.16,12.09,0.29,18.03,1.17c7.98,1.18,15.45,8.51,16.42,15.6c-3.16,1.12-6.5,2.05-9.63,3.45
	c-8.14,3.66-15.94,4.9-23.07-2.11c-1.04-1.02-2.07-2.24-3.36-2.76c-1.46-0.59-3.21-0.49-4.83-0.69c-0.15,0.55-0.3,1.09-0.44,1.64
	c7.64,6.56,15.29,13.11,23.55,20.2c-2.17,2.54-3.99,4.67-5.8,6.81c-4.34,5.13-10.74,8.9-10.84,16.84c-0.01,1.01-1.31,2.02-2.04,3
	c-1.68,2.27-3.26,4.64-5.1,6.78c-3.72,4.32-2.9,11.43-8.92,14.4c-0.59,0.29-0.93,2.75-0.45,3.19c1.03,0.95,3.1,2.07,3.97,1.62
	c2.21-1.14,4.43-2.79,5.86-4.8c4.39-6.15,8.4-12.57,12.59-18.92c-4.72-5.38-4.49-6.87,1.73-11.26c0.87-0.62,1.49-1.59,2.29-2.32
	c2.4-2.18,4.84-4.32,7.26-6.47c0.35,0.19,0.69,0.37,1.04,0.56c-0.61,3.28-1.23,6.55-1.98,10.53c9.33-4.96,6.91,4.3,10.24,8.66
	c0.83-2.81,1.52-4.22,1.62-5.67c0.3-4.38,0.35-8.77,0.53-13.16c0.26-6.14,0.84-12.39-6.71-14.72c3.39-8.15,7-9.34,13.98-5.09
	c1.86,1.13,3.57,2.7,5.58,3.39c7.21,2.46,14.46,4.43,21.17,8.54c5.74,3.52,10.19,7.77,14.57,13.49c-1.88,0.6-3.19,1.37-4.5,1.38
	c-5.48,0.03-10.97-0.08-16.45-0.3c-5.14-0.2-9.19,1.06-13.26,4.91c-4.59,4.33-4.17,9.09-4.76,14.37c-1.03,9.2,5.05,14.97,9.01,21.81
	c3.17,5.48,9.38,4.99,14.25,7.19c6.04,2.74,11.21,0.9,15.9-2.59c2.57-1.91,4.48-4.78,6.48-7.38c2.81-3.67,5.47-4.47,8.47-2
	c5.68,2.86,11.69,5.16,17.07,8.45c4.76,1.33,9.53,2.03,14.45-0.22c3.6-1.64,5.07-4.07,5.08-7.54
	C391.97,416.95,391.65,415.09,391.18,413.24z"/>
<path d="M500.4,304.94c-2.78,1.72-4.92,3.06-7.81,4.85c7.98,3.5,12.07-1.89,17.28-4.86c-0.25-1.71-0.5-3.42-0.77-5.22
	c2.62-0.79,5.04-1.54,7.47-2.26c4.37-1.28,6.14,0,6.25,4.5c0.09,3.77,2.02,5.22,5.45,4.05c3.88-1.32,7.95-2.3,11.57-4.14
	c3.66-1.85,6.77-4.77,10.33-6.86c2.72-1.6,5.74-2.7,8.66-3.92c4.06-1.69,8.16-3.28,12.28-5.6c-5-2.65-6.42-6.15-5.71-11.16
	c1.01-7.07,0.76-7.1-7.17-9.63c3.48-3.79,6.37-7.36,9.71-10.44c2.61-2.4,4.66-0.46,5.2,2.13c0.58,2.8,0.59,5.82,0.25,8.68
	c-1.11,9.08-1.22,9.07,6.46,13.18c1.65,0.88,3.35,1.69,5.25,2.65c0-5.55-0.13-10.3,0.06-15.04c0.08-1.97,0.69-3.98,1.37-5.85
	c1.33-3.64,4.43-4.39,7.64-3.45c3.45,1.01,3.41,3.59,2.19,6.64c-0.43,1.08,0.55,2.72,0.88,4.1c1.43-0.69,3.83-1.1,4.12-2.11
	c1.02-3.56,2.21-7.48,1.64-10.99c-0.68-4.13,0.3-7.15,2.7-10.09c3.3-4.05,10.91-6.58,15.01-4.84c-0.3,0.62-0.44,1.52-0.92,1.77
	c-6.41,3.35-8.93,8.67-8.64,15.77c0.08,2.04-1.06,4.11-1.56,6.19c-0.56,2.31-1.03,4.65-1.53,6.97c0.42,0.27,0.83,0.53,1.25,0.8
	c4.74-2.05,9.46-4.14,14.22-6.15c2.65-1.12,5.35-2.12,8.04-3.12c0.84-0.31,1.91-0.23,2.61-0.71c9.89-6.78,21.02-10.83,32.12-15.05
	c5.4-2.05,10.42-5.09,15.75-7.36c5.5-2.35,11.18-4.28,16.76-6.47c2.69-1.05,5.26-2.42,7.99-3.35c1.84-0.62,3.89-1.06,5.79-0.91
	c1.17,0.09,2.58,1.24,3.19,2.31c0.27,0.48-0.96,2.28-1.89,2.88c-4.09,2.63-7.84,5.53-13.23,6.07c-4.72,0.47-9.25,3-13.81,4.77
	c-4.38,1.7-8.71,3.55-13.04,5.4c-7.49,3.2-15,6.4-22.44,9.72c-3.91,1.74-7.67,3.82-11.56,5.62c-9.22,4.27-18.42,8.59-27.73,12.66
	c-5.29,2.31-10.78,4.15-16.18,6.21c-0.85,0.33-1.79,0.53-2.54,1.02c-8.16,5.34-16.43,10.54-24.37,16.2
	c-3.16,2.25-5.5,3.05-8.69,0.29c-1.19-1.03-3.58-1.78-4.93-1.29c-4.53,1.64-8.83,3.92-13.23,5.91c-5.76,2.6-11.55,5.15-17.32,7.75
	c-1.82,0.82-3.72,1.54-5.36,2.64c-7.6,5.13-21.45,4.06-28.28-1.98c-1.31-1.16-3.82-0.85-5.48-1.77c-0.94-0.52-1.25-2.16-1.84-3.3
	c4.82-1.75,9.63-3.52,14.47-5.19C498.63,303.46,499.18,304.1,500.4,304.94z"/>
<path d="M369.71,312.15c10.34-1.18,15.54-5.97,17.74-16.59c0.2-0.99-0.38-2.47-1.12-3.2c-0.44-0.43-2.03-0.1-2.86,0.36
	c-1.24,0.68-2.26,1.77-3.46,2.75c-3.74-1.68-3.72-4.79-3.51-7.92c0.12-1.82,0.65-3.62,0.68-5.44c0.05-3.01-1.45-4.08-4.21-2.62
	c-8.2,4.35-9.01,4.06-12.34-4.68c-0.19-0.49-0.58-0.91-1.02-1.6c-3.34-0.2-5.13,1.62-6.49,4.56c-0.84,1.82-2.36,3.33-3.58,4.98
	c-0.84-0.62-2.45-1.33-2.39-1.85c0.28-2.39,0.62-4.94,1.69-7.05c1.54-3.04,3.72-5.75,6.28-9.58c-7.24-0.49-8.85-4.25-10.14-9.09
	c-1.35-5.1-2.73-10.26-8.03-13.7c-2.21-1.43-2.72-6.18-3.15-9.52c-1.27-9.77-2.17-19.58-3.07-29.39c-0.14-1.54,0.07-3.37,0.81-4.68
	c1.51-2.72,3.89-2.51,5.42,0.24c0.26,0.47,0.47,1,0.58,1.53c2.02,9.78,4,19.57,6.03,29.35c0.24,1.16,0.65,2.29,1.95,3.46
	c0.38-1.5,0.83-2.99,1.13-4.51c0.24-1.25,0.19-2.57,0.47-3.81c0.81-3.57,2.44-7.6,6.38-6.72c1.93,0.43,4.35,5.33,4.05,7.91
	c-1.11,9.53,2.42,19.47-2.5,28.72c-0.56,1.06,1.02,3.26,1.62,4.93c1.37-1.15,3.42-2.03,4-3.49c1.71-4.34,3.97-7.24,9.84-6.28
	c-1.24,5.55-2.29,10.84-3.65,16.06c-0.71,2.72-2.15,5.96,1.46,6.87c2.08,0.53,5.38-0.83,7.1-2.44c2.75-2.56,4.56-6.1,6.92-9.11
	c1.09-1.39,2.34-2.86,3.86-3.64c1.05-0.54,3.34-0.46,3.9,0.25c0.81,1.04,1.14,3.15,0.65,4.38c-2.55,6.34-5.73,12.44-8.04,18.86
	c-0.72,2-0.09,5.2,1.14,7.03c1.9,2.82,5.02,1.46,6.55-2.78c2.73-7.57,7.49-13.02,15.63-14.55c2.34-0.44,5.12-0.03,7.36,0.86
	c3.89,1.54,4.26,3.84,1.34,7.07c-5.23,5.79-8.75,11.99-6.87,20.24c0.37,1.61-0.36,3.6-0.98,5.26c-1.95,5.29-4.06,10.52-6.17,15.75
	c-0.24,0.61-0.82,1.08-1.76,2.27c-1.29-3.36-2.35-6.15-3.51-9.19c-5.91,4.96-5.91,4.96-11.56,0.56c-1.72,4.13-7.91,5.03-6.79,11.24
	c0.14,0.8-1.18,2.12-2.12,2.71c-0.35,0.22-2.14-0.86-2.32-1.58c-1.08-4.4-1.89-8.88-2.79-13.33L369.71,312.15z"/>
<path d="M309.82,579.7c-9.14-4.95-18.13-2.37-26.36-3.95c-0.02-0.58-0.05-1.16-0.07-1.75c1.47-0.28,2.93-0.66,4.42-0.81
	c4.52-0.46,9.12-0.45,13.54-1.33c4.93-0.98,6.19-5.65,2.98-9.64c-3.89-4.84-8.6-9.23-11.46-14.6c-3.1-5.82-4.71-12.5-6.46-18.95
	c-0.39-1.42,1.36-3.41,2.13-5.14c1.46,0.85,3.3,1.38,4.32,2.6c7.7,9.24,15.34,18.53,22.76,28c2.44,3.12,4.16,6.81,6.2,10.24
	c2.67,4.48,6.79,6.6,11.84,6.72c8.04,0.2,16.02,0.15,23.68-3.25c4.28-1.9,8.97-2.9,13.51-4.19c2.57-0.73,5.4-1.14,6.31,2.27
	c0.88,3.27-0.37,5.81-3.91,6.67c-7.96,1.93-15.94,3.79-23.91,5.67c-0.36,0.08-0.76,0.05-1.07,0.21c-3.27,1.7-6.52,3.43-9.78,5.15
	c2.15,2.71,4.25,5.46,6.47,8.11c3.02,3.59,6.19,7.05,9.19,10.65c4.08,4.89,7.91,9.99,12.13,14.74c2.44,2.74,2.43,5.41,0.35,7.85
	c-2.4,2.82-4.39,0.21-5.88-1.38c-2.6-2.77-4.87-5.86-7.24-8.85c-4.73-5.97-9.21-12.16-14.25-17.86c-2.6-2.94-5.96-5.41-9.39-7.37
	c-2.46-1.4-5.15-0.27-6.15,2.69c-0.63,1.87-0.67,3.94-0.98,5.93c-1.03,6.66-2.08,13.32-3.08,19.99c-0.27,1.8-0.42,3.62-0.53,5.44
	c-0.1,1.64,0.43,3.55-0.23,4.88c-0.96,1.92-2.75,3.42-4.19,5.1c-1.07-1.86-3.13-3.76-3.03-5.56c0.44-8.21,1.49-16.38,2.29-24.57
	c0.25-2.54,0.79-5.13,0.49-7.61c-0.22-1.79-1.23-3.97-2.61-4.95c-0.78-0.55-3.33,0.59-4.56,1.61c-4.26,3.52-8.63,6.53-14.34,7.23
	c-1.84,0.22-4.17,2.44-4.88-0.57c-0.41-1.74,0.69-4.75,2.13-5.84c3.29-2.49,7.37-3.91,10.83-6.21
	C303.94,585.17,306.41,582.62,309.82,579.7z"/>
<path d="M63.46,199.62c3.35-2.82,5.68-3.49,8.94-1.14c6.46,4.65,13.24,8.84,19.91,13.19c3.81,2.48,7.85,4.65,11.43,7.41
	c3.93,3.02,7.6,3.82,10.26,1.45c2.35-2.09,3.35-9.39,0.89-11.77c-2.95-2.87-3.33-6.23-3.97-9.85c-1.23-6.97-7.32-8.51-12.74-10.45
	c-10.21-3.65-19.37-9.01-27.67-15.91c-0.67-0.56-1.17-1.33-2.59-2.98c2.39-0.11,4.01-0.64,5.24-0.17
	c9.67,3.69,19.25,7.61,28.89,11.38c4.06,1.59,8.09,3.38,12.3,4.38c3.83,0.91,7.26-4.14,5.43-7.76
	c-4.03-7.96-10.05-14.15-17.33-19.26c-2.34-1.64-4.5-3.7-6.21-5.97c-0.62-0.82-0.13-3.65,0.65-4.07c1.25-0.67,3.85-0.78,4.7,0.07
	c6.02,5.98,14.23,9.62,18.48,17.52c2.19,4.07,5.02,7.8,7.38,11.78c1.47,2.47,3.12,2.72,5.91,2.17c7.52-1.5,15.16-2.46,22.75-3.58
	c1.07-0.16,2.4-0.4,3.24,0.07c1.5,0.83,2.72,2.17,4.05,3.29c-1.18,1.2-2.37,3.43-3.55,3.43c-8.31,0.01-14.31,4.97-20.59,9.21
	c-2.49,1.68-4.88,3.93-6.45,6.46c-1.86,2.97-0.47,5.64,2.12,8.09c3.67,3.46,6.94,7.37,10.22,11.21c0.55,0.65,0.8,2.32,0.37,2.85
	c-0.5,0.61-2.21,0.97-2.86,0.58c-2.45-1.48-4.65-3.37-7.01-5.01c-2.3-1.6-4.69-3.09-7.04-4.62c-1.47,2.42-3.74,4.69-4.23,7.29
	c-0.86,4.6-0.83,9.4-0.76,14.11c0.04,2.61,0.23,4.94-3.05,5.31c-3.2,0.36-7.66,2.83-8.76-2.26c-1.73-8.02-7.82-10.59-14.1-13.67
	c-4.84-2.37-9.24-5.63-13.8-8.55c-5.65-3.62-11.28-7.27-16.87-10.99C65.89,202.09,64.96,200.99,63.46,199.62z"/>
<path d="M290.48,16.39c2.59,3.05,5.75,5.78,7.66,9.22c4.37,7.88,10.33,14.11,17.75,18.94c3.63,2.36,6.49,1.19,9.9-3.81
	c1.78-2.61,3.64-4.77,6.99-4.23c1.43,0.23,3.17,1.15,3.88,2.31c0.48,0.78-0.23,2.82-1.03,3.77c-4.58,5.38-9.3,10.66-14.09,15.86
	c-2.73,2.97-2.25,5.63,1.58,6.99c1.02,0.36,2.18,0.31,3.22,0.62c7.11,2.16,14.2,4.34,21.28,6.59c0.84,0.27,1.92,0.8,2.22,1.5
	c1,2.29,2.99,5.33,2.22,6.94c-1.51,3.12-4.58,1.37-7.18,0.24c-6.17-2.69-12.38-5.28-18.67-7.68c-1.64-0.63-3.6-0.58-5.41-0.54
	c-2.73,0.06-4.14,1.62-3.45,4.32c0.76,2.97,1.81,5.87,2.91,8.73c0.64,1.69,1.84,3.18,2.39,4.88c1.77,5.48-0.19,7.55-5.97,6.44
	c-2.71-0.52-6.37-0.34-7.79-2.02c-1.37-1.61-0.15-5.25-0.56-7.92c-0.72-4.65-1.4-9.38-2.88-13.82c-1.37-4.1-4.65-5.02-8.22-2.77
	c-4.32,2.72-8.43,5.77-13.3,9.15c-2.49-2.92-5.59-6.54-8.74-10.22c-2,1.43-3.47,2.49-4.96,3.53c-3.73,2.6-5.29,5.94-3.52,10.4
	c2.29,5.8,1.12,11.54-0.35,17.24c-0.75,2.89-2.37,4.91-5.98,4.08c0-2.47,0-4.81,0-7.27c-1.16,0-1.73-0.13-2.21,0.02
	c-2.7,0.85-5.99,1.87-7.2-1.29c-0.64-1.66,1.1-4.52,2.28-6.54c4.19-7.18,8.71-14.17,12.91-21.34c2.98-5.09,5.64-10.36,8.59-15.81
	c1.9,3.47,3.97,7.18,5.97,10.93c1.65,3.1,4.39,4.48,7.28,2.73c4.3-2.61,8.77-5.44,11.98-9.19c3.64-4.26,2.42-11.09-1.44-15.71
	c-2.7-3.22-5.84-6.19-7.95-9.76c-2.65-4.48-3.93-9.5-1.85-14.56C289.31,17.02,289.9,16.71,290.48,16.39z"/>
<path d="M592.66,540.04c3.94,2.26,7.6,4.19,11.04,6.44c1.53,1,2.62,2.66,3.91,4.02c-1.85,1.16-3.59,3.06-5.57,3.36
	c-7.69,1.18-14.28-0.98-19.65-7.03c-4.83-5.44-14.27-5-18.7,0.6c-0.83,1.05-1.57,2.75-1.35,3.97c1.39,7.98-0.91,16.54,4.08,24
	c1.35,2.01,2.26,5.09-0.73,6.8c-3,1.72-5.01-0.59-6.15-2.84c-1.45-2.84-2.79-5.97-3.15-9.09c-0.88-7.56-0.25-15.34-4.7-22.2
	c-0.88-1.36-0.77-3.53-0.68-5.31c0.43-8.35-1.09-10.58-8.8-14.4c-6.12-3.03-12.01-6.53-17.93-9.94c-2.23-1.28-4-3.22-1.66-5.72
	c2.18-2.33,3.78-0.1,5.56,1.16c3.68,2.6,7.3,5.45,11.34,7.33c4.03,1.87,7.42-0.52,10.09-3.59c3.81-4.38,7.71-8.71,11.25-13.31
	c2.84-3.7,5.74-3.26,8.06-0.16c3.02,4.04,5.31,8.61,8.03,12.89c0.93,1.47,2.14,3.83,3.33,3.9c6.76,0.36,13.42,3.61,20.3,0.99
	c0.51-0.19,1.02-0.41,1.55-0.54c4.1-1.01,8.34,0.94,8.97,4.11c0.71,3.6-1.78,6.91-6.37,7.29
	C599.58,533.19,595.97,535.5,592.66,540.04z M573.16,524.86c-0.56-2.71-1.01-5.04-1.52-7.35c-0.82-3.73-4.05-4.03-6.43-3.08
	c-1.67,0.66-3.45,3.51-3.46,5.38C561.73,524.1,568.76,527.09,573.16,524.86z M595.49,526.27c-3.34,0.91-5.89,1.82-8.52,2.28
	c-3.67,0.64-3.9,2.42-2.41,5.19c2.77-0.32,5.31-0.45,7.77-0.96c1.49-0.3,3.65-0.86,4.07-1.89
	C596.9,529.65,595.86,527.8,595.49,526.27z"/>
<path d="M222.5,234.81c-1.64-2.47-3.24-4.96-4.92-7.4c-7.28-10.62-14.41-21.35-21.94-31.79c-5.09-7.06-10.69-13.76-16.19-20.51
	c-8.72-10.71-17.81-21.12-26.25-32.04c-7.88-10.2-14.94-21.04-22.68-31.35c-8.52-11.34-17.48-22.35-26.07-33.64
	c-0.98-1.29-0.87-3.41-1.27-5.14c2.01,0.11,4.57-0.51,5.9,0.5c2.23,1.7,3.68,4.42,5.43,6.73c9.76,12.89,19.44,25.84,29.28,38.67
	c8.62,11.23,17.45,22.29,26.13,33.47c9.49,12.22,19.02,24.4,28.33,36.76c10.02,13.31,19.53,27.01,29.79,40.13
	c8.6,11,17.79,21.56,27.06,32.01c5.14,5.79,11.09,10.86,16.41,16.5c0.89,0.94,1.13,4.07,0.46,4.58c-1.2,0.91-4.06,1.42-4.95,0.64
	c-4.1-3.6-7.82-7.65-11.55-11.65c-6.3-6.77-12.61-13.54-18.7-20.5c-1.75-2-3.37-2.77-5.64-1.46c-5.11,2.95-9.13-0.1-13.21-2.42
	c-0.81-0.46-1.69-1.84-1.58-2.68c0.81-6.63-4.78-8.33-8.53-11.47c-1.33-1.12-2.56-2.37-3.64-3.72c-0.14-0.18,1.02-1.94,1.35-1.87
	c2.06,0.43,4.32,0.78,6.01,1.91c2.37,1.59,4.2,3.95,6.44,5.77c0.9,0.73,2.27,0.9,3.42,1.33
	C221.75,235.72,222.12,235.26,222.5,234.81z"/>
<path d="M681.15,109.07c0.21,2.62,0.44,5.25,0.62,7.87c0.35,5.22,1.86,6.51,6.9,5.82c7.66-1.05,11.24,1.23,14.36,8.24
	c1.46,3.27,3.82,6.16,5.87,9.15c1.84,2.68,4.23,5.07,5.63,7.94c1.1,2.27,2.22,5.79,1.2,7.46c-0.97,1.59-4.71,2.1-7.2,2.05
	c-10.01-0.22-20-1.09-30.01-1.22c-6.87-0.09-9.02,2.43-11.02,9.04c-2.95,9.75-6.31,19.38-9.76,28.96c-0.49,1.37-2.47,2.22-3.75,3.3
	c-1.04-1.5-2.36-2.88-3-4.53c-0.41-1.05,0.04-2.55,0.38-3.76c2.2-7.87,4.4-15.74,6.75-23.56c2.38-7.9-1.97-16.12-9.86-18.48
	c-4.55-1.36-9.11-2.72-13.52-4.46c-1.39-0.55-2.27-2.36-3.39-3.6c1.56-0.98,3.24-2.94,4.65-2.76c6.14,0.8,12.19,2.25,18.28,3.41
	c1.97,0.37,3.97,0.68,5.98,0.83c7.16,0.55,7.21,0.24,7.58-7.03c0.11-2.22,1.4-5.11,3.12-6.38c4.18-3.09,6.53-6.61,6.48-11.93
	c-0.02-2.18,1.11-4.37,1.72-6.56C679.83,108.95,680.49,109.01,681.15,109.07z M704.27,145.28c-5.09-5.05-12.19-2.6-15.13,4.85
	C695.07,152.8,699.09,151.57,704.27,145.28z M694.98,135.41c-0.63-5.31-3.87-8.29-7.99-7.73c-3.34,0.45-3.48,2.85-3.09,5.3
	C684.43,136.35,687.87,137.11,694.98,135.41z"/>
<path d="M253.02,341.58c-2.84-0.35-5.67-0.69-8.53-1.04c-2.84,7.64,1.93,15.24,9.9,15.77c2.73,0.18,6.84-0.77,6.74,3.35
	c-0.03,1.35-4.33,3.35-6.85,3.69c-2.45,0.33-6.06-0.26-7.56-1.9c-5.87-6.45-12.26-4.03-18.73-2.03c-4.12,1.27-8.21,2.67-12.22,4.25
	c-5.51,2.17-11.06,4.32-16.36,6.95c-5.31,2.63-11.02,2.86-14.66-0.22c0.23-0.44,0.36-1.18,0.72-1.32c6.4-2.47,12.77-5.07,19.28-7.22
	c6.15-2.03,12.61-3.18,18.62-5.51c2.41-0.94,3.98-4.01,6.51-6.73c-2.83-0.83-5-1.59-7.23-2.08c-2.14-0.47-4.37-0.55-6.5-1.02
	c-6.62-1.47-8.41-5.18-5.36-11.64c-7.47-3.67-14.98-7.28-22.42-11.03c-8.62-4.35-17.04-9.11-25.8-13.16
	c-6.08-2.81-12.65-4.56-18.85-7.14c-2.4-1-4.95-2.59-6.37-4.65c-1.06-1.54-0.41-4.25-0.52-6.44c2.05,0.07,4.27-0.34,6.12,0.3
	c3.76,1.31,7.35,3.11,10.95,4.84c5.22,2.5,10.38,5.15,15.6,7.65c3.76,1.8,7.53,3.58,11.38,5.17c16.5,6.81,33.03,13.57,49.58,20.26
	c1.66,0.67,3.61,1.22,5.33,1.03c7.56-0.83,12.9,2.72,17.38,8.22C253.13,340.46,253.07,341.02,253.02,341.58z"/>
<path d="M598.23,354.41c0.82,5.48-1.04,7.36-4.38,9.24c-7.47,4.2-15.54,6.14-23.73,7.99c-1.86,0.42-3.54,1.66-6.28,2.99
	c2.68,4.59,5.41,8.58,7.42,12.91c1.33,2.86,2,6.18,2.17,9.34c0.06,1.25-1.85,3.04-3.27,3.7c-0.59,0.27-2.66-1.56-3.35-2.82
	c-1.85-3.34-3.08-7.03-5-10.33c-1.66-2.86-3.92-5.38-6.14-8.37c-5.3,4.21-9.8,7.79-14.32,11.36c-0.71,0.56-1.43,1.21-2.25,1.54
	c-2.34,0.95-5.05,2.51-6.82-0.53c-1.8-3.08,1.25-3.87,3.04-5.31c4.12-3.3,8.19-6.68,12.07-10.25c2.96-2.72,3.06-5.87,0.9-9.39
	c-4.17-6.8-11.12-9.66-17.77-12.95c-2.09-1.03-5.17-1.38-4.04-4.58c1.11-3.15,4.17-2.92,6.53-1.69c4.02,2.1,7.7,4.85,11.69,7.01
	c2.32,1.26,4.93,2.13,7.51,2.74c0.96,0.22,2.86-0.53,3.22-1.33c2.06-4.59,4.66-9.2,5.45-14.06c1.95-11.95,7.95-18.3,19.9-20.57
	c6.01-1.14,11.97-3,17.61-5.37c2.64-1.11,4.16-4.69,6.74-6.24c2.25-1.35,5.84-2.7,7.84-1.81c6.77,3.02,11.98-0.22,17.53-2.89
	c2.45-1.18,4.88-2.63,7.48-3.16c1.36-0.28,3.58,0.81,4.45,1.99c0.58,0.78-0.15,3.13-1,4.24c-3.54,4.67-8.34,6.25-14.08,5.04
	c-3.45-0.72-6.89-1.43-9.56,1.96c-0.39,0.49-1.31,0.61-2,0.82c-8.33,2.52-16.67,4.99-24.98,7.57c-1.34,0.42-2.5,1.4-3.79,2.01
	c-2.12,0.99-4.2,2.31-6.44,2.75c-8,1.56-11.28,5.18-12.3,13.15c-0.62,4.86-1.88,9.66-3.08,14.43c-1.19,4.73,0.1,6.87,4.89,6.38
	c3.58-0.36,7.07-1.66,10.58-2.62C586.36,357.76,592.06,356.13,598.23,354.41z"/>
<path d="M58.35,323.62c7.59,0.9,9.28,2.74,10.17,8.53c1.14,7.36,2.47,14.7,4.05,21.97c1.05,4.82,6.88,7.23,11.75,5.72
	c4.3-1.34,8.74-2.37,13.2-3.02c2.38-0.34,5.11,0.58,4.79,3.81c-0.28,2.9-2.58,3.71-5.28,3.46c-1.82-0.17-3.64-0.37-5.47-0.43
	c-5.29-0.18-9.4,3.53-9.86,8.78c-0.14,1.55-0.43,3.08-0.87,6.09c-1.79-2.1-2.44-3.53-3.5-3.96c-1.76-0.72-3.98-1.47-5.65-0.98
	c-2.65,0.78-5.36,7.5-3.61,10.52c1.63,2.81,4.94,5.02,8.01,6.42c1.07,0.49,3.87-2,5.38-3.59c1.14-1.2,1.51-3.15,2.3-4.94
	c3.88,4.38,4.13,8.06,1.13,12.39c-3.02,4.35-4.56,4.74-10.21,2.61c-2.9-1.09-5.76-2.36-8.74-3.21c-3.09-0.88-4.52-2.75-4.84-5.85
	c-0.16-1.54-0.7-3.04-1.18-5c-4.05,2.36-6.71,4.84-7.01,9.16c-0.07,1.08-0.06,2.4-0.65,3.17c-0.9,1.17-2.4,2.81-3.45,2.68
	c-1.15-0.14-3.03-2.14-2.94-3.2c0.39-4.85,0.8-9.83,2.3-14.41c1.15-3.5,3.94-6.47,6.01-9.67c2.13-3.28,1.18-5.55-2.5-7.18
	c-5.78-2.55-11.37-5.56-17.18-8.01c-3.16-1.33-6.62-1.95-9.95-2.86c-4.08-1.11-6.16-3.5-5.33-8.71c6.22,1.46,12.27,2.56,18.11,4.35
	c5.73,1.76,11.2,4.36,16.87,6.33c5.27,1.83,7.5,0.62,7.38-5.02c-0.15-7.05-1.44-14.08-2.28-21.11
	C59.12,327.02,58.74,325.58,58.35,323.62z"/>
<path d="M454.06,263.35c-2.8,2.62-5.32,4.41-7.13,6.76c-5.1,6.63-9.67,13.67-14.92,20.17c-2.92,3.61-6.33,7.18-11.76,7.05
	c-2.87-0.07-4.53-1.17-4.37-4.26c0.22-4.33,1.46-7.93,4.92-11.11c8.97-8.23,17.5-16.95,26.35-25.32c1.06-1.01,3.33-1.88,4.52-1.43
	c13.31,4.95,16.15,4.01,23.71-7.78c1.83-2.85,4.27-5.39,6.78-7.69c2.81-2.58,6.05-1.55,6.06,2.17c0.01,3.45-0.75,7.48-2.64,10.25
	c-4.82,7.07-10.17,13.77-19.65,15.41c-1.95,0.34-3.56,3.33-5.1,5.27c-4.48,5.67-8.64,11.61-13.32,17.1
	c-4.57,5.36-9.54,10.4-14.6,15.31c-0.96,0.93-3.15,0.6-4.77,0.85c0.42-1.55,0.39-3.47,1.32-4.6c6.6-7.96,13.58-15.61,20.05-23.67
	C452.47,274.15,457.49,270.88,454.06,263.35z"/>
<path d="M388.08,232.42c-0.86-3.45-1.94-5.74-1.92-8.02c0.11-18.43,0.49-36.86,0.64-55.29c0.05-5.65-0.41-11.31-0.55-16.96
	c-0.35-13.76,0.92-27.3,3.83-40.84c1.55-7.2,0.5-14.94,0.99-22.41c0.35-5.36,1.31-10.68,2-16.01c0.79-0.09,1.57-0.17,2.36-0.26
	c0.92,3.07,2.81,6.21,2.61,9.21c-0.97,14.74-2.82,29.42-3.72,44.16c-0.89,14.6-1.12,29.23-1.47,43.86
	c-0.3,12.61-0.3,25.23-0.57,37.84c-0.12,5.79,1.16,6.82,6.73,4.78c1.03-0.38,2.09-0.71,3.07-1.2c3.58-1.76,5.6,0.04,5.64,3.29
	c0.05,4.34-0.66,8.73-1.43,13.02c-0.2,1.11-1.74,2.59-2.83,2.76c-1.06,0.16-2.81-0.86-3.45-1.87c-3.82-5.99-4.45-6.02-8.36,0.05
	C391,229.54,390.02,230.33,388.08,232.42z"/>
<path d="M420.54,104.12c0.34,1.98,0.9,3.64,0.88,5.3c-0.24,16.24-0.46,32.48-0.95,48.71c-0.16,5.42-1.62,10.83-1.42,16.21
	c0.09,2.45,2.39,5.28,4.45,7.02c1.08,0.91,3.83-0.17,6.77-0.43c0.42,0.59,1.4,1.99,3.24,4.6c-7.51-0.53-12.48,1.65-13.89,8.5
	c-1.14,5.52,1.81,9.74,5.6,15.06c1.22-2.22,2.44-4.45,3.89-7.1c3.91,4.56,3.6,8.2,2.74,12.04c-1.32,5.85-2.87,11.7-3.55,17.64
	c-0.6,5.16-3.21,8.54-7.44,10.69c-2.59,1.31-3.41,3.04-4.3,5.68c-1.31,3.9-3.84,7.4-5.85,11.07c-0.62-0.25-1.24-0.51-1.86-0.76
	c1.53-5.69,3.19-11.35,4.57-17.08c1.39-5.77,3.11-11.56,3.57-17.42c0.43-5.4-0.4-10.94-1.16-16.35c-0.21-1.47-1.96-3.45-3.39-3.88
	c-3.65-1.08-4.36-3.1-2.89-6.15c4.06-8.42,3.92-17.34,4.3-26.46c0.87-21.1,2.86-42.16,4.42-63.24c0.07-0.88,0.38-1.76,0.68-2.61
	C419.04,104.89,419.51,104.77,420.54,104.12z"/>
<path d="M457.68,243.41c-0.1-1.46-0.67-3.1-0.21-4.36c1.52-4.25,3.29-8.42,5.19-12.51c2.86-6.15,7.02-11.51,9.64-17.93
	c2.83-6.95,7.7-13.06,11.58-19.6c4.03-6.78,9.34-13.21,11.56-20.56c2.47-8.18,5.97-15.58,10.19-22.79c4-6.86,8.17-13.62,12.33-20.39
	c4.37-7.09,8.58-14.3,13.3-21.16c4.39-6.38,9.25-12.46,14.16-18.45c1.27-1.54,3.27-4.68,5.68-1.66c1.93,2.43,1.58,5.5-0.82,7.96
	c-2.54,2.61-4.92,5.39-7.58,7.88c-8.7,8.12-12.46,19.49-19.16,28.94c-4.72,6.66-8.8,13.79-12.94,20.84
	c-2.48,4.21-4.69,8.6-6.74,13.04c-2.51,5.42-4.61,11.03-7.11,16.46c-1.13,2.45-2.8,4.65-4.17,6.99
	c-6.07,10.31-12.14,20.61-18.15,30.95c-2.01,3.45-3.87,6.98-5.77,10.49c-2.64,4.87-5.24,9.76-7.92,14.6
	c-0.32,0.58-1.02,0.94-1.54,1.4C458.69,243.5,458.18,243.45,457.68,243.41z"/>
<path d="M585.3,225.63c-4.65-4.31-5.3-8.05-3.07-13.42c1.47-3.54,2.79-7.14,4.19-10.7c1.67-4.22,1-7.49-2.72-10.65
	c-4.43-3.76-8.25-8.25-12.23-12.51c-2.1-2.25-3.89-5.12-1.14-7.7c2.88-2.72,5.24-0.18,7.46,1.87c4.3,3.95,8.6,7.92,13.12,11.62
	c4.99,4.07,9.47,2.84,11.33-3.12c1.51-4.84,2.37-9.88,3.87-14.73c0.46-1.48,2.05-2.61,3.12-3.9c1.09,1.25,2.94,2.39,3.14,3.77
	c0.98,6.67,1.63,13.4,2.16,20.13c0.33,4.18-1.92,7.14-5.97,6.89c-6.43-0.4-8.62,3.73-10.53,8.42c-2.19,5.38-3.84,11.02-6.38,16.22
	C590.23,220.73,587.48,223.02,585.3,225.63z"/>
<path d="M294.63,221.58c-1.87-0.45-4.96-0.25-6.06-1.64c-3.64-4.57-6.57-9.71-9.82-14.72c2.44-2.03,4.07-3.4,6.35-5.3
	c-4.42-8.57-8.86-17.05-13.14-25.61c-0.97-1.94-1.3-4.18-2.05-6.23c-1.54-4.19,0.29-6.14,4.39-6.94c2.04,3.13,4.03,6.17,6.27,9.61
	c2.71-4.42,2.09-9.05-0.99-12.71c-0.81-0.97-2.4-1.8-2.48-2.78c-0.35-4.47-3.01-6.19-6.96-7.01c-0.88-0.18-1.85-1.28-2.26-2.18
	c-2.2-4.79-4.44-9.58-6.19-14.54c-0.43-1.23,0.58-3.48,1.65-4.49c0.53-0.5,3.37,0.33,4.04,1.32c3.55,5.23,6.76,10.7,10.04,16.1
	c2.52,4.14,5.26,8.18,7.36,12.53c1.11,2.3,1.19,5.13,1.53,7.75c0.46,3.54,0.62,7.12,1.1,10.65c0.94,7.04,1.93,14.07,3.03,21.08
	C291.7,204.49,293.11,212.49,294.63,221.58z"/>
<path d="M123.69,314.32c0.48,7.54-4.83,9.7-9.85,12.45c-5.44,2.98-10.22,6.79-12.55,13.03c-0.73,1.96-2.43,3.67-4,5.16
	c-0.87,0.82-2.38,0.96-3.61,1.41c-0.39-1.31-1.43-2.85-1.06-3.89c1.28-3.57,2.85-7.08,4.69-10.4c1.76-3.18,3.9-6.16,6.02-9.11
	c3.82-5.32,3.41-7-2.17-10.83c-2.59-1.77-4.77-4.13-7.29-6.35c3.27-3.37,5.99-3.66,9.05-1.7c3.43,2.18,6.38,2.8,9.41-1.16
	c2.06-2.69,7.1-1.97,10,0.22c5.76,4.36,11.5,8.78,17.63,12.55c2.08,1.28,5.39,0.4,7.98,1.09c1.87,0.5,3.47,1.98,5.19,3.03
	c-1.53,1.52-3.24,4.46-4.56,4.3c-4.36-0.53-8.76-1.76-12.79-3.53c-3.73-1.63-7-4.3-10.48-6.51
	C124.77,314.14,124.23,314.23,123.69,314.32z"/>
<path d="M452.18,383.94c-1.28-0.11-2.56-0.2-3.83-0.32c-7.57-0.71-9.86-4.81-6.49-11.57c4.95-9.91,21.27-17.94,32-15.41
	c1.56,0.37,3.65,2.36,3.88,3.85c1.91,12.59-5.64,22.15-16.81,23.05c-2.91,0.23-5.82,0.47-8.73,0.7
	C452.19,384.14,452.19,384.04,452.18,383.94z M470.61,370.5c-2.28-4.28-4.63-6.99-9.17-6.02c-5.68,1.21-10.05,5.72-10.31,10.52
	C457.48,373.52,463.8,372.07,470.61,370.5z"/>
<path d="M262.14,203.28c-2.55-1.24-5.1-2.48-8.69-4.23c2.35,6.34,4.63,12.51,7.1,19.2c-4.75,0.65-7.08-0.46-8.83-3.67
	c-3.92-7.19-8.25-14.16-12.16-21.35c-1.35-2.48-1.86-5.39-2.89-8.05c-1.41-3.63-2.95-7.22-4.53-11.04c1-0.53,2.54-1.87,4.21-2.07
	c1.72-0.21,4.23,0.07,5.27,1.19c4.57,4.91,9.14,9.93,12.92,15.45c3.08,4.5,5.03,9.77,7.49,14.7L262.14,203.28z"/>
<path d="M404.17,350.05c-9.18,3.98-14.08,13.1-24.13,14.99c-6.77,1.27-11.43-0.05-14.64-6.11c-1.96-3.69-3.8-7.49-5.22-11.41
	c-0.48-1.32-0.03-4.03,0.89-4.57c1.44-0.84,3.96-1.02,5.44-0.29c2.03,1,3.57,3.06,5.23,4.75c6.6,6.71,7.38,6.72,12.8-0.08
	c0.32,0.13,0.81,0.18,0.94,0.42c3.96,7.11,6.11,7.37,11.79,1.4C399.2,347.11,401.19,346.64,404.17,350.05z"/>
<path d="M294.2,510.92c0.68-5.58,2.85-7.59,8.06-8.53c1.65-0.3,2.94-2.52,4.42-3.84c0.91-0.81,2.11-2.39,2.73-2.19
	c1.16,0.36,2.61,1.63,2.86,2.76c0.95,4.25,1.81,7.95,7.43,8.46c1.08,0.1,2.98,4.89,2.35,6.78c-1.03,3.05-3.39,6.15-6.04,8.04
	c-2.84,2.03-4.5-0.7-5.36-3.35c-2.26-6.96-3.09-7.16-8.85-2.72c-0.96,0.74-3.34,1.22-3.8,0.7
	C296.43,515.26,295.42,512.99,294.2,510.92z"/>
<path d="M262.03,203.39c5.93-0.74,5.74-0.71,4.97-6.81c-0.21-1.66,1.14-3.51,1.77-5.27c1.48,0.79,3.04,1.47,4.42,2.42
	c0.7,0.49,1.07,1.45,1.61,2.19c3.65,5.01,3.39,5.77-2.57,7.53c-0.47,0.14-0.86,0.57-1.28,0.86c10.12,14.88,17.3,34.29,14.35,38.97
	c-0.47-0.19-1.2-0.26-1.4-0.61c-2.72-4.96-5.23-10.04-8.07-14.93c-2.08-3.56-4.84-6.74-6.83-10.34c-2.53-4.57-4.59-9.4-6.85-14.11
	L262.03,203.39z"/>
<path d="M605,451.71c-5.23-1.86-9.85-3.37-14.36-5.16c-2.82-1.12-5.66-2.4-8.16-4.1c-7.02-4.76-14.93-4-22.74-4.28
	c-2.87-0.1-7.44,0.69-6.89-3.7c0.24-1.88,5.12-4.78,7.53-4.47c6.57,0.86,13.02,2.98,19.4,4.98c6.41,2,12.68,4.46,19.02,6.7
	C603.53,443.35,604.83,445.17,605,451.71z"/>
<path d="M520.77,566.25c-8.27-0.59-10.78-6.56-14.22-10.84c-7.11-8.86-13.44-18.33-20.35-27.35c-2.05-2.68-4.47-4.86-2.5-8.91
	c5.99,1.35,8.93,6.18,12.37,10.41c4.67,5.74,9.67,11.24,13.98,17.24C514.18,552.53,518.77,558.18,520.77,566.25z"/>
<path d="M514.34,385.07c2.27,5.27,4.49,10.44,6.92,16.08c-0.79-0.08-1.91-0.01-2.89-0.36c-1.17-0.43-2.24-1.82-3.3-1.76
	c-8.08,0.44-10.09-5.99-12.95-11.31c-1.9-3.54-0.8-8.23,2.5-9.56c6.07-2.43,12.31-4.5,18.62-6.16c1.39-0.37,3.4,1.62,5.12,2.52
	c-1.41,1.18-2.96,3.5-4.22,3.35C518.37,377.2,516.73,381.38,514.34,385.07z"/>
<path d="M541.67,243.54c-1.81-1.02-4.01-1.55-4.27-2.58c-0.36-1.38,0.28-3.67,1.34-4.67c6.05-5.7,12.4-11.06,18.53-16.67
	c2.32-2.13,4.34-1.61,6.19,0.25c2.04,2.05,3.58,4.63,0.86,7.11c-4.4,3.99-8.96,7.84-13.7,11.42
	C547.94,240.41,544.78,241.78,541.67,243.54z"/>
<path d="M309.94,127.2c2.4,4.73,4.77,9.47,7.2,14.18c0.73,1.41,1.53,2.79,2.4,4.11c0.7,1.05,2.19,1.97,2.23,3
	c0.19,4.63,3.71,7.31,5.79,10.83c3.29,5.57,6.71,11.1,9.49,16.92c0.74,1.55,0.08,5.05-1.19,6.02c-2.42,1.86-3.67-0.72-4.68-2.77
	c-5.77-11.76-10.7-23.94-17.93-34.97c-2.15-3.28-3.96-6.87-5.3-10.55c-0.72-1.99-0.13-4.45-0.13-6.7
	C308.53,127.25,309.23,127.23,309.94,127.2z"/>
<path d="M392.43,532.64c-0.68-1.04-1.38-2.07-2.13-3.09c-3.8-5.21-8.66-9.93-9.02-17.04c-0.06-1.18-0.86-2.32-1.33-3.48
	c-0.53-0.01-1.07-0.02-1.6-0.03c-1.85,5.78-2.9,11.4,0.73,17.4c4.94,8.17,13.7,14.32,13.52,25.33c-0.02,0.99,2.32,2.03,3.56,3.04
	c0.92-1.62,2.68-3.28,2.6-4.84c-0.08-1.58-0.32-3.1-0.65-4.59C395.92,541.3,394.07,537.03,392.43,532.64z"/>
<path d="M132.86,243.02c2.24,0.5,4.56,0.77,6.71,1.53c6.58,2.33,13.25,4.51,19.59,7.38c8.97,4.06,19.22,6.75,22.87,18.77
	c-1.42-0.13-2.97,0.16-4.02-0.44c-5.98-3.4-11.74-7.18-17.76-10.51c-5.02-2.77-10.36-4.95-15.42-7.66
	c-4.26-2.28-8.31-4.94-12.46-7.44C132.53,244.11,132.69,243.56,132.86,243.02z"/>
<path d="M548.64,268.66c-0.58,4.23-0.35,4.54,7.81,11.84c-2.97,1.76-5.47,4.13-8.35,4.73c-4.01,0.83-7.18,1.92-9.28,5.74
	c-1.39,2.53-3.93,3.52-6.44,1.37c-2.76-2.37-1.46-4.6,0.98-6.23c3.35-2.24,3.17-5.28,1.67-8.17c-1.78-3.43-0.47-5.27,2.56-6.3
	C540.95,270.5,544.44,269.77,548.64,268.66z"/>
<path d="M525.12,330.25c-3.48,2.04-6.19,3.76-9.01,5.27c-6.34,3.39-11.44,8.94-18.79,10.55c-1.6,0.35-3.19,1.58-4.67,1.4
	c-2.66-0.31-5.23-1.37-7.83-2.12c1.62-1.76,2.91-4.18,4.91-5.17c8.82-4.39,17.83-8.39,26.79-12.51
	C519.53,326.28,522.1,326.87,525.12,330.25z"/>
<path d="M218.91,388.26c-1.43,2.19-1.86,3.55-2.78,4.14c-5.81,3.7-11.79,7.12-17.58,10.84c-3.64,2.34-7.15,4.91-10.53,7.61
	c-1.68,1.34-2.92,3.83-5.38,1.68c-2.68-2.36-1.33-4.75,0.83-6.47c6.22-4.94,12.48-9.86,18.95-14.46c3.2-2.28,6.76-4.26,10.45-5.58
	C214.26,385.52,216.45,387.28,218.91,388.26z"/>
<path d="M532.94,166.57c0.65,6.61-4.77,10.29-7.59,15.16c-1.15,1.99-11.6-0.89-12.19-3.26c-0.34-1.37,0.07-3.38,0.93-4.5
	c3.63-4.75,7.45-9.36,11.42-13.84c1.18-1.33,3.05-2.05,4.61-3.05c0.83,1.7,1.86,3.35,2.43,5.13
	C532.98,163.58,532.83,165.11,532.94,166.57z"/>
<path d="M520.37,232.85c-1.27,10.13-5.87,15.49-14.08,15.46c-1.58-0.01-3.83-0.86-4.51-2.04c-0.53-0.93,0.48-3.43,1.56-4.42
	c1.74-1.59,2.63-2.82,1.19-5.03c-2.14-3.3-0.45-6.6,1.82-8.22c2.58-1.83,6.48-3.14,9.44-2.61
	C517.67,226.32,518.87,230.43,520.37,232.85z"/>
<path d="M502.94,406.75c6.55,0,11.42,0.17,16.26-0.08c1.89-0.1,3.94-0.79,5.55-1.8c4.64-2.89,15.08,1.36,15.93,6.86
	c0.25,1.59-0.26,4.43-1.21,4.84c-1.96,0.84-5.17,1.4-6.61,0.35c-5.25-3.84-10.87-4.48-17.06-4.14c-2.82,0.16-5.84-0.66-8.51-1.71
	C505.71,410.45,504.64,408.51,502.94,406.75z"/>
<path d="M260.25,149.66c-4.32-4.41-9.06-8.09-12.24-12.82c-3.18-4.72-4.47-10.66-7.18-15.76c-2.63-4.95-8.11-8.6-7.01-15.55
	c7.53,2.39,9.63,9.11,13.28,14.26c3.1,4.37,5.39,9.34,7.81,14.15c2.1,4.17,3.95,8.47,5.74,12.78
	C260.96,147.5,260.41,148.64,260.25,149.66z"/>
<path d="M313.5,211.51c-0.59-3.24-1.09-6.51-1.81-9.73c-0.66-2.93-1.54-5.81-2.37-8.7c-0.15-0.51-0.73-0.97-0.73-1.45
	c0.04-10.74-7.46-19.53-7.77-30.1c-0.06-1.87,1.83-3.8,2.81-5.7c1.38,1.63,4.06,3.37,3.94,4.89c-0.83,10.17,3.93,19.25,5.12,29.01
	c0.54,4.41,3.09,8.53,4.03,12.93c0.58,2.75-0.16,5.78-0.3,8.68C315.43,211.4,314.46,211.46,313.5,211.51z"/>
<path d="M182.38,374.25c-3.73,3.54-6.94,6.69-10.3,9.68c-1.17,1.05-2.68,2.3-4.1,2.38c-4.88,0.28-9.86,0.56-14.65-0.15
	c-2.36-0.35-4.4-2.9-6.58-4.45c0.19-0.6,0.38-1.2,0.57-1.8c2.17-0.52,4.36-0.98,6.51-1.57c6.27-1.71,12.52-3.49,18.79-5.2
	C175.93,372.24,179.25,371.34,182.38,374.25z"/>
<path d="M210.24,108.72c3,4.17,6.17,8.22,8.95,12.53c3.4,5.28,6.65,10.69,9.54,16.26c0.77,1.48,0.72,4.82-0.23,5.48
	c-2.49,1.74-5.39,0.9-6.98-1.87c-1.44-2.5-3.04-5.19-3.43-7.96c-0.96-6.89-6.14-11.23-9.14-16.85c-1.02-1.91-0.89-4.44-1.28-6.69
	C208.53,109.32,209.39,109.02,210.24,108.72z"/>
<path d="M446.74,207.76c-1.29-9.73,2.71-17.45,9.56-23.83c1.28-1.19,3.82-1.02,5.78-1.48c0,1.99,0.71,4.37-0.13,5.9
	c-3.14,5.73-6.63,11.3-10.36,16.66c-0.95,1.37-3.27,1.78-4.96,2.63L446.74,207.76z"/>
<path d="M497.86,103.07c0.49,4.92-3.54,8.47-6.8,12.28c-0.44,0.51-3.74-0.5-3.73-0.66c0.17-2.5-0.07-5.52,1.26-7.36
	c3.12-4.32,3.11-5.85-1.09-8.95c-1.07-0.79-1.18-2.85-1.74-4.33c1.89-0.6,3.98-2.05,5.62-1.64
	C495.02,93.32,497.94,98.35,497.86,103.07z"/>
<path d="M193.95,116.36c1.14,0.82,2.17,1.28,2.81,2.07c4.86,6.04,9.68,12.1,14.41,18.23c1.64,2.13,2.7,4.88-0.02,6.61
	c-0.83,0.53-3.82-1.1-4.96-2.46c-4.83-5.78-9.41-11.77-13.91-17.82c-0.86-1.16-1.31-2.96-1.17-4.38
	C191.19,117.81,192.87,117.16,193.95,116.36z"/>
<path d="M320.31,213.97c2.47,9.91,5.08,19.8,7.29,29.77c0.34,1.51-1.14,3.43-1.98,5.68c-4.03-3.06-3.83-6.82-4.53-10.28
	c-0.48-2.39-1.07-4.89-2.24-6.99C316.1,227.18,315.93,218.31,320.31,213.97z"/>
<path d="M225.14,375.35c-8.38,2.67-16.73,5.47-25.2,7.84c-1.06,0.3-2.77-1.73-4.18-2.68c0.77-1.12,1.34-2.96,2.33-3.23
	c6.88-1.87,13.82-3.58,20.81-4.94c1.89-0.37,4.04,0.65,6.07,1.04C225.03,374.03,225.09,374.69,225.14,375.35z"/>
<path d="M631.5,368.83c9.75-1.81,18.77-3.14,27.89-0.43c0.29,0.54,0.57,1.08,0.86,1.62c-1.44,1.12-2.72,2.75-4.35,3.27
	C650.62,374.96,634.55,372.3,631.5,368.83z"/>
<path d="M234.28,145.94c2.52,2.93,5.18,5.75,7.51,8.81c3.04,3.99,5.86,8.16,8.67,12.31c0.79,1.16,1.59,2.52,1.71,3.85
	c0.09,1.04-0.88,2.17-1.38,3.26c-1.06-0.51-2.53-0.73-3.12-1.57c-4.83-6.95-9.6-13.95-14.12-21.11c-0.84-1.32-0.44-3.42-0.61-5.16
	C233.39,146.2,233.83,146.07,234.28,145.94z"/>
<path d="M340.55,149.62c0-1.51-0.35-2.65,0.07-3.27c1.1-1.61,2.31-3.69,3.92-4.2c0.91-0.29,3.27,1.9,3.93,3.43
	c1.06,2.43,1.78,5.27,1.64,7.88c-0.09,1.63-1.71,3.8-3.23,4.57c-2.3,1.16-4.8,0.3-5.57-2.55
	C340.73,153.42,340.73,151.19,340.55,149.62z"/>
<path d="M355.77,204.55c0.13-1.76-0.1-2.85,0.32-3.54c0.96-1.58,2.25-2.96,3.4-4.42c1.22,1.23,2.91,2.25,3.56,3.73
	c1.02,2.3,1.69,4.89,1.82,7.39c0.09,1.66-1.02,3.39-1.59,5.09c-2.05-0.9-4.66-1.32-5.98-2.85
	C356.03,208.49,356.1,205.87,355.77,204.55z"/>
<path d="M190.51,251.87c-5.76,0.95-9.2-3.95-13.74-6.02c-1.41-0.65-2.83-1.95-3.51-3.32c-0.73-1.47-1.32-3.76-0.67-5.01
	c1.28-2.46,3.26-1.44,4.86,0.22c1.89,1.97,3.74,3.99,5.74,5.83c1.81,1.67,3.73,3.23,5.74,4.64c0.98,0.69,2.28,0.91,3.44,1.35
	C191.74,250.33,191.13,251.1,190.51,251.87z"/>
<path d="M520.52,432.96c2.6,0.45,5.28,0.66,7.79,1.41c2.7,0.8,5.3,2.01,7.86,3.21c1.76,0.82,3.9,1.56,4.92,3.01
	c0.8,1.14,0.16,3.3,0.17,5c-1.43-0.22-3.12-0.02-4.24-0.73c-2.87-1.82-5.31-4.34-8.25-6.01c-2.69-1.53-5.8-2.31-8.72-3.41
	C520.21,434.62,520.36,433.79,520.52,432.96z"/>
<path d="M683.91,105.68c-3.39-5.68-3-15.83,0.52-20.9C688.95,88.11,688.84,98.02,683.91,105.68z"/>
<path d="M223.33,275.07c-1.65,0.46-3.86,1.75-4.6,1.16c-4.08-3.2-7.82-6.84-11.6-10.41c-0.39-0.37-0.58-1.59-0.3-1.92
	c0.5-0.59,1.81-1.32,2.15-1.09c4.49,3.1,8.89,6.34,13.27,9.61C222.61,272.71,222.66,273.4,223.33,275.07z"/>
<path d="M385.96,234.54c-0.67,1.76-1.14,3.64-2.05,5.27c-2.54,4.57-5.09,4.69-8.22,0.54c-1.09-1.46-2.31-2.89-3.05-4.52
	c-0.34-0.75,0-2.32,0.61-2.83c0.49-0.42,2.38-0.16,2.74,0.39c2.73,4.18,5.68,2.81,8.81,0.04
	C385.19,233.8,385.58,234.17,385.96,234.54z"/>
<path d="M423.48,93.46c0-10.01,0-20.02,0-30.03c0.54,0.01,1.07,0.01,1.61,0.02c0,10.06,0,20.12,0,30.19
	C424.55,93.58,424.02,93.52,423.48,93.46z"/>
<path d="M264.51,32.34c0.67,0.44,1.49,0.69,1.78,1.23c1.86,3.46,3.78,6.9,5.27,10.53c0.36,0.88-0.84,2.4-1.33,3.63
	c-0.93-0.68-2.15-1.18-2.74-2.09c-1.65-2.52-3.11-5.18-4.52-7.85C261.83,35.64,261.78,33.67,264.51,32.34z"/>
<path d="M227.98,370.5c4.22-3.61,10.38-3.98,14.28-0.85C238.56,373.17,232.27,373.54,227.98,370.5z"/>
<path d="M104.9,551.18c3.17,4.88,3.01,8.74-0.25,13.5C100.95,561.26,100.95,557.53,104.9,551.18z"/>
<path d="M423.61,52.05c0-6.14,0-12.29,0-18.96c2.83,2.26,3.13,12.63,1.19,18.95C424.41,52.04,424.01,52.04,423.61,52.05z"/>
<path d="M446.63,207.65c-0.07,2.37,0.08,4.79-0.34,7.1c-0.16,0.89-1.65,1.53-2.54,2.29c-0.73-1.06-2.2-2.26-2.04-3.17
	c0.49-2.82,1.08-5.98,5.04-6.11L446.63,207.65z"/>
<path d="M507.39,428.44c3.14,0.19,6.28,0.37,9.43,0.56c-0.03,0.53-0.05,1.06-0.08,1.59c-3.24,2.44-6.38,1.02-9.52-0.39
	C507.28,429.61,507.33,429.03,507.39,428.44z"/>
<path d="M306.56,124.49c-1.89,0-2.2,0.04-2.21-0.01c-0.56-2.24-1.09-4.49-1.62-6.74c0.8-0.09,2.26-0.35,2.3-0.23
	C305.61,119.69,306.03,121.91,306.56,124.49z"/>
<path d="M300.49,105.38c0.32,2.53,0.63,5.07,1.07,8.55c-4.71-3.29-4.8-3.79-2.59-8.39C299.47,105.49,299.98,105.43,300.49,105.38z"
	/>
<path d="M387.49,343.52c0.31-2.43,0.62-4.86,0.93-7.29c0.66,0.05,1.31,0.1,1.97,0.15c1.65,2.59,1.19,5.08-1.04,7.5
	C388.73,343.76,388.11,343.64,387.49,343.52z"/>
</svg>
