<svg id="레이어_1" data-name="레이어 1" xmlns="http://www.w3.org/2000/svg" xmlns:xlink="http://www.w3.org/1999/xlink" viewBox="0 0 561.26 48.91"><defs><style>.cls-1{fill:none;}.cls-2{clip-path:url(#clip-path);}.cls-3{fill:#231815;}</style><clipPath id="clip-path" transform="translate(0 0)"><rect class="cls-1" width="561.26" height="48.92"/></clipPath></defs><title>sfpc</title><g class="cls-2"><path class="cls-3" d="M556.2,0,549,2.94l.45.92a4.9,4.9,0,0,1,1.73-.42,1.56,1.56,0,0,1,1,.34,2.2,2.2,0,0,1,.59,1.27,37.92,37.92,0,0,1,.18,5V31.88a8.8,8.8,0,0,1-.34,3,2.28,2.28,0,0,1-.95,1.13,5.1,5.1,0,0,1-2.26.34v.94h11.78v-.94a5.8,5.8,0,0,1-2.55-.38,2.32,2.32,0,0,1-1-1.11,8.71,8.71,0,0,1-.33-3V0ZM537.93,16.79q2.76,3.67,2.76,10.08,0,5.12-1.65,7.22a5.12,5.12,0,0,1-4.2,2.1q-3.41,0-5.5-3.81a18.56,18.56,0,0,1-2.09-9.05,14,14,0,0,1,.87-5.33,5.8,5.8,0,0,1,2.27-2.9,5.47,5.47,0,0,1,2.79-.83,5.68,5.68,0,0,1,4.75,2.52m-9.6-2.66A11.21,11.21,0,0,0,524,19a14.53,14.53,0,0,0-1.64,6.57,13.41,13.41,0,0,0,2.7,8.19,10.18,10.18,0,0,0,8.63,4.33A11,11,0,0,0,544,31.39a15.33,15.33,0,0,0,1.55-6.53,12.73,12.73,0,0,0-2.81-8.14A10.65,10.65,0,0,0,534,12.57a11.08,11.08,0,0,0-5.67,1.56m-18.05-1.56L503,15.51l.26.94a5.2,5.2,0,0,1,1.84-.39,1.77,1.77,0,0,1,1.14.37,2,2,0,0,1,.63,1.17,38.63,38.63,0,0,1,.17,5v9.32a13.54,13.54,0,0,1-.13,2.54,2.24,2.24,0,0,1-.92,1.34,5.11,5.11,0,0,1-2.73.58v.94h12.31v-.94a5.3,5.3,0,0,1-2.49-.47,2.71,2.71,0,0,1-1.21-1.18,7.12,7.12,0,0,1-.5-3V20.18a12.64,12.64,0,0,1,2.44-3.54,1.56,1.56,0,0,1,1-.53,3.41,3.41,0,0,1,1.69.91,3.46,3.46,0,0,0,2.06.91,2.18,2.18,0,0,0,1.63-.71,2.4,2.4,0,0,0,.68-1.73,2.71,2.71,0,0,0-.94-2,3.37,3.37,0,0,0-2.39-.88q-3.18,0-6.19,5.41V12.57Zm-14.7-7.19A29.45,29.45,0,0,1,493.9,9a15.56,15.56,0,0,1-2.69,3.27,10,10,0,0,1-3,2v.87h3.8V31.28a10.06,10.06,0,0,0,.55,3.84A4,4,0,0,0,494.32,37a4.66,4.66,0,0,0,2.36.67,5.6,5.6,0,0,0,3.46-1.3,8.23,8.23,0,0,0,2.6-3.87h-1a3.46,3.46,0,0,1-1.26,1.59,3,3,0,0,1-1.68.54,2.12,2.12,0,0,1-1.72-.81,5.23,5.23,0,0,1-.67-3.15V15.12H502V13.28h-5.62V5.38Zm-26,7.19h-1.13l-7.24,2.94.39.94a5,5,0,0,1,1.76-.39,1.64,1.64,0,0,1,1.09.34,2.26,2.26,0,0,1,.6,1.29,38.79,38.79,0,0,1,.2,5.27v8.92a6.8,6.8,0,0,1-.64,3.56,2.83,2.83,0,0,1-2.48.93h-.52v.94h11.89v-.94a6.23,6.23,0,0,1-2.61-.35,2.42,2.42,0,0,1-1-1.11,9,9,0,0,1-.29-3V19.21q3.1-3.41,6.22-3.41a3,3,0,0,1,2.87,1.48,10,10,0,0,1,.85,4.76v9.84a15.32,15.32,0,0,1-.1,2.47,2.68,2.68,0,0,1-.93,1.51,4,4,0,0,1-2.35.51h-.5v.94h11.89v-.94a5.28,5.28,0,0,1-2.37-.37,2.15,2.15,0,0,1-.93-1,8.65,8.65,0,0,1-.37-3.1V21.62a15,15,0,0,0-.58-4.83A6.59,6.59,0,0,0,481,13.55a5.79,5.79,0,0,0-3.38-1q-3.83,0-8.06,5.09Zm-18.19,4.23q2.76,3.67,2.76,10.08,0,5.12-1.65,7.22a5.12,5.12,0,0,1-4.2,2.1q-3.41,0-5.5-3.81a18.56,18.56,0,0,1-2.09-9.05,14,14,0,0,1,.87-5.33,5.79,5.79,0,0,1,2.27-2.9,5.48,5.48,0,0,1,2.8-.83,5.68,5.68,0,0,1,4.75,2.52m-9.61-2.66A11.2,11.2,0,0,0,437.44,19a14.52,14.52,0,0,0-1.64,6.57,13.4,13.4,0,0,0,2.7,8.19,10.18,10.18,0,0,0,8.63,4.33,11,11,0,0,0,10.31-6.67A15.32,15.32,0,0,0,459,24.85a12.73,12.73,0,0,0-2.81-8.14,10.65,10.65,0,0,0-8.76-4.15,11.08,11.08,0,0,0-5.67,1.56M429.58.92a4.08,4.08,0,0,1-1,2,1.73,1.73,0,0,1-1.23.5,4.13,4.13,0,0,1-1.57-.58A16.77,16.77,0,0,0,418.19.92,17.76,17.76,0,0,0,409,3.37a17.28,17.28,0,0,0-6.57,6.91,20.42,20.42,0,0,0-2.39,9.79,18.76,18.76,0,0,0,3.62,11.49q4.85,6.56,13.7,6.56a15.81,15.81,0,0,0,8.48-2.2,18.69,18.69,0,0,0,6.25-7l-.81-.52q-3.18,4.41-5.82,5.89a12.31,12.31,0,0,1-6.12,1.48,13.39,13.39,0,0,1-7.1-1.89,11.6,11.6,0,0,1-4.66-5.43,20.77,20.77,0,0,1-1.55-8.37,25.53,25.53,0,0,1,1.64-9.79,11.22,11.22,0,0,1,10.9-7.53,11.32,11.32,0,0,1,7.24,2.39q3,2.39,4.65,7.82h.81L430.5.92ZM374.42,12.57l-7.27,2.94.26.94a5.2,5.2,0,0,1,1.84-.39,1.77,1.77,0,0,1,1.14.37A2,2,0,0,1,371,17.6a38.92,38.92,0,0,1,.17,5v9.32a13.54,13.54,0,0,1-.13,2.54,2.24,2.24,0,0,1-.92,1.34,5.11,5.11,0,0,1-2.73.58v.94h12.31v-.94a5.3,5.3,0,0,1-2.49-.47A2.71,2.71,0,0,1,376,34.72a7.12,7.12,0,0,1-.5-3V20.18A12.61,12.61,0,0,1,378,16.64a1.56,1.56,0,0,1,1-.53,3.41,3.41,0,0,1,1.69.91,3.46,3.46,0,0,0,2.06.91,2.18,2.18,0,0,0,1.63-.71,2.41,2.41,0,0,0,.68-1.73,2.71,2.71,0,0,0-.94-2,3.37,3.37,0,0,0-2.39-.88q-3.18,0-6.19,5.41V12.57ZM350.68,16.1a5.41,5.41,0,0,1,3.9-1.69,4.93,4.93,0,0,1,2.72.84,5.21,5.21,0,0,1,2,2.31,10.27,10.27,0,0,1,.55,3.25H348.68a7.34,7.34,0,0,1,2-4.71m14.6,6.23a9.76,9.76,0,0,0-2.6-7.12A8.87,8.87,0,0,0,356,12.54,10.31,10.31,0,0,0,348.11,16q-3.16,3.45-3.16,9.62,0,5.69,3.08,9.07a9.69,9.69,0,0,0,7.41,3.37,8.55,8.55,0,0,0,6.64-3,12.52,12.52,0,0,0,3.2-6.55l-.81-.52a9.58,9.58,0,0,1-2.93,4.45,6.68,6.68,0,0,1-4.11,1.3,7.92,7.92,0,0,1-6.17-3q-2.62-3-2.6-8.4Zm-60.8-8.08a5,5,0,0,1,2.31,1,7.27,7.27,0,0,1,1.5,2.59L316,38.05h1l7-15.35,6,15.35h1.08l8-20.7q1.08-2.76,3.36-3.1v-1h-7.58v1a3.77,3.77,0,0,1,2,.45,1.12,1.12,0,0,1,.51.89,7,7,0,0,1-.52,2.26L331.8,31.15l-5.46-13.8a3,3,0,0,1-.21-1.08,1.61,1.61,0,0,1,.52-1.34,4.85,4.85,0,0,1,2.68-.68v-1H317.89v1a4.82,4.82,0,0,1,2.15.45,4.23,4.23,0,0,1,1.65,2.18l1.37,3.54-5.17,11.26-5.14-13.83a5.63,5.63,0,0,1-.45-2,1.45,1.45,0,0,1,.43-1.13,3.27,3.27,0,0,1,1.82-.5v-1H304.48Zm-9.84,2.55q2.76,3.67,2.76,10.08,0,5.12-1.65,7.22a5.12,5.12,0,0,1-4.2,2.1q-3.41,0-5.5-3.81A18.56,18.56,0,0,1,284,23.33a14,14,0,0,1,.87-5.33,5.8,5.8,0,0,1,2.27-2.9,5.48,5.48,0,0,1,2.8-.83,5.68,5.68,0,0,1,4.75,2.52M285,14.13A11.2,11.2,0,0,0,280.72,19a14.52,14.52,0,0,0-1.64,6.57,13.41,13.41,0,0,0,2.7,8.19,10.19,10.19,0,0,0,8.63,4.33,11,11,0,0,0,10.31-6.67,15.33,15.33,0,0,0,1.55-6.53,12.73,12.73,0,0,0-2.81-8.14,10.65,10.65,0,0,0-8.76-4.15A11.08,11.08,0,0,0,285,14.13M258.4,4.36a15.55,15.55,0,0,1,3.44-.5,7.83,7.83,0,0,1,3.94,1,6.53,6.53,0,0,1,2.68,3,9.86,9.86,0,0,1,.94,4.29,7.67,7.67,0,0,1-2,5.47,6.24,6.24,0,0,1-4.71,2.11,15.62,15.62,0,0,1-1.84-.13q-1.08-.13-2.47-.39Zm3.2,16.85a22.83,22.83,0,0,0,2.78.18q5.25,0,8.12-2.73a9.33,9.33,0,0,0,2.87-7.08A8.53,8.53,0,0,0,273.49,6a10.37,10.37,0,0,0-4.65-3.32,23.11,23.11,0,0,0-7.53-1h-13v1h1.34a3.85,3.85,0,0,1,3,1.16q.71.81.71,4.17V31q0,3-.52,3.86a3.58,3.58,0,0,1-3.23,1.47h-1.34v1h15.25v-1h-1.36a3.77,3.77,0,0,1-3-1.15q-.73-.81-.74-4.17V20.65q1.71.37,3.2.55m-37.94-8.63-7.27,2.94.26.94a5.2,5.2,0,0,1,1.84-.39,1.77,1.77,0,0,1,1.14.37,2,2,0,0,1,.63,1.17,38.62,38.62,0,0,1,.17,5v9.32a13.55,13.55,0,0,1-.13,2.54,2.24,2.24,0,0,1-.92,1.34,5.11,5.11,0,0,1-2.73.58v.94H229v-.94a5.3,5.3,0,0,1-2.49-.47,2.71,2.71,0,0,1-1.21-1.18,7.12,7.12,0,0,1-.5-3V20.18a12.64,12.64,0,0,1,2.44-3.54,1.56,1.56,0,0,1,1-.53,3.4,3.4,0,0,1,1.69.91,3.47,3.47,0,0,0,2.06.91,2.18,2.18,0,0,0,1.63-.71,2.4,2.4,0,0,0,.68-1.73,2.71,2.71,0,0,0-.94-2,3.37,3.37,0,0,0-2.39-.88q-3.18,0-6.19,5.41V12.57Zm-17.11,4.23q2.76,3.67,2.76,10.08,0,5.12-1.65,7.22a5.12,5.12,0,0,1-4.2,2.1q-3.41,0-5.5-3.81a18.56,18.56,0,0,1-2.09-9.05,14,14,0,0,1,.87-5.33A5.8,5.8,0,0,1,199,15.1a5.47,5.47,0,0,1,2.79-.83,5.68,5.68,0,0,1,4.75,2.52m-9.6-2.66A11.2,11.2,0,0,0,192.63,19,14.52,14.52,0,0,0,191,25.53a13.41,13.41,0,0,0,2.7,8.19,10.18,10.18,0,0,0,8.63,4.33,11,11,0,0,0,10.31-6.67,15.33,15.33,0,0,0,1.55-6.53,12.73,12.73,0,0,0-2.81-8.14,10.66,10.66,0,0,0-8.76-4.15,11.07,11.07,0,0,0-5.67,1.56m-8.4,1V13.28h-6.19V11.55a37.32,37.32,0,0,1,.37-7,3.6,3.6,0,0,1,1.21-2,3.27,3.27,0,0,1,2-.64,3.4,3.4,0,0,1,1.81.5,6.61,6.61,0,0,1,1.78,1.93,6.92,6.92,0,0,0,1.64,1.86,2.36,2.36,0,0,0,1.27.43A2,2,0,0,0,194,6a2.1,2.1,0,0,0,.68-1.48,3.36,3.36,0,0,0-1.52-2.65A8.1,8.1,0,0,0,188,.05a9.63,9.63,0,0,0-5.34,1.53,9.46,9.46,0,0,0-3.53,4A14.43,14.43,0,0,0,178,11.7v1.58h-4.67v1.89H178V31a11.84,11.84,0,0,1-.33,3.46,2.73,2.73,0,0,1-1.19,1.42,3.62,3.62,0,0,1-1.91.52h-1.08v.94h14.35v-.94h-2.18a3.22,3.22,0,0,1-2.6-1.15q-.74-.89-.74-4.25V15.17Zm-57.26-.92a5.92,5.92,0,0,1,1.94.74,6,6,0,0,1,1.07,1.23,14.46,14.46,0,0,1,1.26,2l8.63,18.13-1.71,4.17a8.59,8.59,0,0,1-1.88,3.15,2.73,2.73,0,0,1-1.72.81,5.64,5.64,0,0,1-1.31-.39,7.07,7.07,0,0,0-2.36-.58,2.8,2.8,0,0,0-2,.67,2.3,2.3,0,0,0-.72,1.77,2.68,2.68,0,0,0,1,2,3.67,3.67,0,0,0,2.55.89,7.3,7.3,0,0,0,4.42-1.78,12.39,12.39,0,0,0,3.71-5.28l9.79-24a16.4,16.4,0,0,1,.89-2A4.33,4.33,0,0,1,156,14.67a3.72,3.72,0,0,1,1.49-.42v-1h-7.82v1a5,5,0,0,1,1.58.17,1.4,1.4,0,0,1,.66.46,1.14,1.14,0,0,1,.18.71,5.53,5.53,0,0,1-.45,2.13L146.3,31l-5.85-12.12a7.21,7.21,0,0,1-.87-2.83,1.62,1.62,0,0,1,.59-1.27,2.64,2.64,0,0,1,1.77-.51h.55v-1H131.29Zm-7.4-8.87A29.45,29.45,0,0,1,122.21,9a15.56,15.56,0,0,1-2.69,3.27,10,10,0,0,1-3,2v.87h3.81V31.28a10.06,10.06,0,0,0,.55,3.84A4,4,0,0,0,122.63,37a4.66,4.66,0,0,0,2.36.67,5.6,5.6,0,0,0,3.46-1.3,8.23,8.23,0,0,0,2.6-3.87h-1a3.46,3.46,0,0,1-1.26,1.59,3,3,0,0,1-1.68.54,2.12,2.12,0,0,1-1.72-.81,5.23,5.23,0,0,1-.67-3.15V15.12h5.62V13.28H124.7V5.38Zm-24,10.72a5.41,5.41,0,0,1,3.9-1.69,4.93,4.93,0,0,1,2.72.84,5.21,5.21,0,0,1,2,2.31,10.3,10.3,0,0,1,.55,3.25H97.91a7.34,7.34,0,0,1,2-4.71m14.6,6.23a9.76,9.76,0,0,0-2.6-7.12,8.87,8.87,0,0,0-6.64-2.66A10.31,10.31,0,0,0,97.34,16q-3.16,3.45-3.16,9.62,0,5.69,3.08,9.07a9.7,9.7,0,0,0,7.41,3.37,8.55,8.55,0,0,0,6.64-3,12.51,12.51,0,0,0,3.2-6.55l-.81-.52a9.6,9.6,0,0,1-2.93,4.45,6.69,6.69,0,0,1-4.11,1.3,7.92,7.92,0,0,1-6.17-3q-2.63-3-2.6-8.4ZM86.07,12.57l-7.24,2.94.37.94A5.25,5.25,0,0,1,81,16.06a1.63,1.63,0,0,1,1.08.33,2.06,2.06,0,0,1,.58,1.17,32.7,32.7,0,0,1,.24,5.07v9.26a8.49,8.49,0,0,1-.35,3,2.34,2.34,0,0,1-1,1.13,5.44,5.44,0,0,1-2.36.34v.94H90.88v-.94A5.19,5.19,0,0,1,88.53,36a2.29,2.29,0,0,1-1-1.11,8.84,8.84,0,0,1-.33-3V12.57ZM83.15.77a2.55,2.55,0,0,0-.77,1.88,2.57,2.57,0,0,0,.79,1.89,2.58,2.58,0,0,0,1.89.79,2.53,2.53,0,0,0,1.88-.79,2.6,2.6,0,0,0,.77-1.89A2.55,2.55,0,0,0,86.93.77,2.56,2.56,0,0,0,85.05,0a2.59,2.59,0,0,0-1.9.77m-8.41,27a11.86,11.86,0,0,1-2.81,4.38A6.9,6.9,0,0,1,67.31,34a6.49,6.49,0,0,1-5.71-3.29,13.76,13.76,0,0,1-2.11-7.6,10.33,10.33,0,0,1,2.13-6.8,5.21,5.21,0,0,1,4.22-1.94,3.79,3.79,0,0,1,2.55.79,3.45,3.45,0,0,1,1.06,2.36,4.15,4.15,0,0,0,.59,2.1,2.79,2.79,0,0,0,2.34,1,2.49,2.49,0,0,0,1.8-.62,2.13,2.13,0,0,0,.64-1.61q0-2-2.28-3.9a8.87,8.87,0,0,0-5.82-1.88,10.78,10.78,0,0,0-8.1,3.54,12.81,12.81,0,0,0-3.37,9.21q0,5.85,3,9.29a9.26,9.26,0,0,0,7.14,3.44,9.15,9.15,0,0,0,6.27-2.56,13,13,0,0,0,3.81-7.31Zm-30.83-11q2.76,3.67,2.76,10.08,0,5.12-1.65,7.22a5.13,5.13,0,0,1-4.2,2.1q-3.41,0-5.5-3.81a18.56,18.56,0,0,1-2.09-9.05A14,14,0,0,1,34.09,18a5.8,5.8,0,0,1,2.27-2.9,5.47,5.47,0,0,1,2.79-.83,5.68,5.68,0,0,1,4.75,2.52m-9.6-2.66A11.2,11.2,0,0,0,30,19a14.53,14.53,0,0,0-1.64,6.57A13.41,13.41,0,0,0,31,33.72a10.18,10.18,0,0,0,8.63,4.33A11,11,0,0,0,50,31.39a15.31,15.31,0,0,0,1.55-6.53,12.73,12.73,0,0,0-2.81-8.14A10.65,10.65,0,0,0,40,12.57a11.07,11.07,0,0,0-5.67,1.56M20.31.92a3.25,3.25,0,0,1-.7,1.64A1.56,1.56,0,0,1,18.5,3a6.19,6.19,0,0,1-2.07-.66,15,15,0,0,0-6-1.39A10.47,10.47,0,0,0,2.94,3.69,8.76,8.76,0,0,0,0,10.29a8.33,8.33,0,0,0,1,4,11,11,0,0,0,2.93,3.36,54.38,54.38,0,0,0,6.5,4.08A64.27,64.27,0,0,1,16,25.11a7.9,7.9,0,0,1,2.24,2.49A5.55,5.55,0,0,1,19,30.26a5.37,5.37,0,0,1-1.9,4.09,7.41,7.41,0,0,1-5.18,1.73,10.94,10.94,0,0,1-5.21-1.26,8.81,8.81,0,0,1-3.53-3.16,17.24,17.24,0,0,1-1.84-5.73h-1v12.2h1a3.13,3.13,0,0,1,.56-1.63,1.37,1.37,0,0,1,1-.39,15.15,15.15,0,0,1,3.24.83,29.8,29.8,0,0,0,3.37,1,17.11,17.11,0,0,0,2.91.24,11.36,11.36,0,0,0,8.07-2.93,9.21,9.21,0,0,0,3.14-7,8.89,8.89,0,0,0-1-4.07,10,10,0,0,0-2.81-3.37A53.63,53.63,0,0,0,13,16.69Q6.93,13.41,5.3,11.44a4.49,4.49,0,0,1-1.13-3A5.07,5.07,0,0,1,6,4.68,6.35,6.35,0,0,1,10.47,3a9.62,9.62,0,0,1,4.67,1.23,8.8,8.8,0,0,1,3.48,3.33,15.33,15.33,0,0,1,1.69,5.64h1V.92Z" transform="translate(0 0)"/></g></svg>