<?xml version="1.0" encoding="utf-8"?>
<!-- Generator: Adobe Illustrator 20.0.0, SVG Export Plug-In . SVG Version: 6.00 Build 0)  -->
<svg version="1.1" id="레이어_1" xmlns="http://www.w3.org/2000/svg" xmlns:xlink="http://www.w3.org/1999/xlink" x="0px"
	 y="0px" viewBox="0 0 491.4 42.8" style="enable-background:new 0 0 491.4 42.8;" xml:space="preserve">
<style type="text/css">
	.st0{clip-path:url(#SVGID_2_);fill:#231815;}
</style>
<g>
	<defs>
		<rect id="SVGID_1_" width="491.4" height="42.8"/>
	</defs>
	<clipPath id="SVGID_2_">
		<use xlink:href="#SVGID_1_"  style="overflow:visible;"/>
	</clipPath>
	<path class="st0" d="M486.9,0l-6.3,2.6l0.4,0.8c0.6-0.2,1.1-0.4,1.5-0.4c0.4,0,0.7,0.1,0.9,0.3c0.2,0.2,0.4,0.6,0.5,1.1
		c0.1,0.5,0.2,2,0.2,4.4v19.1c0,1.3-0.1,2.2-0.3,2.6c-0.2,0.5-0.5,0.8-0.8,1c-0.4,0.2-1,0.3-2,0.3v0.8h10.3v-0.8
		c-1.1,0-1.8-0.1-2.2-0.3c-0.4-0.2-0.7-0.5-0.9-1c-0.2-0.4-0.3-1.3-0.3-2.6V0H486.9z M470.9,14.7c1.6,2.1,2.4,5.1,2.4,8.8
		c0,3-0.5,5.1-1.4,6.3c-1,1.2-2.2,1.8-3.7,1.8c-2,0-3.6-1.1-4.8-3.3c-1.2-2.2-1.8-4.9-1.8-7.9c0-1.9,0.3-3.5,0.8-4.7
		c0.5-1.2,1.2-2.1,2-2.5c0.8-0.5,1.6-0.7,2.4-0.7C468.5,12.5,469.9,13.2,470.9,14.7 M462.5,12.4c-1.6,0.9-2.8,2.3-3.8,4.2
		c-1,1.9-1.4,3.8-1.4,5.8c0,2.6,0.8,5,2.4,7.2c1.9,2.5,4.4,3.8,7.6,3.8c1.9,0,3.7-0.5,5.3-1.5c1.6-1,2.8-2.4,3.7-4.4
		c0.9-1.9,1.4-3.8,1.4-5.7c0-2.7-0.8-5.1-2.5-7.1c-1.9-2.4-4.5-3.6-7.7-3.6C465.7,11,464.1,11.5,462.5,12.4 M446.7,11l-6.4,2.6
		l0.2,0.8c0.6-0.2,1.1-0.3,1.6-0.3c0.4,0,0.7,0.1,1,0.3c0.3,0.2,0.5,0.6,0.6,1c0.1,0.5,0.1,1.9,0.1,4.4v8.2c0,1.2,0,2-0.1,2.2
		c-0.2,0.5-0.4,0.9-0.8,1.2c-0.5,0.3-1.3,0.5-2.4,0.5v0.8h10.8v-0.8c-1,0-1.7-0.1-2.2-0.4c-0.5-0.3-0.9-0.6-1.1-1
		c-0.3-0.6-0.4-1.5-0.4-2.6V17.7c0.7-1.4,1.4-2.5,2.1-3.1c0.3-0.3,0.6-0.5,0.9-0.5c0.3,0,0.8,0.3,1.5,0.8c0.7,0.5,1.3,0.8,1.8,0.8
		c0.6,0,1-0.2,1.4-0.6c0.4-0.4,0.6-0.9,0.6-1.5c0-0.7-0.3-1.3-0.8-1.8c-0.6-0.5-1.2-0.8-2.1-0.8c-1.9,0-3.7,1.6-5.4,4.7V11H446.7z
		 M433.9,4.7c-0.6,1.5-1.1,2.6-1.5,3.2c-0.7,1.1-1.5,2.1-2.4,2.9c-0.9,0.8-1.7,1.4-2.6,1.7v0.8h3.3v14.2c0,1.5,0.2,2.6,0.5,3.4
		c0.3,0.7,0.8,1.3,1.5,1.7c0.7,0.4,1.4,0.6,2.1,0.6c1,0,2.1-0.4,3-1.1s1.7-1.9,2.3-3.4h-0.9c-0.3,0.6-0.6,1.1-1.1,1.4
		c-0.5,0.3-1,0.5-1.5,0.5c-0.6,0-1.1-0.2-1.5-0.7c-0.4-0.5-0.6-1.4-0.6-2.8V13.2h4.9v-1.6h-4.9V4.7H433.9z M411.1,11h-1l-6.3,2.6
		l0.3,0.8c0.6-0.2,1.1-0.3,1.5-0.3c0.4,0,0.7,0.1,1,0.3c0.2,0.2,0.4,0.6,0.5,1.1c0.1,0.6,0.2,2.1,0.2,4.6v7.8c0,1.5-0.2,2.6-0.6,3.1
		c-0.4,0.5-1.1,0.8-2.2,0.8h-0.5v0.8h10.4v-0.8c-1.1,0-1.9-0.1-2.3-0.3c-0.4-0.2-0.7-0.5-0.9-1c-0.2-0.3-0.3-1.2-0.3-2.6V16.8
		c1.8-2,3.6-3,5.4-3c1.2,0,2,0.4,2.5,1.3c0.5,0.9,0.7,2.3,0.7,4.2v8.6c0,1.2,0,1.9-0.1,2.2c-0.2,0.6-0.4,1-0.8,1.3
		c-0.4,0.3-1.1,0.4-2.1,0.4h-0.4v0.8h10.4v-0.8c-1,0-1.7-0.1-2.1-0.3c-0.4-0.2-0.6-0.5-0.8-0.9c-0.2-0.5-0.3-1.4-0.3-2.7v-9
		c0-1.9-0.2-3.3-0.5-4.2c-0.5-1.3-1.1-2.3-2-2.8s-1.8-0.9-3-0.9c-2.2,0-4.6,1.5-7.1,4.5V11z M395.2,14.7c1.6,2.1,2.4,5.1,2.4,8.8
		c0,3-0.5,5.1-1.4,6.3c-1,1.2-2.2,1.8-3.7,1.8c-2,0-3.6-1.1-4.8-3.3c-1.2-2.2-1.8-4.9-1.8-7.9c0-1.9,0.3-3.5,0.8-4.7
		c0.5-1.2,1.2-2.1,2-2.5c0.8-0.5,1.6-0.7,2.4-0.7C392.7,12.5,394.1,13.2,395.2,14.7 M386.7,12.4c-1.6,0.9-2.8,2.3-3.8,4.2
		c-1,1.9-1.4,3.8-1.4,5.8c0,2.6,0.8,5,2.4,7.2c1.9,2.5,4.4,3.8,7.6,3.8c1.9,0,3.7-0.5,5.3-1.5c1.6-1,2.8-2.4,3.7-4.4
		c0.9-1.9,1.4-3.8,1.4-5.7c0-2.7-0.8-5.1-2.5-7.1c-1.9-2.4-4.5-3.6-7.7-3.6C390,11,388.3,11.5,386.7,12.4 M376.1,0.8
		c-0.2,0.7-0.5,1.3-0.9,1.7c-0.3,0.3-0.7,0.4-1.1,0.4c-0.3,0-0.7-0.2-1.4-0.5c-2.2-1.1-4.4-1.7-6.7-1.7c-2.9,0-5.6,0.7-8,2.1
		s-4.4,3.5-5.8,6.1c-1.4,2.6-2.1,5.5-2.1,8.6c0,3.9,1.1,7.2,3.2,10.1c2.8,3.8,6.8,5.7,12,5.7c2.9,0,5.3-0.6,7.4-1.9
		c2.1-1.3,3.9-3.3,5.5-6.1l-0.7-0.5c-1.9,2.6-3.6,4.3-5.1,5.2c-1.5,0.9-3.3,1.3-5.4,1.3c-2.3,0-4.4-0.6-6.2-1.7
		c-1.8-1.1-3.2-2.7-4.1-4.8c-0.9-2.1-1.4-4.5-1.4-7.3c0-3.4,0.5-6.3,1.4-8.6c1-2.3,2.3-4,3.9-5c1.7-1,3.5-1.6,5.6-1.6
		c2.5,0,4.6,0.7,6.3,2.1c1.8,1.4,3.1,3.7,4.1,6.8h0.7l-0.7-10.6H376.1z M327.8,11l-6.4,2.6l0.2,0.8c0.6-0.2,1.1-0.3,1.6-0.3
		c0.4,0,0.7,0.1,1,0.3c0.3,0.2,0.5,0.6,0.6,1c0.1,0.5,0.1,1.9,0.1,4.4v8.2c0,1.2,0,2-0.1,2.2c-0.2,0.5-0.4,0.9-0.8,1.2
		c-0.5,0.3-1.3,0.5-2.4,0.5v0.8h10.8v-0.8c-1,0-1.7-0.1-2.2-0.4c-0.5-0.3-0.9-0.6-1.1-1c-0.3-0.6-0.4-1.5-0.4-2.6V17.7
		c0.7-1.4,1.4-2.5,2.1-3.1c0.3-0.3,0.6-0.5,0.9-0.5c0.3,0,0.8,0.3,1.5,0.8c0.7,0.5,1.3,0.8,1.8,0.8c0.6,0,1-0.2,1.4-0.6
		c0.4-0.4,0.6-0.9,0.6-1.5c0-0.7-0.3-1.3-0.8-1.8c-0.6-0.5-1.2-0.8-2.1-0.8c-1.9,0-3.7,1.6-5.4,4.7V11H327.8z M307,14.1
		c1-1,2.1-1.5,3.4-1.5c0.8,0,1.6,0.2,2.4,0.7c0.8,0.5,1.3,1.2,1.7,2c0.2,0.6,0.4,1.5,0.5,2.8h-9.7C305.4,16.5,306,15.1,307,14.1
		 M319.8,19.6c0-2.6-0.8-4.7-2.3-6.2c-1.5-1.6-3.5-2.3-5.8-2.3c-2.8,0-5.1,1-6.9,3c-1.8,2-2.8,4.8-2.8,8.4c0,3.3,0.9,6,2.7,7.9
		c1.8,2,4,3,6.5,3c2.3,0,4.3-0.9,5.8-2.6c1.5-1.7,2.5-3.6,2.8-5.7l-0.7-0.5c-0.7,1.8-1.5,3.1-2.6,3.9c-1,0.8-2.2,1.1-3.6,1.1
		c-2.1,0-3.9-0.9-5.4-2.7c-1.5-1.8-2.3-4.2-2.3-7.4H319.8z M266.6,12.5c0.9,0.2,1.6,0.5,2,0.9c0.4,0.4,0.9,1.1,1.3,2.3l6.8,17.7h0.9
		l6.1-13.4l5.3,13.4h0.9l7-18.1c0.6-1.6,1.6-2.5,2.9-2.7v-0.8h-6.6v0.8c0.9,0,1.5,0.2,1.8,0.4c0.3,0.2,0.4,0.5,0.4,0.8
		c0,0.5-0.2,1.1-0.5,2l-4.4,11.6l-4.8-12.1c-0.1-0.3-0.2-0.6-0.2-0.9c0-0.5,0.2-0.9,0.5-1.2c0.5-0.4,1.2-0.6,2.3-0.6v-0.8h-10v0.8
		c0.9,0,1.5,0.2,1.9,0.4c0.6,0.4,1.1,1,1.4,1.9l1.2,3.1l-4.5,9.9l-4.5-12.1c-0.3-0.7-0.4-1.2-0.4-1.7c0-0.4,0.1-0.8,0.4-1
		c0.3-0.2,0.8-0.4,1.6-0.4v-0.8h-8.8V12.5z M258,14.7c1.6,2.1,2.4,5.1,2.4,8.8c0,3-0.5,5.1-1.4,6.3c-1,1.2-2.2,1.8-3.7,1.8
		c-2,0-3.6-1.1-4.8-3.3c-1.2-2.2-1.8-4.9-1.8-7.9c0-1.9,0.3-3.5,0.8-4.7c0.5-1.2,1.2-2.1,2-2.5c0.8-0.5,1.6-0.7,2.4-0.7
		C255.5,12.5,256.9,13.2,258,14.7 M249.5,12.4c-1.6,0.9-2.8,2.3-3.8,4.2c-1,1.9-1.4,3.8-1.4,5.8c0,2.6,0.8,5,2.4,7.2
		c1.9,2.5,4.4,3.8,7.6,3.8c1.9,0,3.7-0.5,5.3-1.5c1.6-1,2.8-2.4,3.7-4.4s1.4-3.8,1.4-5.7c0-2.7-0.8-5.1-2.5-7.1
		c-1.9-2.4-4.5-3.6-7.7-3.6C252.8,11,251.1,11.5,249.5,12.4 M226.2,3.8c1.2-0.3,2.2-0.4,3-0.4c1.3,0,2.4,0.3,3.4,0.9
		c1,0.6,1.8,1.4,2.3,2.6c0.6,1.2,0.8,2.4,0.8,3.8c0,2-0.6,3.6-1.7,4.8c-1.2,1.2-2.5,1.8-4.1,1.8c-0.4,0-1,0-1.6-0.1
		c-0.6-0.1-1.3-0.2-2.2-0.3V3.8z M229,18.6c0.9,0.1,1.7,0.2,2.4,0.2c3.1,0,5.4-0.8,7.1-2.4c1.7-1.6,2.5-3.7,2.5-6.2
		c0-1.9-0.6-3.5-1.7-4.8c-1.1-1.4-2.5-2.3-4.1-2.9c-1.6-0.6-3.8-0.9-6.6-0.9h-11.4v0.8h1.2c1.2,0,2.1,0.3,2.7,1
		c0.4,0.5,0.6,1.7,0.6,3.7v20.1c0,1.8-0.2,2.9-0.5,3.4c-0.6,0.9-1.5,1.3-2.8,1.3h-1.2v0.9h13.3v-0.9h-1.2c-1.2,0-2.1-0.3-2.6-1
		c-0.4-0.5-0.6-1.7-0.6-3.7v-9.1C227.2,18.3,228.2,18.5,229,18.6 M195.8,11l-6.4,2.6l0.2,0.8c0.6-0.2,1.1-0.3,1.6-0.3
		c0.4,0,0.7,0.1,1,0.3c0.3,0.2,0.5,0.6,0.6,1c0.1,0.5,0.1,1.9,0.1,4.4v8.2c0,1.2,0,2-0.1,2.2c-0.2,0.5-0.4,0.9-0.8,1.2
		c-0.5,0.3-1.3,0.5-2.4,0.5v0.8h10.8v-0.8c-0.9,0-1.7-0.1-2.2-0.4c-0.5-0.3-0.9-0.6-1.1-1c-0.3-0.6-0.4-1.5-0.4-2.6V17.7
		c0.7-1.4,1.4-2.5,2.1-3.1c0.3-0.3,0.6-0.5,0.9-0.5c0.3,0,0.8,0.3,1.5,0.8c0.7,0.5,1.3,0.8,1.8,0.8c0.6,0,1-0.2,1.4-0.6
		c0.4-0.4,0.6-0.9,0.6-1.5c0-0.7-0.3-1.3-0.8-1.8c-0.6-0.5-1.2-0.8-2.1-0.8c-1.9,0-3.7,1.6-5.4,4.7V11H195.8z M180.8,14.7
		c1.6,2.1,2.4,5.1,2.4,8.8c0,3-0.5,5.1-1.4,6.3c-1,1.2-2.2,1.8-3.7,1.8c-2,0-3.6-1.1-4.8-3.3c-1.2-2.2-1.8-4.9-1.8-7.9
		c0-1.9,0.3-3.5,0.8-4.7c0.5-1.2,1.2-2.1,2-2.5c0.8-0.5,1.6-0.7,2.4-0.7C178.4,12.5,179.7,13.2,180.8,14.7 M172.4,12.4
		c-1.6,0.9-2.8,2.3-3.8,4.2c-1,1.9-1.4,3.8-1.4,5.8c0,2.6,0.8,5,2.4,7.2c1.9,2.5,4.4,3.8,7.6,3.8c1.9,0,3.7-0.5,5.3-1.5
		c1.6-1,2.8-2.4,3.7-4.4c0.9-1.9,1.4-3.8,1.4-5.7c0-2.7-0.8-5.1-2.5-7.1c-1.9-2.4-4.5-3.6-7.7-3.6C175.6,11,174,11.5,172.4,12.4
		 M165.1,13.3v-1.7h-5.4v-1.5c0-3.3,0.1-5.3,0.3-6.1c0.2-0.8,0.6-1.4,1.1-1.7c0.5-0.4,1.1-0.6,1.8-0.6c0.6,0,1.1,0.1,1.6,0.4
		c0.5,0.3,1,0.9,1.6,1.7c0.6,0.8,1,1.4,1.4,1.6c0.4,0.3,0.8,0.4,1.1,0.4c0.5,0,0.9-0.2,1.3-0.6c0.4-0.4,0.6-0.8,0.6-1.3
		c0-0.9-0.4-1.6-1.3-2.3c-1.3-1-2.8-1.6-4.4-1.6c-1.7,0-3.3,0.4-4.7,1.3s-2.4,2.1-3.1,3.5c-0.7,1.5-1,3.2-1,5.3v1.4h-4.1v1.7h4.1
		v13.8c0,1.5-0.1,2.5-0.3,3c-0.2,0.5-0.5,0.9-1,1.2c-0.5,0.3-1.1,0.5-1.7,0.5h-0.9v0.8h12.6v-0.8h-1.9c-0.9,0-1.7-0.3-2.3-1
		c-0.4-0.5-0.6-1.8-0.6-3.7V13.3H165.1z M114.9,12.5c0.8,0.2,1.3,0.4,1.7,0.6c0.2,0.2,0.6,0.5,0.9,1.1c0.5,0.7,0.9,1.3,1.1,1.8
		l7.6,15.9l-1.5,3.7c-0.6,1.4-1.1,2.3-1.6,2.8c-0.5,0.5-1,0.7-1.5,0.7c-0.2,0-0.5-0.1-1.1-0.3c-0.9-0.3-1.6-0.5-2.1-0.5
		c-0.7,0-1.3,0.2-1.7,0.6c-0.4,0.4-0.6,0.9-0.6,1.6c0,0.7,0.3,1.3,0.9,1.8s1.3,0.8,2.2,0.8c1.2,0,2.5-0.5,3.9-1.6
		c1.3-1,2.4-2.6,3.3-4.6l8.6-21c0.4-1,0.6-1.6,0.8-1.8c0.4-0.5,0.7-0.9,1-1c0.3-0.2,0.7-0.3,1.3-0.4v-0.8h-6.8v0.8
		c0.7,0,1.1,0.1,1.4,0.1c0.3,0.1,0.5,0.2,0.6,0.4c0.1,0.1,0.2,0.3,0.2,0.6c0,0.6-0.1,1.2-0.4,1.9l-4.7,11.6L123,16.5
		c-0.5-1.1-0.8-1.9-0.8-2.5c0-0.4,0.2-0.8,0.5-1.1c0.3-0.3,0.9-0.4,1.6-0.4h0.5v-0.8h-9.8V12.5z M108.5,4.7
		c-0.6,1.5-1.1,2.6-1.5,3.2c-0.7,1.1-1.5,2.1-2.4,2.9c-0.9,0.8-1.7,1.4-2.6,1.7v0.8h3.3v14.2c0,1.5,0.2,2.6,0.5,3.4
		c0.3,0.7,0.8,1.3,1.5,1.7c0.7,0.4,1.4,0.6,2.1,0.6c1,0,2.1-0.4,3-1.1c1-0.8,1.7-1.9,2.3-3.4h-0.9c-0.3,0.6-0.6,1.1-1.1,1.4
		c-0.5,0.3-1,0.5-1.5,0.5c-0.6,0-1.1-0.2-1.5-0.7c-0.4-0.5-0.6-1.4-0.6-2.8V13.2h4.9v-1.6h-4.9V4.7H108.5z M87.5,14.1
		c1-1,2.1-1.5,3.4-1.5c0.8,0,1.6,0.2,2.4,0.7c0.8,0.5,1.3,1.2,1.7,2c0.2,0.6,0.4,1.5,0.5,2.8h-9.7C85.9,16.5,86.5,15.1,87.5,14.1
		 M100.3,19.6c0-2.6-0.8-4.7-2.3-6.2c-1.5-1.6-3.5-2.3-5.8-2.3c-2.8,0-5.1,1-6.9,3c-1.8,2-2.8,4.8-2.8,8.4c0,3.3,0.9,6,2.7,7.9
		c1.8,2,4,3,6.5,3c2.3,0,4.3-0.9,5.8-2.6c1.5-1.7,2.5-3.6,2.8-5.7l-0.7-0.5c-0.7,1.8-1.5,3.1-2.6,3.9c-1,0.8-2.2,1.1-3.6,1.1
		c-2.1,0-3.9-0.9-5.4-2.7c-1.5-1.8-2.3-4.2-2.3-7.4H100.3z M75.4,11L69,13.6l0.3,0.8c0.6-0.2,1.1-0.3,1.6-0.3c0.4,0,0.7,0.1,0.9,0.3
		c0.2,0.2,0.4,0.5,0.5,1c0.1,0.7,0.2,2.2,0.2,4.4v8.1c0,1.3-0.1,2.2-0.3,2.6c-0.2,0.5-0.5,0.8-0.8,1c-0.4,0.2-1,0.3-2.1,0.3v0.8
		h10.2v-0.8c-1,0-1.7-0.1-2.1-0.3c-0.4-0.2-0.7-0.5-0.9-1c-0.2-0.4-0.3-1.3-0.3-2.6V11H75.4z M72.8,0.7c-0.5,0.5-0.7,1-0.7,1.6
		c0,0.6,0.2,1.2,0.7,1.7c0.5,0.5,1,0.7,1.7,0.7c0.6,0,1.2-0.2,1.6-0.7c0.5-0.5,0.7-1,0.7-1.7c0-0.6-0.2-1.2-0.7-1.6
		c-0.5-0.5-1-0.7-1.6-0.7C73.8,0,73.2,0.2,72.8,0.7 M65.4,24.4c-0.8,1.9-1.6,3.1-2.5,3.8c-1.2,1-2.5,1.5-4,1.5c-2.1,0-3.8-1-5-2.9
		c-1.2-1.9-1.8-4.1-1.8-6.7c0-2.5,0.6-4.4,1.9-5.9c0.9-1.1,2.2-1.7,3.7-1.7c0.9,0,1.7,0.2,2.2,0.7c0.5,0.5,0.8,1.2,0.9,2.1
		c0.1,0.9,0.3,1.5,0.5,1.8c0.5,0.6,1.1,0.9,2,0.9c0.7,0,1.2-0.2,1.6-0.5c0.4-0.4,0.6-0.8,0.6-1.4c0-1.2-0.7-2.3-2-3.4
		c-1.3-1.1-3-1.6-5.1-1.6c-2.8,0-5.1,1-7.1,3.1c-2,2.1-3,4.8-3,8.1c0,3.4,0.9,6.1,2.7,8.1c1.8,2,3.9,3,6.2,3c2,0,3.8-0.7,5.5-2.2
		c1.7-1.5,2.8-3.6,3.3-6.4L65.4,24.4z M38.4,14.7c1.6,2.1,2.4,5.1,2.4,8.8c0,3-0.5,5.1-1.4,6.3c-1,1.2-2.2,1.8-3.7,1.8
		c-2,0-3.6-1.1-4.8-3.3c-1.2-2.2-1.8-4.9-1.8-7.9c0-1.9,0.3-3.5,0.8-4.7c0.5-1.2,1.2-2.1,2-2.5c0.8-0.5,1.6-0.7,2.4-0.7
		C36,12.5,37.3,13.2,38.4,14.7 M30,12.4c-1.6,0.9-2.8,2.3-3.8,4.2c-1,1.9-1.4,3.8-1.4,5.8c0,2.6,0.8,5,2.4,7.2
		c1.9,2.5,4.4,3.8,7.6,3.8c1.9,0,3.7-0.5,5.3-1.5c1.6-1,2.8-2.4,3.7-4.4c0.9-1.9,1.4-3.8,1.4-5.7c0-2.7-0.8-5.1-2.5-7.1
		C40.7,12.2,38.2,11,35,11C33.2,11,31.6,11.5,30,12.4 M17.8,0.8c-0.2,0.7-0.4,1.2-0.6,1.4c-0.3,0.2-0.6,0.4-1,0.4
		c-0.4,0-1-0.2-1.8-0.6c-1.9-0.8-3.6-1.2-5.3-1.2c-2.6,0-4.8,0.8-6.5,2.4C0.9,4.8,0,6.8,0,9c0,1.3,0.3,2.5,0.9,3.5
		c0.6,1.1,1.4,2.1,2.6,2.9c1.1,0.9,3,2.1,5.7,3.6c2.7,1.5,4.3,2.5,4.9,2.9c0.9,0.7,1.5,1.4,2,2.2c0.4,0.8,0.6,1.6,0.6,2.3
		c0,1.4-0.6,2.6-1.7,3.6c-1.1,1-2.6,1.5-4.5,1.5c-1.7,0-3.2-0.4-4.6-1.1c-1.4-0.7-2.4-1.7-3.1-2.8c-0.7-1.1-1.2-2.8-1.6-5H0.3v10.7
		h0.9c0.1-0.7,0.3-1.2,0.5-1.4c0.2-0.2,0.5-0.3,0.9-0.3c0.4,0,1.3,0.2,2.8,0.7c1.5,0.5,2.5,0.8,3,0.8c0.8,0.1,1.6,0.2,2.6,0.2
		c2.9,0,5.2-0.9,7.1-2.6c1.8-1.7,2.7-3.7,2.7-6.1c0-1.2-0.3-2.4-0.9-3.6c-0.6-1.1-1.4-2.1-2.5-3c-1.1-0.8-3.1-2-6-3.6
		c-3.6-1.9-5.8-3.4-6.8-4.6c-0.7-0.8-1-1.6-1-2.6c0-1.2,0.5-2.3,1.6-3.3c1-1,2.4-1.5,4-1.5c1.4,0,2.8,0.4,4.1,1.1
		c1.3,0.7,2.3,1.7,3,2.9c0.7,1.2,1.2,2.9,1.5,4.9h0.8V0.8H17.8z"/>
</g>
</svg>
